<svg width="112" height="1586" viewBox="0 0 112 1586" fill="none" xmlns="http://www.w3.org/2000/svg">
<rect x="51.0703" y="51.0723" width="8.5118" height="1481.62" fill="white"/>
<circle cx="55.6104" cy="55.6104" r="55.6104" fill="white"/>
<path d="M43.8672 45.2422V37.8922H62.1672V75.2422H53.7672V45.2422H43.8672Z" fill="black"/>
<circle cx="55.6104" cy="814.296" r="55.6104" fill="white"/>
<path d="M59.3543 821.468L48.0293 827.768L47.5793 825.968H73.3793V832.793H37.9043V825.968C41.9543 823.768 45.5793 821.918 48.7793 820.418C51.9793 818.868 54.6793 817.468 56.8793 816.218C59.1293 814.968 60.8293 813.693 61.9793 812.393C63.1793 811.093 63.7793 809.643 63.7793 808.043C63.7793 806.743 63.4543 805.618 62.8043 804.668C62.1543 803.718 61.1293 802.993 59.7293 802.493C58.3793 801.943 56.6293 801.668 54.4793 801.668C51.6793 801.668 49.3793 802.318 47.5793 803.618C45.7793 804.868 44.8293 806.568 44.7293 808.718H36.8543C36.6543 805.968 37.2543 803.543 38.6543 801.443C40.1043 799.343 42.1793 797.693 44.8793 796.493C47.6293 795.243 50.7793 794.618 54.3293 794.618C57.0793 794.618 59.5543 794.918 61.7543 795.518C63.9543 796.118 65.8293 796.993 67.3793 798.143C68.9793 799.243 70.2043 800.568 71.0543 802.118C71.9043 803.618 72.3293 805.293 72.3293 807.143C72.3293 808.643 72.0543 810.018 71.5043 811.268C71.0043 812.468 70.2043 813.643 69.1043 814.793C68.0543 815.893 66.7043 816.993 65.0543 818.093C63.4543 819.143 61.5543 820.268 59.3543 821.468Z" fill="black"/>
<circle cx="55.6104" cy="1529.86" r="55.6104" fill="white"/>
<path d="M56.54 1530.05L56.615 1529.67C59.165 1529.77 61.515 1530.05 63.665 1530.5C65.815 1530.9 67.665 1531.55 69.215 1532.45C70.815 1533.35 72.04 1534.57 72.89 1536.12C73.79 1537.67 74.24 1539.62 74.24 1541.97C74.24 1544.68 73.44 1547.1 71.84 1549.25C70.29 1551.4 68.09 1553.1 65.24 1554.35C62.39 1555.6 59.04 1556.23 55.19 1556.23C51.49 1556.23 48.215 1555.55 45.365 1554.2C42.515 1552.9 40.315 1551.13 38.765 1548.88C37.265 1546.63 36.615 1544.08 36.815 1541.22H44.69C44.74 1542.72 45.165 1544.05 45.965 1545.2C46.815 1546.35 48.015 1547.25 49.565 1547.9C51.165 1548.55 53.04 1548.88 55.19 1548.88C58.49 1548.88 61.015 1548.18 62.765 1546.78C64.565 1545.43 65.465 1543.5 65.465 1541C65.465 1538.5 64.44 1536.65 62.39 1535.45C60.39 1534.2 57.565 1533.57 53.915 1533.57H48.29V1526.82H53.915C56.415 1526.82 58.465 1526.6 60.065 1526.15C61.665 1525.65 62.84 1524.9 63.59 1523.9C64.34 1522.85 64.715 1521.57 64.715 1520.07C64.715 1517.92 63.94 1516.22 62.39 1514.97C60.89 1513.72 58.49 1513.1 55.19 1513.1C52.14 1513.1 49.74 1513.75 47.99 1515.05C46.24 1516.35 45.34 1518.07 45.29 1520.22H37.34C37.19 1518.02 37.54 1516.05 38.39 1514.3C39.29 1512.55 40.565 1511.05 42.215 1509.8C43.915 1508.5 45.865 1507.5 48.065 1506.8C50.315 1506.1 52.69 1505.75 55.19 1505.75C58.94 1505.75 62.165 1506.32 64.865 1507.47C67.615 1508.57 69.715 1510.12 71.165 1512.12C72.615 1514.12 73.34 1516.42 73.34 1519.02C73.34 1521.17 72.915 1522.95 72.065 1524.35C71.265 1525.75 70.09 1526.87 68.54 1527.72C67.04 1528.52 65.265 1529.1 63.215 1529.45C61.215 1529.8 58.99 1530 56.54 1530.05Z" fill="black"/>
</svg>
