<svg width="580" height="743" viewBox="0 0 580 743" fill="none" xmlns="http://www.w3.org/2000/svg">
<mask id="path-1-inside-1_1438_3088" fill="white">
<path d="M346.139 42.2865C349.939 17.9453 370.904 0 395.54 0H529.99C560.68 0 584.126 27.3914 579.392 57.7135L559.4 185.75H323.738L346.139 42.2865Z"/>
</mask>
<path d="M346.139 42.2865C349.939 17.9453 370.904 0 395.54 0H529.99C560.68 0 584.126 27.3914 579.392 57.7135L559.4 185.75H323.738L346.139 42.2865Z" fill="#FFFBF2"/>
<path d="M323.738 185.75L322.75 185.596L322.57 186.75H323.738V185.75ZM559.4 185.75V186.75H560.256L560.388 185.904L559.4 185.75ZM579.392 57.7135L580.38 57.8678L579.392 57.7135ZM346.139 42.2865L345.151 42.1322L346.139 42.2865ZM395.54 1H529.99V-1H395.54V1ZM324.726 185.904L347.127 42.4408L345.151 42.1322L322.75 185.596L324.726 185.904ZM578.404 57.5593L558.412 185.596L560.388 185.904L580.38 57.8678L578.404 57.5593ZM559.4 184.75H323.738V186.75H559.4V184.75ZM529.99 1C560.066 1 583.043 27.8436 578.404 57.5593L580.38 57.8678C585.209 26.9393 561.293 -1 529.99 -1V1ZM395.54 -1C370.411 -1 349.027 17.3042 345.151 42.1322L347.127 42.4408C350.851 18.5864 371.397 1 395.54 1V-1Z" fill="black" fill-opacity="0.5" mask="url(#path-1-inside-1_1438_3088)"/>
<mask id="path-3-inside-2_1438_3088" fill="white">
<path d="M323.772 185.75L294.809 371.5H530.148L559.112 185.75H323.772Z"/>
</mask>
<path d="M323.772 185.75L294.809 371.5H530.148L559.112 185.75H323.772Z" fill="#F1F1F1"/>
<path d="M294.809 371.5L293.821 371.346L293.641 372.5H294.809V371.5ZM323.772 185.75V184.75H322.916L322.784 185.596L323.772 185.75ZM559.112 185.75L560.1 185.904L560.28 184.75H559.112V185.75ZM530.148 371.5V372.5H531.004L531.136 371.654L530.148 371.5ZM295.797 371.654L324.76 185.904L322.784 185.596L293.821 371.346L295.797 371.654ZM558.124 185.596L529.16 371.346L531.136 371.654L560.1 185.904L558.124 185.596ZM294.809 372.5H530.148V370.5H294.809V372.5ZM559.112 184.75H323.772V186.75H559.112V184.75Z" fill="black" fill-opacity="0.5" mask="url(#path-3-inside-2_1438_3088)"/>
<mask id="path-5-inside-3_1438_3088" fill="white">
<path d="M294.53 371.5L265.527 557.25H501.189L530.192 371.5H294.53Z"/>
</mask>
<path d="M294.53 371.5L265.527 557.25H501.189L530.192 371.5H294.53Z" fill="#F0B33E"/>
<path d="M294.53 371.5V370.5H293.674L293.542 371.346L294.53 371.5ZM265.527 557.25L264.539 557.096L264.359 558.25H265.527V557.25ZM501.189 557.25V558.25H502.045L502.177 557.404L501.189 557.25ZM530.192 371.5L531.18 371.654L531.36 370.5H530.192V371.5ZM293.542 371.346L264.539 557.096L266.515 557.404L295.518 371.654L293.542 371.346ZM265.527 558.25H501.189V556.25H265.527V558.25ZM502.177 557.404L531.18 371.654L529.204 371.346L500.201 557.096L502.177 557.404ZM530.192 370.5H294.53V372.5H530.192V370.5Z" fill="black" fill-opacity="0.5" mask="url(#path-5-inside-3_1438_3088)"/>
<mask id="path-7-inside-4_1438_3088" fill="white">
<path d="M265.601 557.25L245.61 685.286C240.875 715.609 264.322 743 295.011 743H429.461C454.097 743 475.062 725.055 478.863 700.714L501.263 557.25H265.601Z"/>
</mask>
<path d="M265.601 557.25L245.61 685.286C240.875 715.609 264.322 743 295.011 743H429.461C454.097 743 475.062 725.055 478.863 700.714L501.263 557.25H265.601Z" fill="#343539"/>
<path d="M245.61 685.286L246.598 685.441L245.61 685.286ZM265.601 557.25V556.25H264.745L264.613 557.096L265.601 557.25ZM501.263 557.25L502.251 557.404L502.431 556.25H501.263V557.25ZM478.863 700.714L479.851 700.868L478.863 700.714ZM246.598 685.441L266.589 557.404L264.613 557.096L244.622 685.132L246.598 685.441ZM500.275 557.096L477.874 700.559L479.851 700.868L502.251 557.404L500.275 557.096ZM295.011 744H429.461V742H295.011V744ZM501.263 556.25H265.601V558.25H501.263V556.25ZM477.874 700.559C474.15 724.414 453.604 742 429.461 742V744C454.59 744 475.974 725.696 479.851 700.868L477.874 700.559ZM244.622 685.132C239.792 716.061 263.708 744 295.011 744V742C264.935 742 241.958 715.156 246.598 685.441L244.622 685.132Z" fill="black" fill-opacity="0.5" mask="url(#path-7-inside-4_1438_3088)"/>
<path d="M65.4293 622.756V607.636H68.8853V622.828C68.8853 624.028 68.6933 625.144 68.3093 626.176C67.9493 627.208 67.4093 628.12 66.6893 628.912C65.9693 629.68 65.0693 630.28 63.9893 630.712C62.9333 631.144 61.7093 631.36 60.3173 631.36C59.1653 631.36 58.0733 631.204 57.0413 630.892C56.0333 630.556 55.1333 630.076 54.3413 629.452C53.5493 628.804 52.9133 628.012 52.4333 627.076C51.9773 626.14 51.7253 625.072 51.6773 623.872H54.8813C55.1213 625.312 55.7333 626.404 56.7173 627.148C57.7013 627.868 58.9013 628.228 60.3173 628.228C61.5173 628.228 62.4893 627.988 63.2333 627.508C63.9773 627.028 64.5293 626.38 64.8893 625.564C65.2493 624.748 65.4293 623.812 65.4293 622.756ZM87.8585 625.168H91.1345C90.9425 626.344 90.4865 627.4 89.7665 628.336C89.0465 629.272 88.0985 630.016 86.9225 630.568C85.7465 631.12 84.3665 631.396 82.7825 631.396C80.9105 631.396 79.2425 631 77.7785 630.208C76.3145 629.416 75.1625 628.324 74.3225 626.932C73.4825 625.54 73.0625 623.92 73.0625 622.072C73.0625 620.2 73.4705 618.568 74.2865 617.176C75.1025 615.76 76.2305 614.656 77.6705 613.864C79.1105 613.072 80.7545 612.676 82.6025 612.676C84.5465 612.676 86.1785 613.06 87.4985 613.828C88.8185 614.596 89.7905 615.736 90.4145 617.248C91.0625 618.736 91.3265 620.596 91.2065 622.828H76.4825C76.6025 623.908 76.9265 624.868 77.4545 625.708C78.0065 626.548 78.7265 627.208 79.6145 627.688C80.5265 628.168 81.5705 628.408 82.7465 628.408C84.0665 628.408 85.1705 628.108 86.0585 627.508C86.9465 626.908 87.5465 626.128 87.8585 625.168ZM82.6385 615.628C81.0785 615.628 79.7825 616.048 78.7505 616.888C77.7185 617.704 77.0345 618.796 76.6985 620.164H87.7505C87.6545 618.7 87.1265 617.584 86.1665 616.816C85.2065 616.024 84.0305 615.628 82.6385 615.628ZM93.2697 613.036H104.898V616.024H93.2697V613.036ZM97.3737 608.284H100.794V631H97.3737V608.284ZM116.657 631V607.636H127.169C129.809 607.636 131.849 608.176 133.289 609.256C134.729 610.336 135.449 611.884 135.449 613.9C135.449 615.148 135.173 616.156 134.621 616.924C134.093 617.692 133.337 618.268 132.353 618.652C131.369 619.012 130.217 619.252 128.897 619.372L128.969 619.12C129.953 619.168 130.877 619.276 131.741 619.444C132.629 619.612 133.397 619.888 134.045 620.272C134.717 620.656 135.245 621.184 135.629 621.856C136.037 622.528 136.241 623.404 136.241 624.484C136.241 625.9 135.905 627.088 135.233 628.048C134.561 628.984 133.625 629.692 132.425 630.172C131.249 630.652 129.881 630.928 128.321 631H116.657ZM120.113 627.904H127.673C129.257 627.904 130.493 627.616 131.381 627.04C132.269 626.464 132.713 625.552 132.713 624.304C132.713 623.344 132.437 622.624 131.885 622.144C131.333 621.664 130.613 621.352 129.725 621.208C128.861 621.064 127.961 620.992 127.025 620.992H120.113V627.904ZM120.113 617.932H126.881C128.465 617.932 129.701 617.62 130.589 616.996C131.477 616.348 131.921 615.412 131.921 614.188C131.921 612.94 131.477 612.052 130.589 611.524C129.701 610.996 128.573 610.732 127.205 610.732H120.113V617.932ZM140.417 605.836H143.873V631H140.417V605.836ZM156.227 631.36C154.691 631.36 153.287 630.964 152.015 630.172C150.743 629.38 149.735 628.288 148.991 626.896C148.247 625.48 147.875 623.86 147.875 622.036C147.875 620.212 148.247 618.604 148.991 617.212C149.759 615.796 150.803 614.692 152.123 613.9C153.443 613.084 154.919 612.676 156.551 612.676C158.351 612.676 159.743 613.096 160.727 613.936C161.735 614.776 162.431 615.904 162.815 617.32C163.223 618.736 163.427 620.308 163.427 622.036C163.427 622.996 163.307 624.016 163.067 625.096C162.827 626.176 162.443 627.196 161.915 628.156C161.387 629.116 160.655 629.896 159.719 630.496C158.783 631.072 157.619 631.36 156.227 631.36ZM157.199 628.372C158.471 628.372 159.539 628.096 160.403 627.544C161.291 626.968 161.951 626.2 162.383 625.24C162.815 624.28 163.031 623.212 163.031 622.036C163.031 620.764 162.803 619.648 162.347 618.688C161.915 617.728 161.255 616.984 160.367 616.456C159.503 615.928 158.447 615.664 157.199 615.664C155.327 615.664 153.875 616.264 152.843 617.464C151.835 618.664 151.331 620.188 151.331 622.036C151.331 623.284 151.583 624.388 152.087 625.348C152.591 626.284 153.275 627.028 154.139 627.58C155.027 628.108 156.047 628.372 157.199 628.372ZM163.031 613.036H166.487V631H163.319C163.319 631 163.295 630.784 163.247 630.352C163.199 629.896 163.151 629.356 163.103 628.732C163.055 628.108 163.031 627.556 163.031 627.076V613.036ZM188.599 624.16C188.455 625.648 187.975 626.944 187.159 628.048C186.367 629.128 185.323 629.956 184.027 630.532C182.731 631.108 181.291 631.396 179.707 631.396C177.955 631.396 176.347 631.036 174.883 630.316C173.419 629.572 172.243 628.504 171.355 627.112C170.491 625.696 170.059 624.016 170.059 622.072C170.059 620.104 170.491 618.424 171.355 617.032C172.243 615.616 173.419 614.536 174.883 613.792C176.347 613.048 177.955 612.676 179.707 612.676C181.291 612.676 182.719 612.964 183.991 613.54C185.263 614.116 186.307 614.944 187.123 616.024C187.939 617.08 188.431 618.352 188.599 619.84H185.467C185.059 618.544 184.327 617.524 183.271 616.78C182.239 616.012 181.051 615.628 179.707 615.628C178.603 615.628 177.571 615.88 176.611 616.384C175.675 616.888 174.919 617.62 174.343 618.58C173.791 619.516 173.515 620.68 173.515 622.072C173.515 623.416 173.791 624.568 174.343 625.528C174.919 626.464 175.675 627.184 176.611 627.688C177.547 628.168 178.579 628.408 179.707 628.408C181.243 628.408 182.491 628.036 183.451 627.292C184.411 626.548 185.095 625.504 185.503 624.16H188.599ZM192.626 605.836H196.046V631H192.626V605.836ZM209.006 613.036L199.502 622.072L199.574 619.912L209.69 631H205.334L196.118 620.956L204.218 613.036H209.006Z" fill="#C6C6C6" fill-opacity="0.8"/>
<path d="M115.407 649.832H117.807V664.616H115.407V649.832ZM108.903 649.832H111.327V664.616H108.903V649.832ZM121.623 659.024V661.016H104.991V659.024H121.623ZM121.623 653.456V655.424H104.991V653.456H121.623ZM130.434 660.536L130.458 660.416C131.274 660.448 132.026 660.536 132.714 660.68C133.402 660.808 133.994 661.016 134.49 661.304C135.002 661.592 135.394 661.984 135.666 662.48C135.954 662.976 136.098 663.6 136.098 664.352C136.098 665.216 135.842 665.992 135.33 666.68C134.834 667.368 134.13 667.912 133.218 668.312C132.306 668.712 131.234 668.912 130.002 668.912C128.818 668.912 127.77 668.696 126.858 668.264C125.946 667.848 125.242 667.28 124.746 666.56C124.266 665.84 124.058 665.024 124.122 664.112H126.642C126.658 664.592 126.794 665.016 127.05 665.384C127.322 665.752 127.706 666.04 128.202 666.248C128.714 666.456 129.314 666.56 130.002 666.56C131.058 666.56 131.866 666.336 132.426 665.888C133.002 665.456 133.29 664.84 133.29 664.04C133.29 663.24 132.962 662.648 132.306 662.264C131.666 661.864 130.762 661.664 129.594 661.664H127.794V659.504H129.594C130.394 659.504 131.05 659.432 131.562 659.288C132.074 659.128 132.45 658.888 132.69 658.568C132.93 658.232 133.05 657.824 133.05 657.344C133.05 656.656 132.802 656.112 132.306 655.712C131.826 655.312 131.058 655.112 130.002 655.112C129.026 655.112 128.258 655.32 127.698 655.736C127.138 656.152 126.85 656.704 126.834 657.392H124.29C124.242 656.688 124.354 656.056 124.626 655.496C124.914 654.936 125.322 654.456 125.85 654.056C126.394 653.64 127.018 653.32 127.722 653.096C128.442 652.872 129.202 652.76 130.002 652.76C131.202 652.76 132.234 652.944 133.098 653.312C133.978 653.664 134.65 654.16 135.114 654.8C135.578 655.44 135.81 656.176 135.81 657.008C135.81 657.696 135.674 658.264 135.402 658.712C135.146 659.16 134.77 659.52 134.274 659.792C133.794 660.048 133.226 660.232 132.57 660.344C131.93 660.456 131.218 660.52 130.434 660.536ZM148.921 652.952V668.48H146.257V655.4L147.001 655.664L140.473 663.92L140.041 662.984H146.641V665.168H138.073V662.984L146.257 652.952H148.921ZM148.537 665.168V662.984H151.489V665.168H148.537ZM159.708 660.536L159.732 660.416C160.548 660.448 161.3 660.536 161.988 660.68C162.676 660.808 163.268 661.016 163.764 661.304C164.276 661.592 164.668 661.984 164.94 662.48C165.228 662.976 165.372 663.6 165.372 664.352C165.372 665.216 165.116 665.992 164.604 666.68C164.108 667.368 163.404 667.912 162.492 668.312C161.58 668.712 160.508 668.912 159.276 668.912C158.092 668.912 157.044 668.696 156.132 668.264C155.22 667.848 154.516 667.28 154.02 666.56C153.54 665.84 153.332 665.024 153.396 664.112H155.916C155.932 664.592 156.068 665.016 156.324 665.384C156.596 665.752 156.98 666.04 157.476 666.248C157.988 666.456 158.588 666.56 159.276 666.56C160.332 666.56 161.14 666.336 161.7 665.888C162.276 665.456 162.564 664.84 162.564 664.04C162.564 663.24 162.236 662.648 161.58 662.264C160.94 661.864 160.036 661.664 158.868 661.664H157.068V659.504H158.868C159.668 659.504 160.324 659.432 160.836 659.288C161.348 659.128 161.724 658.888 161.964 658.568C162.204 658.232 162.324 657.824 162.324 657.344C162.324 656.656 162.076 656.112 161.58 655.712C161.1 655.312 160.332 655.112 159.276 655.112C158.3 655.112 157.532 655.32 156.972 655.736C156.412 656.152 156.124 656.704 156.108 657.392H153.564C153.516 656.688 153.628 656.056 153.9 655.496C154.188 654.936 154.596 654.456 155.124 654.056C155.668 653.64 156.292 653.32 156.996 653.096C157.716 652.872 158.476 652.76 159.276 652.76C160.476 652.76 161.508 652.944 162.372 653.312C163.252 653.664 163.924 654.16 164.388 654.8C164.852 655.44 165.084 656.176 165.084 657.008C165.084 657.696 164.948 658.264 164.676 658.712C164.42 659.16 164.044 659.52 163.548 659.792C163.068 660.048 162.5 660.232 161.844 660.344C161.204 660.456 160.492 660.52 159.708 660.536ZM174.954 658.688C175.706 658.688 176.402 658.8 177.042 659.024C177.682 659.232 178.242 659.552 178.722 659.984C179.202 660.416 179.57 660.944 179.826 661.568C180.098 662.192 180.234 662.912 180.234 663.728C180.234 664.816 179.97 665.744 179.442 666.512C178.93 667.28 178.21 667.864 177.282 668.264C176.37 668.68 175.322 668.888 174.138 668.888C173.274 668.888 172.458 668.776 171.69 668.552C170.922 668.328 170.242 668.008 169.65 667.592C169.074 667.192 168.602 666.688 168.234 666.08C167.882 665.488 167.69 664.816 167.658 664.064H170.226C170.29 664.608 170.498 665.064 170.85 665.432C171.202 665.816 171.65 666.104 172.194 666.296C172.754 666.488 173.37 666.584 174.042 666.584C174.506 666.584 174.946 666.52 175.362 666.392C175.778 666.28 176.154 666.104 176.49 665.864C176.826 665.64 177.09 665.344 177.282 664.976C177.474 664.608 177.57 664.184 177.57 663.704C177.57 663.224 177.474 662.8 177.282 662.432C177.106 662.064 176.858 661.76 176.538 661.52C176.234 661.28 175.874 661.096 175.458 660.968C175.042 660.84 174.602 660.776 174.138 660.776C173.674 660.776 173.21 660.832 172.746 660.944C172.282 661.04 171.85 661.208 171.45 661.448C171.05 661.688 170.722 662.032 170.466 662.48L168.114 662.024L168.738 653H178.746V655.352H171.234L170.802 661.496L170.514 661.328C170.722 660.736 171.05 660.248 171.498 659.864C171.946 659.48 172.466 659.192 173.058 659C173.666 658.792 174.298 658.688 174.954 658.688ZM188.536 660.536L188.56 660.416C189.376 660.448 190.128 660.536 190.816 660.68C191.504 660.808 192.096 661.016 192.592 661.304C193.104 661.592 193.496 661.984 193.768 662.48C194.056 662.976 194.2 663.6 194.2 664.352C194.2 665.216 193.944 665.992 193.432 666.68C192.936 667.368 192.232 667.912 191.32 668.312C190.408 668.712 189.336 668.912 188.104 668.912C186.92 668.912 185.872 668.696 184.96 668.264C184.048 667.848 183.344 667.28 182.848 666.56C182.368 665.84 182.16 665.024 182.224 664.112H184.744C184.76 664.592 184.896 665.016 185.152 665.384C185.424 665.752 185.808 666.04 186.304 666.248C186.816 666.456 187.416 666.56 188.104 666.56C189.16 666.56 189.968 666.336 190.528 665.888C191.104 665.456 191.392 664.84 191.392 664.04C191.392 663.24 191.064 662.648 190.408 662.264C189.768 661.864 188.864 661.664 187.696 661.664H185.896V659.504H187.696C188.496 659.504 189.152 659.432 189.664 659.288C190.176 659.128 190.552 658.888 190.792 658.568C191.032 658.232 191.152 657.824 191.152 657.344C191.152 656.656 190.904 656.112 190.408 655.712C189.928 655.312 189.16 655.112 188.104 655.112C187.128 655.112 186.36 655.32 185.8 655.736C185.24 656.152 184.952 656.704 184.936 657.392H182.392C182.344 656.688 182.456 656.056 182.728 655.496C183.016 654.936 183.424 654.456 183.952 654.056C184.496 653.64 185.12 653.32 185.824 653.096C186.544 652.872 187.304 652.76 188.104 652.76C189.304 652.76 190.336 652.944 191.2 653.312C192.08 653.664 192.752 654.16 193.216 654.8C193.68 655.44 193.912 656.176 193.912 657.008C193.912 657.696 193.776 658.264 193.504 658.712C193.248 659.16 192.872 659.52 192.376 659.792C191.896 660.048 191.328 660.232 190.672 660.344C190.032 660.456 189.32 660.52 188.536 660.536ZM201.646 663.176C200.558 663.176 199.582 662.96 198.718 662.528C197.854 662.096 197.174 661.488 196.678 660.704C196.182 659.92 195.934 659 195.934 657.944C195.95 656.856 196.23 655.928 196.774 655.16C197.334 654.376 198.11 653.776 199.102 653.36C200.094 652.944 201.262 652.736 202.606 652.736C203.966 652.736 205.15 652.936 206.158 653.336C207.166 653.736 207.942 654.32 208.486 655.088C209.046 655.84 209.318 656.76 209.302 657.848C209.302 658.248 209.238 658.672 209.11 659.12C208.998 659.568 208.79 660.064 208.486 660.608C208.438 660.688 208.318 660.896 208.126 661.232C207.934 661.552 207.686 661.96 207.382 662.456C207.094 662.936 206.782 663.456 206.446 664.016C206.11 664.576 205.782 665.12 205.462 665.648C205.142 666.192 204.846 666.688 204.574 667.136C204.302 667.584 204.078 667.936 203.902 668.192C203.742 668.464 203.662 668.6 203.662 668.6H200.398L207.31 658.664L208.15 657.968C207.638 658.768 207.134 659.488 206.638 660.128C206.158 660.768 205.67 661.32 205.174 661.784C204.678 662.232 204.142 662.576 203.566 662.816C202.99 663.056 202.35 663.176 201.646 663.176ZM202.606 654.992C201.47 654.992 200.534 655.248 199.798 655.76C199.078 656.256 198.702 657 198.67 657.992C198.654 658.92 198.998 659.648 199.702 660.176C200.406 660.704 201.334 660.968 202.486 660.968C203.734 660.968 204.726 660.68 205.462 660.104C206.198 659.528 206.574 658.808 206.59 657.944C206.606 657.304 206.438 656.768 206.086 656.336C205.734 655.904 205.254 655.576 204.646 655.352C204.054 655.112 203.374 654.992 202.606 654.992Z" fill="#C6C6C6" fill-opacity="0.8"/>
<path d="M94.9554 421.636H98.9874L89.5914 434.2L89.5194 434.344L82.0674 445H78.0354L87.6114 431.716L87.6834 431.644L94.9554 421.636ZM82.4274 421.636L89.4474 431.644L89.4834 431.716L99.0234 445H94.6314L87.4674 434.236L87.3594 434.164L78.3954 421.636H82.4274ZM109.938 445.36C108.402 445.36 106.998 444.964 105.726 444.172C104.454 443.38 103.446 442.288 102.702 440.896C101.958 439.48 101.586 437.86 101.586 436.036C101.586 434.212 101.958 432.604 102.702 431.212C103.47 429.796 104.514 428.692 105.834 427.9C107.154 427.084 108.63 426.676 110.262 426.676C112.062 426.676 113.454 427.096 114.438 427.936C115.446 428.776 116.142 429.904 116.526 431.32C116.934 432.736 117.138 434.308 117.138 436.036C117.138 436.996 117.018 438.016 116.778 439.096C116.538 440.176 116.154 441.196 115.626 442.156C115.098 443.116 114.366 443.896 113.43 444.496C112.494 445.072 111.33 445.36 109.938 445.36ZM110.91 442.372C112.182 442.372 113.25 442.096 114.114 441.544C115.002 440.968 115.662 440.2 116.094 439.24C116.526 438.28 116.742 437.212 116.742 436.036C116.742 434.764 116.514 433.648 116.058 432.688C115.626 431.728 114.966 430.984 114.078 430.456C113.214 429.928 112.158 429.664 110.91 429.664C109.038 429.664 107.586 430.264 106.554 431.464C105.546 432.664 105.042 434.188 105.042 436.036C105.042 437.284 105.294 438.388 105.798 439.348C106.302 440.284 106.986 441.028 107.85 441.58C108.738 442.108 109.758 442.372 110.91 442.372ZM116.742 427.036H120.198V445H117.03C117.03 445 117.006 444.784 116.958 444.352C116.91 443.896 116.862 443.356 116.814 442.732C116.766 442.108 116.742 441.556 116.742 441.076V427.036ZM124.706 427.036H128.162V445H124.706V427.036ZM135.002 426.676C136.01 426.676 136.922 426.82 137.738 427.108C138.554 427.396 139.25 427.828 139.826 428.404C140.402 428.956 140.846 429.652 141.158 430.492C141.494 431.308 141.662 432.244 141.662 433.3V445H138.242V434.056C138.242 432.64 137.894 431.584 137.198 430.888C136.526 430.168 135.494 429.808 134.102 429.808C133.022 429.808 132.038 430.06 131.15 430.564C130.262 431.068 129.53 431.74 128.954 432.58C128.402 433.396 128.066 434.32 127.946 435.352L127.91 433.372C128.03 432.412 128.282 431.524 128.666 430.708C129.074 429.892 129.578 429.184 130.178 428.584C130.802 427.96 131.522 427.492 132.338 427.18C133.154 426.844 134.042 426.676 135.002 426.676ZM144.926 427.036H156.554V430.024H144.926V427.036ZM149.03 422.284H152.45V445H149.03V422.284ZM173.759 445V434.164C173.759 433.204 173.603 432.412 173.291 431.788C172.979 431.164 172.511 430.696 171.887 430.384C171.263 430.048 170.471 429.88 169.511 429.88C168.455 429.88 167.483 430.132 166.595 430.636C165.731 431.116 165.023 431.776 164.471 432.616C163.919 433.432 163.583 434.356 163.463 435.388L163.427 433.336C163.547 432.4 163.799 431.524 164.183 430.708C164.591 429.892 165.095 429.184 165.695 428.584C166.319 427.984 167.039 427.516 167.855 427.18C168.671 426.844 169.559 426.676 170.519 426.676C171.527 426.676 172.439 426.82 173.255 427.108C174.071 427.372 174.767 427.792 175.343 428.368C175.943 428.92 176.399 429.604 176.711 430.42C177.023 431.212 177.179 432.124 177.179 433.156V445H173.759ZM160.259 445V419.836H163.679V445H160.259ZM190.405 445.396C188.653 445.396 187.045 445.024 185.581 444.28C184.117 443.536 182.953 442.468 182.089 441.076C181.225 439.684 180.793 438.016 180.793 436.072C180.793 434.104 181.225 432.424 182.089 431.032C182.953 429.616 184.117 428.536 185.581 427.792C187.045 427.048 188.653 426.676 190.405 426.676C192.157 426.676 193.753 427.048 195.193 427.792C196.633 428.536 197.785 429.616 198.649 431.032C199.513 432.424 199.945 434.104 199.945 436.072C199.945 438.016 199.513 439.684 198.649 441.076C197.785 442.468 196.633 443.536 195.193 444.28C193.753 445.024 192.157 445.396 190.405 445.396ZM190.405 442.408C191.485 442.408 192.481 442.168 193.393 441.688C194.329 441.184 195.073 440.464 195.625 439.528C196.201 438.568 196.489 437.416 196.489 436.072C196.489 434.704 196.201 433.54 195.625 432.58C195.073 431.62 194.329 430.888 193.393 430.384C192.481 429.88 191.485 429.628 190.405 429.628C189.325 429.628 188.317 429.88 187.381 430.384C186.445 430.864 185.689 431.584 185.113 432.544C184.537 433.504 184.249 434.68 184.249 436.072C184.249 437.416 184.525 438.568 185.077 439.528C185.653 440.464 186.409 441.184 187.345 441.688C188.281 442.168 189.301 442.408 190.405 442.408ZM220.517 445H217.097V427.036H220.517V445ZM217.277 436.54L217.313 437.62C217.289 437.932 217.205 438.4 217.061 439.024C216.941 439.624 216.725 440.284 216.413 441.004C216.125 441.724 215.717 442.42 215.189 443.092C214.685 443.764 214.037 444.316 213.245 444.748C212.453 445.18 211.493 445.396 210.365 445.396C209.597 445.396 208.805 445.288 207.989 445.072C207.197 444.856 206.465 444.496 205.793 443.992C205.121 443.488 204.581 442.804 204.173 441.94C203.765 441.052 203.561 439.948 203.561 438.628V427.036H207.017V437.908C207.017 439.012 207.185 439.876 207.521 440.5C207.881 441.124 208.385 441.568 209.033 441.832C209.681 442.096 210.413 442.228 211.229 442.228C212.477 442.228 213.521 441.928 214.361 441.328C215.225 440.704 215.897 439.96 216.377 439.096C216.857 438.208 217.157 437.356 217.277 436.54ZM224.249 439.168H227.417C227.537 440.128 227.969 440.92 228.713 441.544C229.457 442.144 230.501 442.444 231.845 442.444C232.709 442.444 233.381 442.348 233.861 442.156C234.341 441.94 234.677 441.652 234.869 441.292C235.085 440.932 235.193 440.536 235.193 440.104C235.193 439.552 235.049 439.132 234.761 438.844C234.473 438.532 234.065 438.28 233.537 438.088C233.009 437.872 232.385 437.668 231.665 437.476C230.873 437.26 230.081 437.008 229.289 436.72C228.497 436.432 227.765 436.084 227.093 435.676C226.445 435.268 225.917 434.764 225.509 434.164C225.125 433.54 224.933 432.784 224.933 431.896C224.933 431.152 225.089 430.456 225.401 429.808C225.737 429.16 226.205 428.608 226.805 428.152C227.429 427.672 228.149 427.312 228.965 427.072C229.781 426.808 230.681 426.676 231.665 426.676C233.033 426.676 234.185 426.928 235.121 427.432C236.057 427.912 236.765 428.596 237.245 429.484C237.749 430.372 238.013 431.392 238.037 432.544H235.013C234.845 431.536 234.497 430.804 233.969 430.348C233.441 429.868 232.649 429.628 231.593 429.628C230.561 429.628 229.769 429.832 229.217 430.24C228.665 430.648 228.389 431.2 228.389 431.896C228.389 432.424 228.581 432.856 228.965 433.192C229.349 433.504 229.865 433.78 230.513 434.02C231.161 434.26 231.893 434.512 232.709 434.776C233.477 435.04 234.209 435.316 234.905 435.604C235.625 435.868 236.261 436.192 236.813 436.576C237.389 436.936 237.833 437.416 238.145 438.016C238.481 438.592 238.649 439.312 238.649 440.176C238.649 441.232 238.385 442.156 237.857 442.948C237.329 443.716 236.561 444.316 235.553 444.748C234.569 445.18 233.369 445.396 231.953 445.396C230.657 445.396 229.553 445.24 228.641 444.928C227.753 444.616 226.997 444.208 226.373 443.704C225.773 443.2 225.305 442.672 224.969 442.12C224.657 441.544 224.441 440.992 224.321 440.464C224.225 439.936 224.201 439.504 224.249 439.168Z" fill="#C6C6C6" fill-opacity="0.8"/>
<path d="M137.884 463.832H140.284V478.616H137.884V463.832ZM131.38 463.832H133.804V478.616H131.38V463.832ZM144.1 473.024V475.016H127.468V473.024H144.1ZM144.1 467.456V469.424H127.468V467.456H144.1ZM161.215 463.448V465.8H150.319V470.312H159.247V472.568H150.319V479H147.583V463.448H161.215ZM170.162 479.264C168.834 479.264 167.642 479.024 166.586 478.544C165.53 478.064 164.698 477.36 164.09 476.432C163.482 475.504 163.178 474.376 163.178 473.048C163.178 471.736 163.482 470.616 164.09 469.688C164.698 468.744 165.53 468.024 166.586 467.528C167.642 467.032 168.834 466.784 170.162 466.784C171.49 466.784 172.674 467.032 173.714 467.528C174.754 468.024 175.57 468.744 176.162 469.688C176.77 470.616 177.074 471.736 177.074 473.048C177.074 474.376 176.77 475.504 176.162 476.432C175.57 477.36 174.754 478.064 173.714 478.544C172.674 479.024 171.49 479.264 170.162 479.264ZM170.162 477.08C170.914 477.08 171.61 476.928 172.25 476.624C172.89 476.304 173.402 475.848 173.786 475.256C174.17 474.648 174.362 473.912 174.362 473.048C174.362 472.2 174.17 471.472 173.786 470.864C173.402 470.24 172.89 469.768 172.25 469.448C171.626 469.128 170.93 468.968 170.162 468.968C169.394 468.968 168.682 469.128 168.026 469.448C167.386 469.768 166.866 470.232 166.466 470.84C166.082 471.448 165.89 472.184 165.89 473.048C165.89 473.912 166.082 474.648 166.466 475.256C166.866 475.848 167.386 476.304 168.026 476.624C168.682 476.928 169.394 477.08 170.162 477.08ZM180.185 479V463.448H188.105C190.009 463.448 191.465 463.808 192.473 464.528C193.497 465.232 194.009 466.256 194.009 467.6C194.009 468.464 193.809 469.152 193.409 469.664C193.025 470.16 192.473 470.536 191.753 470.792C191.033 471.032 190.185 471.184 189.209 471.248L189.305 471.104C190.009 471.12 190.673 471.184 191.297 471.296C191.937 471.392 192.497 471.568 192.977 471.824C193.473 472.08 193.857 472.44 194.129 472.904C194.417 473.352 194.561 473.936 194.561 474.656C194.561 475.616 194.321 476.408 193.841 477.032C193.361 477.656 192.697 478.136 191.849 478.472C191.001 478.792 190.025 478.968 188.921 479H180.185ZM182.921 476.672H188.513C189.553 476.672 190.361 476.496 190.937 476.144C191.513 475.776 191.801 475.208 191.801 474.44C191.801 473.832 191.625 473.392 191.273 473.12C190.921 472.832 190.465 472.648 189.905 472.568C189.361 472.488 188.777 472.448 188.153 472.448H182.921V476.672ZM182.921 470.168H187.937C188.977 470.168 189.777 469.992 190.337 469.64C190.913 469.272 191.201 468.696 191.201 467.912C191.201 467.144 190.913 466.6 190.337 466.28C189.777 465.944 189.041 465.776 188.129 465.776H182.921V470.168ZM202.763 474.536L202.787 474.416C203.603 474.448 204.355 474.536 205.043 474.68C205.731 474.808 206.323 475.016 206.819 475.304C207.331 475.592 207.723 475.984 207.995 476.48C208.283 476.976 208.427 477.6 208.427 478.352C208.427 479.216 208.171 479.992 207.659 480.68C207.163 481.368 206.459 481.912 205.547 482.312C204.635 482.712 203.563 482.912 202.331 482.912C201.147 482.912 200.099 482.696 199.187 482.264C198.275 481.848 197.571 481.28 197.075 480.56C196.595 479.84 196.387 479.024 196.451 478.112H198.971C198.987 478.592 199.123 479.016 199.379 479.384C199.651 479.752 200.035 480.04 200.531 480.248C201.043 480.456 201.643 480.56 202.331 480.56C203.387 480.56 204.195 480.336 204.755 479.888C205.331 479.456 205.619 478.84 205.619 478.04C205.619 477.24 205.291 476.648 204.635 476.264C203.995 475.864 203.091 475.664 201.923 475.664H200.123V473.504H201.923C202.723 473.504 203.379 473.432 203.891 473.288C204.403 473.128 204.779 472.888 205.019 472.568C205.259 472.232 205.379 471.824 205.379 471.344C205.379 470.656 205.131 470.112 204.635 469.712C204.155 469.312 203.387 469.112 202.331 469.112C201.355 469.112 200.587 469.32 200.027 469.736C199.467 470.152 199.179 470.704 199.163 471.392H196.619C196.571 470.688 196.683 470.056 196.955 469.496C197.243 468.936 197.651 468.456 198.179 468.056C198.723 467.64 199.347 467.32 200.051 467.096C200.771 466.872 201.531 466.76 202.331 466.76C203.531 466.76 204.563 466.944 205.427 467.312C206.307 467.664 206.979 468.16 207.443 468.8C207.907 469.44 208.139 470.176 208.139 471.008C208.139 471.696 208.003 472.264 207.731 472.712C207.475 473.16 207.099 473.52 206.603 473.792C206.123 474.048 205.555 474.232 204.899 474.344C204.259 474.456 203.547 474.52 202.763 474.536ZM216.497 474.536L216.521 474.416C217.337 474.448 218.089 474.536 218.777 474.68C219.465 474.808 220.057 475.016 220.553 475.304C221.065 475.592 221.457 475.984 221.729 476.48C222.017 476.976 222.161 477.6 222.161 478.352C222.161 479.216 221.905 479.992 221.393 480.68C220.897 481.368 220.193 481.912 219.281 482.312C218.369 482.712 217.297 482.912 216.065 482.912C214.881 482.912 213.833 482.696 212.921 482.264C212.009 481.848 211.305 481.28 210.809 480.56C210.329 479.84 210.121 479.024 210.185 478.112H212.705C212.721 478.592 212.857 479.016 213.113 479.384C213.385 479.752 213.769 480.04 214.265 480.248C214.777 480.456 215.377 480.56 216.065 480.56C217.121 480.56 217.929 480.336 218.489 479.888C219.065 479.456 219.353 478.84 219.353 478.04C219.353 477.24 219.025 476.648 218.369 476.264C217.729 475.864 216.825 475.664 215.657 475.664H213.857V473.504H215.657C216.457 473.504 217.113 473.432 217.625 473.288C218.137 473.128 218.513 472.888 218.753 472.568C218.993 472.232 219.113 471.824 219.113 471.344C219.113 470.656 218.865 470.112 218.369 469.712C217.889 469.312 217.121 469.112 216.065 469.112C215.089 469.112 214.321 469.32 213.761 469.736C213.201 470.152 212.913 470.704 212.897 471.392H210.353C210.305 470.688 210.417 470.056 210.689 469.496C210.977 468.936 211.385 468.456 211.913 468.056C212.457 467.64 213.081 467.32 213.785 467.096C214.505 466.872 215.265 466.76 216.065 466.76C217.265 466.76 218.297 466.944 219.161 467.312C220.041 467.664 220.713 468.16 221.177 468.8C221.641 469.44 221.873 470.176 221.873 471.008C221.873 471.696 221.737 472.264 221.465 472.712C221.209 473.16 220.833 473.52 220.337 473.792C219.857 474.048 219.289 474.232 218.633 474.344C217.993 474.456 217.281 474.52 216.497 474.536ZM227.639 472.376V476.648H238.559V479H224.903V463.448H238.535V465.8H227.639V470.12H236.567V472.376H227.639Z" fill="#C6C6C6" fill-opacity="0.8"/>
<path d="M98.8186 230.204V227.108H111.347V230.204H98.8186ZM93.7426 236L103.283 212.636H106.955L116.567 236H112.823L104.471 214.904H105.767L97.4506 236H93.7426ZM119.514 218.036H122.97V236H119.514V218.036ZM129.81 217.676C130.818 217.676 131.73 217.82 132.546 218.108C133.362 218.396 134.058 218.828 134.634 219.404C135.21 219.956 135.654 220.652 135.966 221.492C136.302 222.308 136.47 223.244 136.47 224.3V236H133.05V225.056C133.05 223.64 132.702 222.584 132.006 221.888C131.334 221.168 130.302 220.808 128.91 220.808C127.83 220.808 126.846 221.06 125.958 221.564C125.07 222.068 124.338 222.74 123.762 223.58C123.21 224.396 122.874 225.32 122.754 226.352L122.718 224.372C122.838 223.412 123.09 222.524 123.474 221.708C123.882 220.892 124.386 220.184 124.986 219.584C125.61 218.96 126.33 218.492 127.146 218.18C127.962 217.844 128.85 217.676 129.81 217.676ZM139.735 218.036H151.363V221.024H139.735V218.036ZM143.839 213.284H147.259V236H143.839V213.284ZM158.775 210.62V214.328H154.491V210.62H158.775ZM154.923 218.036H158.343V236H154.923V218.036ZM163.825 224.804H174.769V227.72H163.825V224.804ZM198.957 212.636V215.732H183.945V223.004H196.221V226.028H183.945V236H180.489V212.636H198.957ZM202.562 210.836H206.018V236H202.562V210.836ZM218.372 236.36C216.836 236.36 215.432 235.964 214.16 235.172C212.888 234.38 211.88 233.288 211.136 231.896C210.392 230.48 210.02 228.86 210.02 227.036C210.02 225.212 210.392 223.604 211.136 222.212C211.904 220.796 212.948 219.692 214.268 218.9C215.588 218.084 217.064 217.676 218.696 217.676C220.496 217.676 221.888 218.096 222.872 218.936C223.88 219.776 224.576 220.904 224.96 222.32C225.368 223.736 225.572 225.308 225.572 227.036C225.572 227.996 225.452 229.016 225.212 230.096C224.972 231.176 224.588 232.196 224.06 233.156C223.532 234.116 222.8 234.896 221.864 235.496C220.928 236.072 219.764 236.36 218.372 236.36ZM219.344 233.372C220.616 233.372 221.684 233.096 222.548 232.544C223.436 231.968 224.096 231.2 224.528 230.24C224.96 229.28 225.176 228.212 225.176 227.036C225.176 225.764 224.948 224.648 224.492 223.688C224.06 222.728 223.4 221.984 222.512 221.456C221.648 220.928 220.592 220.664 219.344 220.664C217.472 220.664 216.02 221.264 214.988 222.464C213.98 223.664 213.476 225.188 213.476 227.036C213.476 228.284 213.728 229.388 214.232 230.348C214.736 231.284 215.42 232.028 216.284 232.58C217.172 233.108 218.192 233.372 219.344 233.372ZM225.176 218.036H228.632V236H225.464C225.464 236 225.44 235.784 225.392 235.352C225.344 234.896 225.296 234.356 225.248 233.732C225.2 233.108 225.176 232.556 225.176 232.076V218.036ZM232.347 230.168H235.515C235.635 231.128 236.067 231.92 236.811 232.544C237.555 233.144 238.599 233.444 239.943 233.444C240.807 233.444 241.479 233.348 241.959 233.156C242.439 232.94 242.775 232.652 242.967 232.292C243.183 231.932 243.291 231.536 243.291 231.104C243.291 230.552 243.147 230.132 242.859 229.844C242.571 229.532 242.163 229.28 241.635 229.088C241.107 228.872 240.483 228.668 239.763 228.476C238.971 228.26 238.179 228.008 237.387 227.72C236.595 227.432 235.863 227.084 235.191 226.676C234.543 226.268 234.015 225.764 233.607 225.164C233.223 224.54 233.031 223.784 233.031 222.896C233.031 222.152 233.187 221.456 233.499 220.808C233.835 220.16 234.303 219.608 234.903 219.152C235.527 218.672 236.247 218.312 237.063 218.072C237.879 217.808 238.779 217.676 239.763 217.676C241.131 217.676 242.283 217.928 243.219 218.432C244.155 218.912 244.863 219.596 245.343 220.484C245.847 221.372 246.111 222.392 246.135 223.544H243.111C242.943 222.536 242.595 221.804 242.067 221.348C241.539 220.868 240.747 220.628 239.691 220.628C238.659 220.628 237.867 220.832 237.315 221.24C236.763 221.648 236.487 222.2 236.487 222.896C236.487 223.424 236.679 223.856 237.063 224.192C237.447 224.504 237.963 224.78 238.611 225.02C239.259 225.26 239.991 225.512 240.807 225.776C241.575 226.04 242.307 226.316 243.003 226.604C243.723 226.868 244.359 227.192 244.911 227.576C245.487 227.936 245.931 228.416 246.243 229.016C246.579 229.592 246.747 230.312 246.747 231.176C246.747 232.232 246.483 233.156 245.955 233.948C245.427 234.716 244.659 235.316 243.651 235.748C242.667 236.18 241.467 236.396 240.051 236.396C238.755 236.396 237.651 236.24 236.739 235.928C235.851 235.616 235.095 235.208 234.471 234.704C233.871 234.2 233.403 233.672 233.067 233.12C232.755 232.544 232.539 231.992 232.419 231.464C232.323 230.936 232.299 230.504 232.347 230.168ZM264.298 236V225.164C264.298 224.204 264.142 223.412 263.83 222.788C263.518 222.164 263.05 221.696 262.426 221.384C261.802 221.048 261.01 220.88 260.05 220.88C258.994 220.88 258.022 221.132 257.134 221.636C256.27 222.116 255.562 222.776 255.01 223.616C254.458 224.432 254.122 225.356 254.002 226.388L253.966 224.336C254.086 223.4 254.338 222.524 254.722 221.708C255.13 220.892 255.634 220.184 256.234 219.584C256.858 218.984 257.578 218.516 258.394 218.18C259.21 217.844 260.098 217.676 261.058 217.676C262.066 217.676 262.978 217.82 263.794 218.108C264.61 218.372 265.306 218.792 265.882 219.368C266.482 219.92 266.938 220.604 267.25 221.42C267.562 222.212 267.718 223.124 267.718 224.156V236H264.298ZM250.798 236V210.836H254.218V236H250.798ZM175.021 279L166.165 255.636H169.945L177.505 276.048H176.425L183.661 255.636H187.513L194.749 276.048H193.705L201.265 255.636H204.937L196.189 279H192.265L185.101 258.228H186.109L178.909 279H175.021ZM221.548 279V268.164C221.548 267.204 221.392 266.412 221.08 265.788C220.768 265.164 220.3 264.696 219.676 264.384C219.052 264.048 218.26 263.88 217.3 263.88C216.244 263.88 215.272 264.132 214.384 264.636C213.52 265.116 212.812 265.776 212.26 266.616C211.708 267.432 211.372 268.356 211.252 269.388L211.216 267.336C211.336 266.4 211.588 265.524 211.972 264.708C212.38 263.892 212.884 263.184 213.484 262.584C214.108 261.984 214.828 261.516 215.644 261.18C216.46 260.844 217.348 260.676 218.308 260.676C219.316 260.676 220.228 260.82 221.044 261.108C221.86 261.372 222.556 261.792 223.132 262.368C223.732 262.92 224.188 263.604 224.5 264.42C224.812 265.212 224.968 266.124 224.968 267.156V279H221.548ZM208.048 279V253.836H211.468V279H208.048ZM233.658 253.62V257.328H229.374V253.62H233.658ZM229.806 261.036H233.226V279H229.806V261.036ZM236.836 261.036H248.464V264.024H236.836V261.036ZM240.94 256.284H244.36V279H240.94V256.284ZM265.28 273.168H268.556C268.364 274.344 267.908 275.4 267.188 276.336C266.468 277.272 265.52 278.016 264.344 278.568C263.168 279.12 261.788 279.396 260.204 279.396C258.332 279.396 256.664 279 255.2 278.208C253.736 277.416 252.584 276.324 251.744 274.932C250.904 273.54 250.484 271.92 250.484 270.072C250.484 268.2 250.892 266.568 251.708 265.176C252.524 263.76 253.652 262.656 255.092 261.864C256.532 261.072 258.176 260.676 260.024 260.676C261.968 260.676 263.6 261.06 264.92 261.828C266.24 262.596 267.212 263.736 267.836 265.248C268.484 266.736 268.748 268.596 268.628 270.828H253.904C254.024 271.908 254.348 272.868 254.876 273.708C255.428 274.548 256.148 275.208 257.036 275.688C257.948 276.168 258.992 276.408 260.168 276.408C261.488 276.408 262.592 276.108 263.48 275.508C264.368 274.908 264.968 274.128 265.28 273.168ZM260.06 263.628C258.5 263.628 257.204 264.048 256.172 264.888C255.14 265.704 254.456 266.796 254.12 268.164H265.172C265.076 266.7 264.548 265.584 263.588 264.816C262.628 264.024 261.452 263.628 260.06 263.628Z" fill="#C6C6C6" fill-opacity="0.8"/>
<path d="M187.22 301.832H189.62V316.616H187.22V301.832ZM180.716 301.832H183.14V316.616H180.716V301.832ZM193.436 311.024V313.016H176.804V311.024H193.436ZM193.436 305.456V307.424H176.804V305.456H193.436ZM210.551 301.448V303.8H199.655V308.312H208.583V310.568H199.655V317H196.919V301.448H210.551ZM211.866 307.4V305.048H217.722V317H215.034V307.4H211.866ZM235.535 301.448V303.8H224.639V308.312H233.567V310.568H224.639V317H221.903V301.448H235.535ZM236.85 307.4V305.048H242.706V317H240.018V307.4H236.85ZM260.52 301.448V303.8H249.624V308.312H258.552V310.568H249.624V317H246.888V301.448H260.52ZM261.834 307.4V305.048H267.69V317H265.002V307.4H261.834Z" fill="#C6C6C6" fill-opacity="0.8"/>
<path d="M111.312 50.636V53.732H96.3V61.004H108.576V64.028H96.3V74H92.844V50.636H111.312ZM114.917 48.836H118.373V74H114.917V48.836ZM131.987 74.396C130.235 74.396 128.627 74.024 127.163 73.28C125.699 72.536 124.535 71.468 123.671 70.076C122.807 68.684 122.375 67.016 122.375 65.072C122.375 63.104 122.807 61.424 123.671 60.032C124.535 58.616 125.699 57.536 127.163 56.792C128.627 56.048 130.235 55.676 131.987 55.676C133.739 55.676 135.335 56.048 136.775 56.792C138.215 57.536 139.367 58.616 140.231 60.032C141.095 61.424 141.527 63.104 141.527 65.072C141.527 67.016 141.095 68.684 140.231 70.076C139.367 71.468 138.215 72.536 136.775 73.28C135.335 74.024 133.739 74.396 131.987 74.396ZM131.987 71.408C133.067 71.408 134.063 71.168 134.975 70.688C135.911 70.184 136.655 69.464 137.207 68.528C137.783 67.568 138.071 66.416 138.071 65.072C138.071 63.704 137.783 62.54 137.207 61.58C136.655 60.62 135.911 59.888 134.975 59.384C134.063 58.88 133.067 58.628 131.987 58.628C130.907 58.628 129.899 58.88 128.963 59.384C128.027 59.864 127.271 60.584 126.695 61.544C126.119 62.504 125.831 63.68 125.831 65.072C125.831 66.416 126.107 67.568 126.659 68.528C127.235 69.464 127.991 70.184 128.927 70.688C129.863 71.168 130.883 71.408 131.987 71.408ZM145.143 56.036H148.599V74H145.143V56.036ZM154.683 59.096C153.435 59.096 152.367 59.384 151.479 59.96C150.615 60.536 149.919 61.244 149.391 62.084C148.887 62.924 148.551 63.728 148.383 64.496L148.347 62.444C148.371 62.204 148.431 61.832 148.527 61.328C148.647 60.8 148.851 60.212 149.139 59.564C149.427 58.916 149.811 58.304 150.291 57.728C150.771 57.128 151.371 56.636 152.091 56.252C152.811 55.868 153.675 55.676 154.683 55.676V59.096ZM165.215 74.36C163.679 74.36 162.275 73.964 161.003 73.172C159.731 72.38 158.723 71.288 157.979 69.896C157.235 68.48 156.863 66.86 156.863 65.036C156.863 63.212 157.235 61.604 157.979 60.212C158.747 58.796 159.791 57.692 161.111 56.9C162.431 56.084 163.907 55.676 165.539 55.676C167.339 55.676 168.731 56.096 169.715 56.936C170.723 57.776 171.419 58.904 171.803 60.32C172.211 61.736 172.415 63.308 172.415 65.036C172.415 65.996 172.295 67.016 172.055 68.096C171.815 69.176 171.431 70.196 170.903 71.156C170.375 72.116 169.643 72.896 168.707 73.496C167.771 74.072 166.607 74.36 165.215 74.36ZM166.187 71.372C167.459 71.372 168.527 71.096 169.391 70.544C170.279 69.968 170.939 69.2 171.371 68.24C171.803 67.28 172.019 66.212 172.019 65.036C172.019 63.764 171.791 62.648 171.335 61.688C170.903 60.728 170.243 59.984 169.355 59.456C168.491 58.928 167.435 58.664 166.187 58.664C164.315 58.664 162.863 59.264 161.831 60.464C160.823 61.664 160.319 63.188 160.319 65.036C160.319 66.284 160.571 67.388 161.075 68.348C161.579 69.284 162.263 70.028 163.127 70.58C164.015 71.108 165.035 71.372 166.187 71.372ZM172.019 56.036H175.475V74H172.307C172.307 74 172.283 73.784 172.235 73.352C172.187 72.896 172.139 72.356 172.091 71.732C172.043 71.108 172.019 70.556 172.019 70.076V56.036ZM180.343 48.836H183.799V74H180.343V48.836ZM203.955 74L195.099 50.636H198.879L206.439 71.048H205.359L212.595 50.636H216.447L223.683 71.048H222.639L230.199 50.636H233.871L225.123 74H221.199L214.035 53.228H215.043L207.843 74H203.955ZM250.481 74V63.164C250.481 62.204 250.325 61.412 250.013 60.788C249.701 60.164 249.233 59.696 248.609 59.384C247.985 59.048 247.193 58.88 246.233 58.88C245.177 58.88 244.205 59.132 243.317 59.636C242.453 60.116 241.745 60.776 241.193 61.616C240.641 62.432 240.305 63.356 240.185 64.388L240.149 62.336C240.269 61.4 240.521 60.524 240.905 59.708C241.313 58.892 241.817 58.184 242.417 57.584C243.041 56.984 243.761 56.516 244.577 56.18C245.393 55.844 246.281 55.676 247.241 55.676C248.249 55.676 249.161 55.82 249.977 56.108C250.793 56.372 251.489 56.792 252.065 57.368C252.665 57.92 253.121 58.604 253.433 59.42C253.745 60.212 253.901 61.124 253.901 62.156V74H250.481ZM236.981 74V48.836H240.401V74H236.981ZM262.592 48.62V52.328H258.308V48.62H262.592ZM258.74 56.036H262.16V74H258.74V56.036ZM265.77 56.036H277.398V59.024H265.77V56.036ZM269.874 51.284H273.294V74H269.874V51.284ZM294.214 68.168H297.49C297.298 69.344 296.842 70.4 296.122 71.336C295.402 72.272 294.454 73.016 293.278 73.568C292.102 74.12 290.722 74.396 289.138 74.396C287.266 74.396 285.598 74 284.134 73.208C282.67 72.416 281.518 71.324 280.678 69.932C279.838 68.54 279.418 66.92 279.418 65.072C279.418 63.2 279.826 61.568 280.642 60.176C281.458 58.76 282.586 57.656 284.026 56.864C285.466 56.072 287.11 55.676 288.958 55.676C290.902 55.676 292.534 56.06 293.854 56.828C295.174 57.596 296.146 58.736 296.77 60.248C297.418 61.736 297.682 63.596 297.562 65.828H282.838C282.958 66.908 283.282 67.868 283.81 68.708C284.362 69.548 285.082 70.208 285.97 70.688C286.882 71.168 287.926 71.408 289.102 71.408C290.422 71.408 291.526 71.108 292.414 70.508C293.302 69.908 293.902 69.128 294.214 68.168ZM288.994 58.628C287.434 58.628 286.138 59.048 285.106 59.888C284.074 60.704 283.39 61.796 283.054 63.164H294.106C294.01 61.7 293.482 60.584 292.522 59.816C291.562 59.024 290.386 58.628 288.994 58.628Z" fill="#C6C6C6" fill-opacity="0.8"/>
<path d="M196.595 92.832H198.995V107.616H196.595V92.832ZM190.091 92.832H192.515V107.616H190.091V92.832ZM202.811 102.024V104.016H186.179V102.024H202.811ZM202.811 96.456V98.424H186.179V96.456H202.811ZM219.926 92.448V94.8H209.03V99.312H217.958V101.568H209.03V108H206.294V92.448H219.926ZM236.145 92.448V94.8H225.249V99.312H234.177V101.568H225.249V108H222.513V92.448H236.145ZM252.363 92.448V94.8H241.467V99.312H250.395V101.568H241.467V108H238.731V92.448H252.363ZM254.95 108V92.448H262.87C264.774 92.448 266.23 92.808 267.238 93.528C268.262 94.232 268.774 95.256 268.774 96.6C268.774 97.464 268.574 98.152 268.174 98.664C267.79 99.16 267.238 99.536 266.518 99.792C265.798 100.032 264.95 100.184 263.974 100.248L264.07 100.104C264.774 100.12 265.438 100.184 266.062 100.296C266.702 100.392 267.262 100.568 267.742 100.824C268.238 101.08 268.622 101.44 268.894 101.904C269.182 102.352 269.326 102.936 269.326 103.656C269.326 104.616 269.086 105.408 268.606 106.032C268.126 106.656 267.462 107.136 266.614 107.472C265.766 107.792 264.79 107.968 263.686 108H254.95ZM257.686 105.672H263.278C264.318 105.672 265.126 105.496 265.702 105.144C266.278 104.776 266.566 104.208 266.566 103.44C266.566 102.832 266.39 102.392 266.038 102.12C265.686 101.832 265.23 101.648 264.67 101.568C264.126 101.488 263.542 101.448 262.918 101.448H257.686V105.672ZM257.686 99.168H262.702C263.742 99.168 264.542 98.992 265.102 98.64C265.678 98.272 265.966 97.696 265.966 96.912C265.966 96.144 265.678 95.6 265.102 95.28C264.542 94.944 263.806 94.776 262.894 94.776H257.686V99.168ZM285.832 92.448V94.8H274.936V99.312H283.864V101.568H274.936V108H272.2V92.448H285.832ZM294.563 104.376L290.939 106.392L290.795 105.816H299.051V108H287.699V105.816C288.995 105.112 290.155 104.52 291.179 104.04C292.203 103.544 293.067 103.096 293.771 102.696C294.491 102.296 295.035 101.888 295.403 101.472C295.787 101.056 295.979 100.592 295.979 100.08C295.979 99.664 295.875 99.304 295.667 99C295.459 98.696 295.131 98.464 294.683 98.304C294.251 98.128 293.691 98.04 293.003 98.04C292.107 98.04 291.371 98.248 290.795 98.664C290.219 99.064 289.915 99.608 289.883 100.296H287.363C287.299 99.416 287.491 98.64 287.939 97.968C288.403 97.296 289.067 96.768 289.931 96.384C290.811 95.984 291.819 95.784 292.955 95.784C293.835 95.784 294.627 95.88 295.331 96.072C296.035 96.264 296.635 96.544 297.131 96.912C297.643 97.264 298.035 97.688 298.307 98.184C298.579 98.664 298.715 99.2 298.715 99.792C298.715 100.272 298.627 100.712 298.451 101.112C298.291 101.496 298.035 101.872 297.683 102.24C297.347 102.592 296.915 102.944 296.387 103.296C295.875 103.632 295.267 103.992 294.563 104.376Z" fill="#C6C6C6" fill-opacity="0.8"/>
</svg>
