<svg width="580" height="743" viewBox="0 0 580 743" fill="none" xmlns="http://www.w3.org/2000/svg">
                                    <mask id="path-1-inside-1_1479_3504" fill="white">
                                    <path d="M346.139 42.2865C349.939 17.9453 370.904 0 395.54 0H529.99C560.68 0 584.126 27.3914 579.392 57.7135L559.4 185.75H323.738L346.139 42.2865Z"/>
                                    </mask>
                                    <path d="M346.139 42.2865C349.939 17.9453 370.904 0 395.54 0H529.99C560.68 0 584.126 27.3914 579.392 57.7135L559.4 185.75H323.738L346.139 42.2865Z" fill="#FFFBF2"/>
                                    <path d="M323.738 185.75L322.75 185.596L322.57 186.75H323.738V185.75ZM559.4 185.75V186.75H560.256L560.388 185.904L559.4 185.75ZM579.392 57.7135L580.38 57.8678L579.392 57.7135ZM346.139 42.2865L345.151 42.1322L346.139 42.2865ZM395.54 1H529.99V-1H395.54V1ZM324.726 185.904L347.127 42.4408L345.151 42.1322L322.75 185.596L324.726 185.904ZM578.404 57.5593L558.412 185.596L560.388 185.904L580.38 57.8678L578.404 57.5593ZM559.4 184.75H323.738V186.75H559.4V184.75ZM529.99 1C560.066 1 583.043 27.8436 578.404 57.5593L580.38 57.8678C585.209 26.9393 561.293 -1 529.99 -1V1ZM395.54 -1C370.411 -1 349.027 17.3042 345.151 42.1322L347.127 42.4408C350.851 18.5864 371.397 1 395.54 1V-1Z" fill="black" fill-opacity="0.5" mask="url(#path-1-inside-1_1479_3504)"/>
                                    <mask id="path-3-inside-2_1479_3504" fill="white">
                                    <path d="M323.772 185.75L294.809 371.5H530.148L559.112 185.75H323.772Z"/>
                                    </mask>
                                    <path d="M323.772 185.75L294.809 371.5H530.148L559.112 185.75H323.772Z" fill="#F1F1F1"/>
                                    <path d="M294.809 371.5L293.821 371.346L293.641 372.5H294.809V371.5ZM323.772 185.75V184.75H322.916L322.784 185.596L323.772 185.75ZM559.112 185.75L560.1 185.904L560.28 184.75H559.112V185.75ZM530.148 371.5V372.5H531.004L531.136 371.654L530.148 371.5ZM295.797 371.654L324.76 185.904L322.784 185.596L293.821 371.346L295.797 371.654ZM558.124 185.596L529.16 371.346L531.136 371.654L560.1 185.904L558.124 185.596ZM294.809 372.5H530.148V370.5H294.809V372.5ZM559.112 184.75H323.772V186.75H559.112V184.75Z" fill="black" fill-opacity="0.5" mask="url(#path-3-inside-2_1479_3504)"/>
                                    <mask id="path-5-inside-3_1479_3504" fill="white">
                                    <path d="M294.53 371.5L265.527 557.25H501.189L530.192 371.5H294.53Z"/>
                                    </mask>
                                    <path d="M294.53 371.5L265.527 557.25H501.189L530.192 371.5H294.53Z" fill="#F0B33E"/>
                                    <path d="M265.527 557.25L264.539 557.096L264.359 558.25H265.527V557.25ZM294.53 371.5V370.5H293.674L293.542 371.346L294.53 371.5ZM530.192 371.5L531.18 371.654L531.36 370.5H530.192V371.5ZM501.189 557.25V558.25H502.045L502.177 557.404L501.189 557.25ZM266.515 557.404L295.518 371.654L293.542 371.346L264.539 557.096L266.515 557.404ZM529.204 371.346L500.201 557.096L502.177 557.404L531.18 371.654L529.204 371.346ZM265.527 558.25H501.189V556.25H265.527V558.25ZM530.192 370.5H294.53V372.5H530.192V370.5Z" fill="black" fill-opacity="0.5" mask="url(#path-5-inside-3_1479_3504)"/>
                                    <mask id="path-7-inside-4_1479_3504" fill="white">
                                    <path d="M265.601 557.25L245.61 685.286C240.875 715.609 264.322 743 295.011 743H429.461C454.097 743 475.062 725.055 478.863 700.714L501.263 557.25H265.601Z"/>
                                    </mask>
                                    <path d="M265.601 557.25L245.61 685.286C240.875 715.609 264.322 743 295.011 743H429.461C454.097 743 475.062 725.055 478.863 700.714L501.263 557.25H265.601Z" fill="#343539"/>
                                    <path d="M245.61 685.286L246.598 685.441L245.61 685.286ZM265.601 557.25V556.25H264.745L264.613 557.096L265.601 557.25ZM501.263 557.25L502.251 557.404L502.431 556.25H501.263V557.25ZM478.863 700.714L479.851 700.868L478.863 700.714ZM246.598 685.441L266.589 557.404L264.613 557.096L244.622 685.132L246.598 685.441ZM500.275 557.096L477.874 700.559L479.851 700.868L502.251 557.404L500.275 557.096ZM295.011 744H429.461V742H295.011V744ZM501.263 556.25H265.601V558.25H501.263V556.25ZM477.874 700.559C474.15 724.414 453.604 742 429.461 742V744C454.59 744 475.974 725.696 479.851 700.868L477.874 700.559ZM244.622 685.132C239.792 716.061 263.708 744 295.011 744V742C264.935 742 241.958 715.156 246.598 685.441L244.622 685.132Z" fill="black" fill-opacity="0.5" mask="url(#path-7-inside-4_1479_3504)"/>
                                    <path d="M65.4293 622.756V607.636H68.8853V622.828C68.8853 624.028 68.6933 625.144 68.3093 626.176C67.9493 627.208 67.4093 628.12 66.6893 628.912C65.9693 629.68 65.0693 630.28 63.9893 630.712C62.9333 631.144 61.7093 631.36 60.3173 631.36C59.1653 631.36 58.0733 631.204 57.0413 630.892C56.0333 630.556 55.1333 630.076 54.3413 629.452C53.5493 628.804 52.9133 628.012 52.4333 627.076C51.9773 626.14 51.7253 625.072 51.6773 623.872H54.8813C55.1213 625.312 55.7333 626.404 56.7173 627.148C57.7013 627.868 58.9013 628.228 60.3173 628.228C61.5173 628.228 62.4893 627.988 63.2333 627.508C63.9773 627.028 64.5293 626.38 64.8893 625.564C65.2493 624.748 65.4293 623.812 65.4293 622.756ZM87.8585 625.168H91.1345C90.9425 626.344 90.4865 627.4 89.7665 628.336C89.0465 629.272 88.0985 630.016 86.9225 630.568C85.7465 631.12 84.3665 631.396 82.7825 631.396C80.9105 631.396 79.2425 631 77.7785 630.208C76.3145 629.416 75.1625 628.324 74.3225 626.932C73.4825 625.54 73.0625 623.92 73.0625 622.072C73.0625 620.2 73.4705 618.568 74.2865 617.176C75.1025 615.76 76.2305 614.656 77.6705 613.864C79.1105 613.072 80.7545 612.676 82.6025 612.676C84.5465 612.676 86.1785 613.06 87.4985 613.828C88.8185 614.596 89.7905 615.736 90.4145 617.248C91.0625 618.736 91.3265 620.596 91.2065 622.828H76.4825C76.6025 623.908 76.9265 624.868 77.4545 625.708C78.0065 626.548 78.7265 627.208 79.6145 627.688C80.5265 628.168 81.5705 628.408 82.7465 628.408C84.0665 628.408 85.1705 628.108 86.0585 627.508C86.9465 626.908 87.5465 626.128 87.8585 625.168ZM82.6385 615.628C81.0785 615.628 79.7825 616.048 78.7505 616.888C77.7185 617.704 77.0345 618.796 76.6985 620.164H87.7505C87.6545 618.7 87.1265 617.584 86.1665 616.816C85.2065 616.024 84.0305 615.628 82.6385 615.628ZM93.2697 613.036H104.898V616.024H93.2697V613.036ZM97.3737 608.284H100.794V631H97.3737V608.284ZM116.657 631V607.636H127.169C129.809 607.636 131.849 608.176 133.289 609.256C134.729 610.336 135.449 611.884 135.449 613.9C135.449 615.148 135.173 616.156 134.621 616.924C134.093 617.692 133.337 618.268 132.353 618.652C131.369 619.012 130.217 619.252 128.897 619.372L128.969 619.12C129.953 619.168 130.877 619.276 131.741 619.444C132.629 619.612 133.397 619.888 134.045 620.272C134.717 620.656 135.245 621.184 135.629 621.856C136.037 622.528 136.241 623.404 136.241 624.484C136.241 625.9 135.905 627.088 135.233 628.048C134.561 628.984 133.625 629.692 132.425 630.172C131.249 630.652 129.881 630.928 128.321 631H116.657ZM120.113 627.904H127.673C129.257 627.904 130.493 627.616 131.381 627.04C132.269 626.464 132.713 625.552 132.713 624.304C132.713 623.344 132.437 622.624 131.885 622.144C131.333 621.664 130.613 621.352 129.725 621.208C128.861 621.064 127.961 620.992 127.025 620.992H120.113V627.904ZM120.113 617.932H126.881C128.465 617.932 129.701 617.62 130.589 616.996C131.477 616.348 131.921 615.412 131.921 614.188C131.921 612.94 131.477 612.052 130.589 611.524C129.701 610.996 128.573 610.732 127.205 610.732H120.113V617.932ZM140.417 605.836H143.873V631H140.417V605.836ZM156.227 631.36C154.691 631.36 153.287 630.964 152.015 630.172C150.743 629.38 149.735 628.288 148.991 626.896C148.247 625.48 147.875 623.86 147.875 622.036C147.875 620.212 148.247 618.604 148.991 617.212C149.759 615.796 150.803 614.692 152.123 613.9C153.443 613.084 154.919 612.676 156.551 612.676C158.351 612.676 159.743 613.096 160.727 613.936C161.735 614.776 162.431 615.904 162.815 617.32C163.223 618.736 163.427 620.308 163.427 622.036C163.427 622.996 163.307 624.016 163.067 625.096C162.827 626.176 162.443 627.196 161.915 628.156C161.387 629.116 160.655 629.896 159.719 630.496C158.783 631.072 157.619 631.36 156.227 631.36ZM157.199 628.372C158.471 628.372 159.539 628.096 160.403 627.544C161.291 626.968 161.951 626.2 162.383 625.24C162.815 624.28 163.031 623.212 163.031 622.036C163.031 620.764 162.803 619.648 162.347 618.688C161.915 617.728 161.255 616.984 160.367 616.456C159.503 615.928 158.447 615.664 157.199 615.664C155.327 615.664 153.875 616.264 152.843 617.464C151.835 618.664 151.331 620.188 151.331 622.036C151.331 623.284 151.583 624.388 152.087 625.348C152.591 626.284 153.275 627.028 154.139 627.58C155.027 628.108 156.047 628.372 157.199 628.372ZM163.031 613.036H166.487V631H163.319C163.319 631 163.295 630.784 163.247 630.352C163.199 629.896 163.151 629.356 163.103 628.732C163.055 628.108 163.031 627.556 163.031 627.076V613.036ZM188.599 624.16C188.455 625.648 187.975 626.944 187.159 628.048C186.367 629.128 185.323 629.956 184.027 630.532C182.731 631.108 181.291 631.396 179.707 631.396C177.955 631.396 176.347 631.036 174.883 630.316C173.419 629.572 172.243 628.504 171.355 627.112C170.491 625.696 170.059 624.016 170.059 622.072C170.059 620.104 170.491 618.424 171.355 617.032C172.243 615.616 173.419 614.536 174.883 613.792C176.347 613.048 177.955 612.676 179.707 612.676C181.291 612.676 182.719 612.964 183.991 613.54C185.263 614.116 186.307 614.944 187.123 616.024C187.939 617.08 188.431 618.352 188.599 619.84H185.467C185.059 618.544 184.327 617.524 183.271 616.78C182.239 616.012 181.051 615.628 179.707 615.628C178.603 615.628 177.571 615.88 176.611 616.384C175.675 616.888 174.919 617.62 174.343 618.58C173.791 619.516 173.515 620.68 173.515 622.072C173.515 623.416 173.791 624.568 174.343 625.528C174.919 626.464 175.675 627.184 176.611 627.688C177.547 628.168 178.579 628.408 179.707 628.408C181.243 628.408 182.491 628.036 183.451 627.292C184.411 626.548 185.095 625.504 185.503 624.16H188.599ZM192.626 605.836H196.046V631H192.626V605.836ZM209.006 613.036L199.502 622.072L199.574 619.912L209.69 631H205.334L196.118 620.956L204.218 613.036H209.006Z" fill="#C6C6C6" fill-opacity="0.8"/>
                                    <path d="M114.353 649.832H116.753V664.616H114.353V649.832ZM107.849 649.832H110.273V664.616H107.849V649.832ZM120.569 659.024V661.016H103.937V659.024H120.569ZM120.569 653.456V655.424H103.937V653.456H120.569ZM129.38 660.536L129.404 660.416C130.22 660.448 130.972 660.536 131.66 660.68C132.348 660.808 132.94 661.016 133.436 661.304C133.948 661.592 134.34 661.984 134.612 662.48C134.9 662.976 135.044 663.6 135.044 664.352C135.044 665.216 134.788 665.992 134.276 666.68C133.78 667.368 133.076 667.912 132.164 668.312C131.252 668.712 130.18 668.912 128.948 668.912C127.764 668.912 126.716 668.696 125.804 668.264C124.892 667.848 124.188 667.28 123.692 666.56C123.212 665.84 123.004 665.024 123.068 664.112H125.588C125.604 664.592 125.74 665.016 125.996 665.384C126.268 665.752 126.652 666.04 127.148 666.248C127.66 666.456 128.26 666.56 128.948 666.56C130.004 666.56 130.812 666.336 131.372 665.888C131.948 665.456 132.236 664.84 132.236 664.04C132.236 663.24 131.908 662.648 131.252 662.264C130.612 661.864 129.708 661.664 128.54 661.664H126.74V659.504H128.54C129.34 659.504 129.996 659.432 130.508 659.288C131.02 659.128 131.396 658.888 131.636 658.568C131.876 658.232 131.996 657.824 131.996 657.344C131.996 656.656 131.748 656.112 131.252 655.712C130.772 655.312 130.004 655.112 128.948 655.112C127.972 655.112 127.204 655.32 126.644 655.736C126.084 656.152 125.796 656.704 125.78 657.392H123.236C123.188 656.688 123.3 656.056 123.572 655.496C123.86 654.936 124.268 654.456 124.796 654.056C125.34 653.64 125.964 653.32 126.668 653.096C127.388 652.872 128.148 652.76 128.948 652.76C130.148 652.76 131.18 652.944 132.044 653.312C132.924 653.664 133.596 654.16 134.06 654.8C134.524 655.44 134.756 656.176 134.756 657.008C134.756 657.696 134.62 658.264 134.348 658.712C134.092 659.16 133.716 659.52 133.22 659.792C132.74 660.048 132.172 660.232 131.516 660.344C130.876 660.456 130.164 660.52 129.38 660.536ZM147.866 652.952V668.48H145.202V655.4L145.946 655.664L139.418 663.92L138.986 662.984H145.586V665.168H137.018V662.984L145.202 652.952H147.866ZM147.482 665.168V662.984H150.434V665.168H147.482ZM158.653 660.536L158.677 660.416C159.493 660.448 160.245 660.536 160.933 660.68C161.621 660.808 162.213 661.016 162.709 661.304C163.221 661.592 163.613 661.984 163.885 662.48C164.173 662.976 164.317 663.6 164.317 664.352C164.317 665.216 164.061 665.992 163.549 666.68C163.053 667.368 162.349 667.912 161.437 668.312C160.525 668.712 159.453 668.912 158.221 668.912C157.037 668.912 155.989 668.696 155.077 668.264C154.165 667.848 153.461 667.28 152.965 666.56C152.485 665.84 152.277 665.024 152.341 664.112H154.861C154.877 664.592 155.013 665.016 155.269 665.384C155.541 665.752 155.925 666.04 156.421 666.248C156.933 666.456 157.533 666.56 158.221 666.56C159.277 666.56 160.085 666.336 160.645 665.888C161.221 665.456 161.509 664.84 161.509 664.04C161.509 663.24 161.181 662.648 160.525 662.264C159.885 661.864 158.981 661.664 157.813 661.664H156.013V659.504H157.813C158.613 659.504 159.269 659.432 159.781 659.288C160.293 659.128 160.669 658.888 160.909 658.568C161.149 658.232 161.269 657.824 161.269 657.344C161.269 656.656 161.021 656.112 160.525 655.712C160.045 655.312 159.277 655.112 158.221 655.112C157.245 655.112 156.477 655.32 155.917 655.736C155.357 656.152 155.069 656.704 155.053 657.392H152.509C152.461 656.688 152.573 656.056 152.845 655.496C153.133 654.936 153.541 654.456 154.069 654.056C154.613 653.64 155.237 653.32 155.941 653.096C156.661 652.872 157.421 652.76 158.221 652.76C159.421 652.76 160.453 652.944 161.317 653.312C162.197 653.664 162.869 654.16 163.333 654.8C163.797 655.44 164.029 656.176 164.029 657.008C164.029 657.696 163.893 658.264 163.621 658.712C163.365 659.16 162.989 659.52 162.493 659.792C162.013 660.048 161.445 660.232 160.789 660.344C160.149 660.456 159.437 660.52 158.653 660.536ZM177.14 652.952V668.48H174.476V655.4L175.22 655.664L168.692 663.92L168.26 662.984H174.86V665.168H166.292V662.984L174.476 652.952H177.14ZM176.756 665.168V662.984H179.708V665.168H176.756ZM187.927 660.536L187.951 660.416C188.767 660.448 189.519 660.536 190.207 660.68C190.895 660.808 191.487 661.016 191.983 661.304C192.495 661.592 192.887 661.984 193.159 662.48C193.447 662.976 193.591 663.6 193.591 664.352C193.591 665.216 193.335 665.992 192.823 666.68C192.327 667.368 191.623 667.912 190.711 668.312C189.799 668.712 188.727 668.912 187.495 668.912C186.311 668.912 185.263 668.696 184.351 668.264C183.439 667.848 182.735 667.28 182.239 666.56C181.759 665.84 181.551 665.024 181.615 664.112H184.135C184.151 664.592 184.287 665.016 184.543 665.384C184.815 665.752 185.199 666.04 185.695 666.248C186.207 666.456 186.807 666.56 187.495 666.56C188.551 666.56 189.359 666.336 189.919 665.888C190.495 665.456 190.783 664.84 190.783 664.04C190.783 663.24 190.455 662.648 189.799 662.264C189.159 661.864 188.255 661.664 187.087 661.664H185.287V659.504H187.087C187.887 659.504 188.543 659.432 189.055 659.288C189.567 659.128 189.943 658.888 190.183 658.568C190.423 658.232 190.543 657.824 190.543 657.344C190.543 656.656 190.295 656.112 189.799 655.712C189.319 655.312 188.551 655.112 187.495 655.112C186.519 655.112 185.751 655.32 185.191 655.736C184.631 656.152 184.343 656.704 184.327 657.392H181.783C181.735 656.688 181.847 656.056 182.119 655.496C182.407 654.936 182.815 654.456 183.343 654.056C183.887 653.64 184.511 653.32 185.215 653.096C185.935 652.872 186.695 652.76 187.495 652.76C188.695 652.76 189.727 652.944 190.591 653.312C191.471 653.664 192.143 654.16 192.607 654.8C193.071 655.44 193.303 656.176 193.303 657.008C193.303 657.696 193.167 658.264 192.895 658.712C192.639 659.16 192.263 659.52 191.767 659.792C191.287 660.048 190.719 660.232 190.063 660.344C189.423 660.456 188.711 660.52 187.927 660.536ZM206.413 652.952V668.48H203.749V655.4L204.493 655.664L197.965 663.92L197.533 662.984H204.133V665.168H195.565V662.984L203.749 652.952H206.413ZM206.029 665.168V662.984H208.981V665.168H206.029Z" fill="#C6C6C6" fill-opacity="0.8"/>
                                    <path d="M91.07 436.936V433.912H99.458C100.85 433.912 101.966 433.492 102.806 432.652C103.67 431.812 104.102 430.708 104.102 429.34C104.102 427.924 103.67 426.808 102.806 425.992C101.966 425.176 100.85 424.768 99.458 424.768H91.646V445H88.19V421.636H99.314C100.466 421.636 101.534 421.804 102.518 422.14C103.526 422.452 104.402 422.932 105.146 423.58C105.914 424.228 106.502 425.032 106.91 425.992C107.342 426.952 107.558 428.068 107.558 429.34C107.558 430.588 107.342 431.692 106.91 432.652C106.502 433.612 105.914 434.416 105.146 435.064C104.402 435.688 103.526 436.156 102.518 436.468C101.534 436.78 100.466 436.936 99.314 436.936H91.07ZM111.847 419.836H115.303V445H111.847V419.836ZM127.657 445.36C126.121 445.36 124.717 444.964 123.445 444.172C122.173 443.38 121.165 442.288 120.421 440.896C119.677 439.48 119.305 437.86 119.305 436.036C119.305 434.212 119.677 432.604 120.421 431.212C121.189 429.796 122.233 428.692 123.553 427.9C124.873 427.084 126.349 426.676 127.981 426.676C129.781 426.676 131.173 427.096 132.157 427.936C133.165 428.776 133.861 429.904 134.245 431.32C134.653 432.736 134.857 434.308 134.857 436.036C134.857 436.996 134.737 438.016 134.497 439.096C134.257 440.176 133.873 441.196 133.345 442.156C132.817 443.116 132.085 443.896 131.149 444.496C130.213 445.072 129.049 445.36 127.657 445.36ZM128.629 442.372C129.901 442.372 130.969 442.096 131.833 441.544C132.721 440.968 133.381 440.2 133.813 439.24C134.245 438.28 134.461 437.212 134.461 436.036C134.461 434.764 134.233 433.648 133.777 432.688C133.345 431.728 132.685 430.984 131.797 430.456C130.933 429.928 129.877 429.664 128.629 429.664C126.757 429.664 125.305 430.264 124.273 431.464C123.265 432.664 122.761 434.188 122.761 436.036C122.761 437.284 123.013 438.388 123.517 439.348C124.021 440.284 124.705 441.028 125.569 441.58C126.457 442.108 127.477 442.372 128.629 442.372ZM134.461 427.036H137.917V445H134.749C134.749 445 134.725 444.784 134.677 444.352C134.629 443.896 134.581 443.356 134.533 442.732C134.485 442.108 134.461 441.556 134.461 441.076V427.036ZM141.164 427.036H152.792V430.024H141.164V427.036ZM145.268 422.284H148.688V445H145.268V422.284ZM160.205 419.62V423.328H155.921V419.62H160.205ZM156.353 427.036H159.773V445H156.353V427.036ZM164.643 427.036H168.099V445H164.643V427.036ZM174.939 426.676C175.947 426.676 176.859 426.82 177.675 427.108C178.491 427.396 179.187 427.828 179.763 428.404C180.339 428.956 180.783 429.652 181.095 430.492C181.431 431.308 181.599 432.244 181.599 433.3V445H178.179V434.056C178.179 432.64 177.831 431.584 177.135 430.888C176.463 430.168 175.431 429.808 174.039 429.808C172.959 429.808 171.975 430.06 171.087 430.564C170.199 431.068 169.467 431.74 168.891 432.58C168.339 433.396 168.003 434.32 167.883 435.352L167.847 433.372C167.967 432.412 168.219 431.524 168.603 430.708C169.011 429.892 169.515 429.184 170.115 428.584C170.739 427.96 171.459 427.492 172.275 427.18C173.091 426.844 173.979 426.676 174.939 426.676ZM203.079 445H199.659V427.036H203.079V445ZM199.839 436.54L199.875 437.62C199.851 437.932 199.767 438.4 199.623 439.024C199.503 439.624 199.287 440.284 198.975 441.004C198.687 441.724 198.279 442.42 197.751 443.092C197.247 443.764 196.599 444.316 195.807 444.748C195.015 445.18 194.055 445.396 192.927 445.396C192.159 445.396 191.367 445.288 190.551 445.072C189.759 444.856 189.027 444.496 188.355 443.992C187.683 443.488 187.143 442.804 186.735 441.94C186.327 441.052 186.123 439.948 186.123 438.628V427.036H189.579V437.908C189.579 439.012 189.747 439.876 190.083 440.5C190.443 441.124 190.947 441.568 191.595 441.832C192.243 442.096 192.975 442.228 193.791 442.228C195.039 442.228 196.083 441.928 196.923 441.328C197.787 440.704 198.459 439.96 198.939 439.096C199.419 438.208 199.719 437.356 199.839 436.54ZM207.604 427.036H211.06V445H207.604V427.036ZM217.9 426.676C218.908 426.676 219.82 426.82 220.636 427.108C221.452 427.396 222.148 427.828 222.724 428.404C223.3 428.956 223.744 429.652 224.056 430.492C224.392 431.308 224.56 432.244 224.56 433.3V445H221.14V434.056C221.14 432.64 220.792 431.584 220.096 430.888C219.424 430.168 218.392 429.808 217 429.808C215.92 429.808 214.936 430.06 214.048 430.564C213.16 431.068 212.428 431.74 211.852 432.58C211.3 433.396 210.964 434.32 210.844 435.352L210.808 433.372C210.928 432.412 211.18 431.524 211.564 430.708C211.972 429.892 212.476 429.184 213.076 428.584C213.7 427.96 214.42 427.492 215.236 427.18C216.052 426.844 216.94 426.676 217.9 426.676ZM231.076 426.676C232.084 426.676 232.996 426.82 233.812 427.108C234.628 427.396 235.324 427.828 235.9 428.404C236.476 428.956 236.92 429.652 237.232 430.492C237.568 431.308 237.736 432.244 237.736 433.3V445H234.316V434.056C234.316 432.64 233.968 431.584 233.272 430.888C232.6 430.168 231.568 429.808 230.176 429.808C229.096 429.808 228.112 430.06 227.224 430.564C226.336 431.068 225.604 431.74 225.028 432.58C224.476 433.396 224.14 434.32 224.02 435.352L223.984 433.336C224.104 432.376 224.356 431.5 224.74 430.708C225.148 429.892 225.664 429.184 226.288 428.584C226.912 427.96 227.632 427.492 228.448 427.18C229.264 426.844 230.14 426.676 231.076 426.676Z" fill="#C6C6C6" fill-opacity="0.8"/>
                                    <path d="M144.353 463.832H146.753V478.616H144.353V463.832ZM137.849 463.832H140.273V478.616H137.849V463.832ZM150.569 473.024V475.016H133.937V473.024H150.569ZM150.569 467.456V469.424H133.937V467.456H150.569ZM159.38 474.536L159.404 474.416C160.22 474.448 160.972 474.536 161.66 474.68C162.348 474.808 162.94 475.016 163.436 475.304C163.948 475.592 164.34 475.984 164.612 476.48C164.9 476.976 165.044 477.6 165.044 478.352C165.044 479.216 164.788 479.992 164.276 480.68C163.78 481.368 163.076 481.912 162.164 482.312C161.252 482.712 160.18 482.912 158.948 482.912C157.764 482.912 156.716 482.696 155.804 482.264C154.892 481.848 154.188 481.28 153.692 480.56C153.212 479.84 153.004 479.024 153.068 478.112H155.588C155.604 478.592 155.74 479.016 155.996 479.384C156.268 479.752 156.652 480.04 157.148 480.248C157.66 480.456 158.26 480.56 158.948 480.56C160.004 480.56 160.812 480.336 161.372 479.888C161.948 479.456 162.236 478.84 162.236 478.04C162.236 477.24 161.908 476.648 161.252 476.264C160.612 475.864 159.708 475.664 158.54 475.664H156.74V473.504H158.54C159.34 473.504 159.996 473.432 160.508 473.288C161.02 473.128 161.396 472.888 161.636 472.568C161.876 472.232 161.996 471.824 161.996 471.344C161.996 470.656 161.748 470.112 161.252 469.712C160.772 469.312 160.004 469.112 158.948 469.112C157.972 469.112 157.204 469.32 156.644 469.736C156.084 470.152 155.796 470.704 155.78 471.392H153.236C153.188 470.688 153.3 470.056 153.572 469.496C153.86 468.936 154.268 468.456 154.796 468.056C155.34 467.64 155.964 467.32 156.668 467.096C157.388 466.872 158.148 466.76 158.948 466.76C160.148 466.76 161.18 466.944 162.044 467.312C162.924 467.664 163.596 468.16 164.06 468.8C164.524 469.44 164.756 470.176 164.756 471.008C164.756 471.696 164.62 472.264 164.348 472.712C164.092 473.16 163.716 473.52 163.22 473.792C162.74 474.048 162.172 474.232 161.516 474.344C160.876 474.456 160.164 474.52 159.38 474.536ZM177.866 466.952V482.48H175.202V469.4L175.946 469.664L169.418 477.92L168.986 476.984H175.586V479.168H167.018V476.984L175.202 466.952H177.866ZM177.482 479.168V476.984H180.434V479.168H177.482ZM188.653 474.536L188.677 474.416C189.493 474.448 190.245 474.536 190.933 474.68C191.621 474.808 192.213 475.016 192.709 475.304C193.221 475.592 193.613 475.984 193.885 476.48C194.173 476.976 194.317 477.6 194.317 478.352C194.317 479.216 194.061 479.992 193.549 480.68C193.053 481.368 192.349 481.912 191.437 482.312C190.525 482.712 189.453 482.912 188.221 482.912C187.037 482.912 185.989 482.696 185.077 482.264C184.165 481.848 183.461 481.28 182.965 480.56C182.485 479.84 182.277 479.024 182.341 478.112H184.861C184.877 478.592 185.013 479.016 185.269 479.384C185.541 479.752 185.925 480.04 186.421 480.248C186.933 480.456 187.533 480.56 188.221 480.56C189.277 480.56 190.085 480.336 190.645 479.888C191.221 479.456 191.509 478.84 191.509 478.04C191.509 477.24 191.181 476.648 190.525 476.264C189.885 475.864 188.981 475.664 187.813 475.664H186.013V473.504H187.813C188.613 473.504 189.269 473.432 189.781 473.288C190.293 473.128 190.669 472.888 190.909 472.568C191.149 472.232 191.269 471.824 191.269 471.344C191.269 470.656 191.021 470.112 190.525 469.712C190.045 469.312 189.277 469.112 188.221 469.112C187.245 469.112 186.477 469.32 185.917 469.736C185.357 470.152 185.069 470.704 185.053 471.392H182.509C182.461 470.688 182.573 470.056 182.845 469.496C183.133 468.936 183.541 468.456 184.069 468.056C184.613 467.64 185.237 467.32 185.941 467.096C186.661 466.872 187.421 466.76 188.221 466.76C189.421 466.76 190.453 466.944 191.317 467.312C192.197 467.664 192.869 468.16 193.333 468.8C193.797 469.44 194.029 470.176 194.029 471.008C194.029 471.696 193.893 472.264 193.621 472.712C193.365 473.16 192.989 473.52 192.493 473.792C192.013 474.048 191.445 474.232 190.789 474.344C190.149 474.456 189.437 474.52 188.653 474.536ZM207.14 466.952V482.48H204.476V469.4L205.22 469.664L198.692 477.92L198.26 476.984H204.86V479.168H196.292V476.984L204.476 466.952H207.14ZM206.756 479.168V476.984H209.708V479.168H206.756ZM217.927 474.536L217.951 474.416C218.767 474.448 219.519 474.536 220.207 474.68C220.895 474.808 221.487 475.016 221.983 475.304C222.495 475.592 222.887 475.984 223.159 476.48C223.447 476.976 223.591 477.6 223.591 478.352C223.591 479.216 223.335 479.992 222.823 480.68C222.327 481.368 221.623 481.912 220.711 482.312C219.799 482.712 218.727 482.912 217.495 482.912C216.311 482.912 215.263 482.696 214.351 482.264C213.439 481.848 212.735 481.28 212.239 480.56C211.759 479.84 211.551 479.024 211.615 478.112H214.135C214.151 478.592 214.287 479.016 214.543 479.384C214.815 479.752 215.199 480.04 215.695 480.248C216.207 480.456 216.807 480.56 217.495 480.56C218.551 480.56 219.359 480.336 219.919 479.888C220.495 479.456 220.783 478.84 220.783 478.04C220.783 477.24 220.455 476.648 219.799 476.264C219.159 475.864 218.255 475.664 217.087 475.664H215.287V473.504H217.087C217.887 473.504 218.543 473.432 219.055 473.288C219.567 473.128 219.943 472.888 220.183 472.568C220.423 472.232 220.543 471.824 220.543 471.344C220.543 470.656 220.295 470.112 219.799 469.712C219.319 469.312 218.551 469.112 217.495 469.112C216.519 469.112 215.751 469.32 215.191 469.736C214.631 470.152 214.343 470.704 214.327 471.392H211.783C211.735 470.688 211.847 470.056 212.119 469.496C212.407 468.936 212.815 468.456 213.343 468.056C213.887 467.64 214.511 467.32 215.215 467.096C215.935 466.872 216.695 466.76 217.495 466.76C218.695 466.76 219.727 466.944 220.591 467.312C221.471 467.664 222.143 468.16 222.607 468.8C223.071 469.44 223.303 470.176 223.303 471.008C223.303 471.696 223.167 472.264 222.895 472.712C222.639 473.16 222.263 473.52 221.767 473.792C221.287 474.048 220.719 474.232 220.063 474.344C219.423 474.456 218.711 474.52 217.927 474.536ZM236.413 466.952V482.48H233.749V469.4L234.493 469.664L227.965 477.92L227.533 476.984H234.133V479.168H225.565V476.984L233.749 466.952H236.413ZM236.029 479.168V476.984H238.981V479.168H236.029Z" fill="#C6C6C6" fill-opacity="0.8"/>
                                    <path d="M98.8186 230.204V227.108H111.347V230.204H98.8186ZM93.7426 236L103.283 212.636H106.955L116.567 236H112.823L104.471 214.904H105.767L97.4506 236H93.7426ZM119.514 218.036H122.97V236H119.514V218.036ZM129.81 217.676C130.818 217.676 131.73 217.82 132.546 218.108C133.362 218.396 134.058 218.828 134.634 219.404C135.21 219.956 135.654 220.652 135.966 221.492C136.302 222.308 136.47 223.244 136.47 224.3V236H133.05V225.056C133.05 223.64 132.702 222.584 132.006 221.888C131.334 221.168 130.302 220.808 128.91 220.808C127.83 220.808 126.846 221.06 125.958 221.564C125.07 222.068 124.338 222.74 123.762 223.58C123.21 224.396 122.874 225.32 122.754 226.352L122.718 224.372C122.838 223.412 123.09 222.524 123.474 221.708C123.882 220.892 124.386 220.184 124.986 219.584C125.61 218.96 126.33 218.492 127.146 218.18C127.962 217.844 128.85 217.676 129.81 217.676ZM139.735 218.036H151.363V221.024H139.735V218.036ZM143.839 213.284H147.259V236H143.839V213.284ZM158.775 210.62V214.328H154.491V210.62H158.775ZM154.923 218.036H158.343V236H154.923V218.036ZM163.825 224.804H174.769V227.72H163.825V224.804ZM198.957 212.636V215.732H183.945V223.004H196.221V226.028H183.945V236H180.489V212.636H198.957ZM202.562 210.836H206.018V236H202.562V210.836ZM218.372 236.36C216.836 236.36 215.432 235.964 214.16 235.172C212.888 234.38 211.88 233.288 211.136 231.896C210.392 230.48 210.02 228.86 210.02 227.036C210.02 225.212 210.392 223.604 211.136 222.212C211.904 220.796 212.948 219.692 214.268 218.9C215.588 218.084 217.064 217.676 218.696 217.676C220.496 217.676 221.888 218.096 222.872 218.936C223.88 219.776 224.576 220.904 224.96 222.32C225.368 223.736 225.572 225.308 225.572 227.036C225.572 227.996 225.452 229.016 225.212 230.096C224.972 231.176 224.588 232.196 224.06 233.156C223.532 234.116 222.8 234.896 221.864 235.496C220.928 236.072 219.764 236.36 218.372 236.36ZM219.344 233.372C220.616 233.372 221.684 233.096 222.548 232.544C223.436 231.968 224.096 231.2 224.528 230.24C224.96 229.28 225.176 228.212 225.176 227.036C225.176 225.764 224.948 224.648 224.492 223.688C224.06 222.728 223.4 221.984 222.512 221.456C221.648 220.928 220.592 220.664 219.344 220.664C217.472 220.664 216.02 221.264 214.988 222.464C213.98 223.664 213.476 225.188 213.476 227.036C213.476 228.284 213.728 229.388 214.232 230.348C214.736 231.284 215.42 232.028 216.284 232.58C217.172 233.108 218.192 233.372 219.344 233.372ZM225.176 218.036H228.632V236H225.464C225.464 236 225.44 235.784 225.392 235.352C225.344 234.896 225.296 234.356 225.248 233.732C225.2 233.108 225.176 232.556 225.176 232.076V218.036ZM232.347 230.168H235.515C235.635 231.128 236.067 231.92 236.811 232.544C237.555 233.144 238.599 233.444 239.943 233.444C240.807 233.444 241.479 233.348 241.959 233.156C242.439 232.94 242.775 232.652 242.967 232.292C243.183 231.932 243.291 231.536 243.291 231.104C243.291 230.552 243.147 230.132 242.859 229.844C242.571 229.532 242.163 229.28 241.635 229.088C241.107 228.872 240.483 228.668 239.763 228.476C238.971 228.26 238.179 228.008 237.387 227.72C236.595 227.432 235.863 227.084 235.191 226.676C234.543 226.268 234.015 225.764 233.607 225.164C233.223 224.54 233.031 223.784 233.031 222.896C233.031 222.152 233.187 221.456 233.499 220.808C233.835 220.16 234.303 219.608 234.903 219.152C235.527 218.672 236.247 218.312 237.063 218.072C237.879 217.808 238.779 217.676 239.763 217.676C241.131 217.676 242.283 217.928 243.219 218.432C244.155 218.912 244.863 219.596 245.343 220.484C245.847 221.372 246.111 222.392 246.135 223.544H243.111C242.943 222.536 242.595 221.804 242.067 221.348C241.539 220.868 240.747 220.628 239.691 220.628C238.659 220.628 237.867 220.832 237.315 221.24C236.763 221.648 236.487 222.2 236.487 222.896C236.487 223.424 236.679 223.856 237.063 224.192C237.447 224.504 237.963 224.78 238.611 225.02C239.259 225.26 239.991 225.512 240.807 225.776C241.575 226.04 242.307 226.316 243.003 226.604C243.723 226.868 244.359 227.192 244.911 227.576C245.487 227.936 245.931 228.416 246.243 229.016C246.579 229.592 246.747 230.312 246.747 231.176C246.747 232.232 246.483 233.156 245.955 233.948C245.427 234.716 244.659 235.316 243.651 235.748C242.667 236.18 241.467 236.396 240.051 236.396C238.755 236.396 237.651 236.24 236.739 235.928C235.851 235.616 235.095 235.208 234.471 234.704C233.871 234.2 233.403 233.672 233.067 233.12C232.755 232.544 232.539 231.992 232.419 231.464C232.323 230.936 232.299 230.504 232.347 230.168ZM264.298 236V225.164C264.298 224.204 264.142 223.412 263.83 222.788C263.518 222.164 263.05 221.696 262.426 221.384C261.802 221.048 261.01 220.88 260.05 220.88C258.994 220.88 258.022 221.132 257.134 221.636C256.27 222.116 255.562 222.776 255.01 223.616C254.458 224.432 254.122 225.356 254.002 226.388L253.966 224.336C254.086 223.4 254.338 222.524 254.722 221.708C255.13 220.892 255.634 220.184 256.234 219.584C256.858 218.984 257.578 218.516 258.394 218.18C259.21 217.844 260.098 217.676 261.058 217.676C262.066 217.676 262.978 217.82 263.794 218.108C264.61 218.372 265.306 218.792 265.882 219.368C266.482 219.92 266.938 220.604 267.25 221.42C267.562 222.212 267.718 223.124 267.718 224.156V236H264.298ZM250.798 236V210.836H254.218V236H250.798ZM175.021 279L166.165 255.636H169.945L177.505 276.048H176.425L183.661 255.636H187.513L194.749 276.048H193.705L201.265 255.636H204.937L196.189 279H192.265L185.101 258.228H186.109L178.909 279H175.021ZM221.548 279V268.164C221.548 267.204 221.392 266.412 221.08 265.788C220.768 265.164 220.3 264.696 219.676 264.384C219.052 264.048 218.26 263.88 217.3 263.88C216.244 263.88 215.272 264.132 214.384 264.636C213.52 265.116 212.812 265.776 212.26 266.616C211.708 267.432 211.372 268.356 211.252 269.388L211.216 267.336C211.336 266.4 211.588 265.524 211.972 264.708C212.38 263.892 212.884 263.184 213.484 262.584C214.108 261.984 214.828 261.516 215.644 261.18C216.46 260.844 217.348 260.676 218.308 260.676C219.316 260.676 220.228 260.82 221.044 261.108C221.86 261.372 222.556 261.792 223.132 262.368C223.732 262.92 224.188 263.604 224.5 264.42C224.812 265.212 224.968 266.124 224.968 267.156V279H221.548ZM208.048 279V253.836H211.468V279H208.048ZM233.658 253.62V257.328H229.374V253.62H233.658ZM229.806 261.036H233.226V279H229.806V261.036ZM236.836 261.036H248.464V264.024H236.836V261.036ZM240.94 256.284H244.36V279H240.94V256.284ZM265.28 273.168H268.556C268.364 274.344 267.908 275.4 267.188 276.336C266.468 277.272 265.52 278.016 264.344 278.568C263.168 279.12 261.788 279.396 260.204 279.396C258.332 279.396 256.664 279 255.2 278.208C253.736 277.416 252.584 276.324 251.744 274.932C250.904 273.54 250.484 271.92 250.484 270.072C250.484 268.2 250.892 266.568 251.708 265.176C252.524 263.76 253.652 262.656 255.092 261.864C256.532 261.072 258.176 260.676 260.024 260.676C261.968 260.676 263.6 261.06 264.92 261.828C266.24 262.596 267.212 263.736 267.836 265.248C268.484 266.736 268.748 268.596 268.628 270.828H253.904C254.024 271.908 254.348 272.868 254.876 273.708C255.428 274.548 256.148 275.208 257.036 275.688C257.948 276.168 258.992 276.408 260.168 276.408C261.488 276.408 262.592 276.108 263.48 275.508C264.368 274.908 264.968 274.128 265.28 273.168ZM260.06 263.628C258.5 263.628 257.204 264.048 256.172 264.888C255.14 265.704 254.456 266.796 254.12 268.164H265.172C265.076 266.7 264.548 265.584 263.588 264.816C262.628 264.024 261.452 263.628 260.06 263.628Z" fill="#C6C6C6" fill-opacity="0.8"/>
                                    <path d="M174.353 301.832H176.753V316.616H174.353V301.832ZM167.849 301.832H170.273V316.616H167.849V301.832ZM180.569 311.024V313.016H163.937V311.024H180.569ZM180.569 305.456V307.424H163.937V305.456H180.569ZM189.38 312.536L189.404 312.416C190.22 312.448 190.972 312.536 191.66 312.68C192.348 312.808 192.94 313.016 193.436 313.304C193.948 313.592 194.34 313.984 194.612 314.48C194.9 314.976 195.044 315.6 195.044 316.352C195.044 317.216 194.788 317.992 194.276 318.68C193.78 319.368 193.076 319.912 192.164 320.312C191.252 320.712 190.18 320.912 188.948 320.912C187.764 320.912 186.716 320.696 185.804 320.264C184.892 319.848 184.188 319.28 183.692 318.56C183.212 317.84 183.004 317.024 183.068 316.112H185.588C185.604 316.592 185.74 317.016 185.996 317.384C186.268 317.752 186.652 318.04 187.148 318.248C187.66 318.456 188.26 318.56 188.948 318.56C190.004 318.56 190.812 318.336 191.372 317.888C191.948 317.456 192.236 316.84 192.236 316.04C192.236 315.24 191.908 314.648 191.252 314.264C190.612 313.864 189.708 313.664 188.54 313.664H186.74V311.504H188.54C189.34 311.504 189.996 311.432 190.508 311.288C191.02 311.128 191.396 310.888 191.636 310.568C191.876 310.232 191.996 309.824 191.996 309.344C191.996 308.656 191.748 308.112 191.252 307.712C190.772 307.312 190.004 307.112 188.948 307.112C187.972 307.112 187.204 307.32 186.644 307.736C186.084 308.152 185.796 308.704 185.78 309.392H183.236C183.188 308.688 183.3 308.056 183.572 307.496C183.86 306.936 184.268 306.456 184.796 306.056C185.34 305.64 185.964 305.32 186.668 305.096C187.388 304.872 188.148 304.76 188.948 304.76C190.148 304.76 191.18 304.944 192.044 305.312C192.924 305.664 193.596 306.16 194.06 306.8C194.524 307.44 194.756 308.176 194.756 309.008C194.756 309.696 194.62 310.264 194.348 310.712C194.092 311.16 193.716 311.52 193.22 311.792C192.74 312.048 192.172 312.232 191.516 312.344C190.876 312.456 190.164 312.52 189.38 312.536ZM207.866 304.952V320.48H205.202V307.4L205.946 307.664L199.418 315.92L198.986 314.984H205.586V317.168H197.018V314.984L205.202 304.952H207.866ZM207.482 317.168V314.984H210.434V317.168H207.482ZM218.653 312.536L218.677 312.416C219.493 312.448 220.245 312.536 220.933 312.68C221.621 312.808 222.213 313.016 222.709 313.304C223.221 313.592 223.613 313.984 223.885 314.48C224.173 314.976 224.317 315.6 224.317 316.352C224.317 317.216 224.061 317.992 223.549 318.68C223.053 319.368 222.349 319.912 221.437 320.312C220.525 320.712 219.453 320.912 218.221 320.912C217.037 320.912 215.989 320.696 215.077 320.264C214.165 319.848 213.461 319.28 212.965 318.56C212.485 317.84 212.277 317.024 212.341 316.112H214.861C214.877 316.592 215.013 317.016 215.269 317.384C215.541 317.752 215.925 318.04 216.421 318.248C216.933 318.456 217.533 318.56 218.221 318.56C219.277 318.56 220.085 318.336 220.645 317.888C221.221 317.456 221.509 316.84 221.509 316.04C221.509 315.24 221.181 314.648 220.525 314.264C219.885 313.864 218.981 313.664 217.813 313.664H216.013V311.504H217.813C218.613 311.504 219.269 311.432 219.781 311.288C220.293 311.128 220.669 310.888 220.909 310.568C221.149 310.232 221.269 309.824 221.269 309.344C221.269 308.656 221.021 308.112 220.525 307.712C220.045 307.312 219.277 307.112 218.221 307.112C217.245 307.112 216.477 307.32 215.917 307.736C215.357 308.152 215.069 308.704 215.053 309.392H212.509C212.461 308.688 212.573 308.056 212.845 307.496C213.133 306.936 213.541 306.456 214.069 306.056C214.613 305.64 215.237 305.32 215.941 305.096C216.661 304.872 217.421 304.76 218.221 304.76C219.421 304.76 220.453 304.944 221.317 305.312C222.197 305.664 222.869 306.16 223.333 306.8C223.797 307.44 224.029 308.176 224.029 309.008C224.029 309.696 223.893 310.264 223.621 310.712C223.365 311.16 222.989 311.52 222.493 311.792C222.013 312.048 221.445 312.232 220.789 312.344C220.149 312.456 219.437 312.52 218.653 312.536ZM237.14 304.952V320.48H234.476V307.4L235.22 307.664L228.692 315.92L228.26 314.984H234.86V317.168H226.292V314.984L234.476 304.952H237.14ZM236.756 317.168V314.984H239.708V317.168H236.756ZM247.927 312.536L247.951 312.416C248.767 312.448 249.519 312.536 250.207 312.68C250.895 312.808 251.487 313.016 251.983 313.304C252.495 313.592 252.887 313.984 253.159 314.48C253.447 314.976 253.591 315.6 253.591 316.352C253.591 317.216 253.335 317.992 252.823 318.68C252.327 319.368 251.623 319.912 250.711 320.312C249.799 320.712 248.727 320.912 247.495 320.912C246.311 320.912 245.263 320.696 244.351 320.264C243.439 319.848 242.735 319.28 242.239 318.56C241.759 317.84 241.551 317.024 241.615 316.112H244.135C244.151 316.592 244.287 317.016 244.543 317.384C244.815 317.752 245.199 318.04 245.695 318.248C246.207 318.456 246.807 318.56 247.495 318.56C248.551 318.56 249.359 318.336 249.919 317.888C250.495 317.456 250.783 316.84 250.783 316.04C250.783 315.24 250.455 314.648 249.799 314.264C249.159 313.864 248.255 313.664 247.087 313.664H245.287V311.504H247.087C247.887 311.504 248.543 311.432 249.055 311.288C249.567 311.128 249.943 310.888 250.183 310.568C250.423 310.232 250.543 309.824 250.543 309.344C250.543 308.656 250.295 308.112 249.799 307.712C249.319 307.312 248.551 307.112 247.495 307.112C246.519 307.112 245.751 307.32 245.191 307.736C244.631 308.152 244.343 308.704 244.327 309.392H241.783C241.735 308.688 241.847 308.056 242.119 307.496C242.407 306.936 242.815 306.456 243.343 306.056C243.887 305.64 244.511 305.32 245.215 305.096C245.935 304.872 246.695 304.76 247.495 304.76C248.695 304.76 249.727 304.944 250.591 305.312C251.471 305.664 252.143 306.16 252.607 306.8C253.071 307.44 253.303 308.176 253.303 309.008C253.303 309.696 253.167 310.264 252.895 310.712C252.639 311.16 252.263 311.52 251.767 311.792C251.287 312.048 250.719 312.232 250.063 312.344C249.423 312.456 248.711 312.52 247.927 312.536ZM266.413 304.952V320.48H263.749V307.4L264.493 307.664L257.965 315.92L257.533 314.984H264.133V317.168H255.565V314.984L263.749 304.952H266.413ZM266.029 317.168V314.984H268.981V317.168H266.029Z" fill="#C6C6C6" fill-opacity="0.8"/>
                                    <path d="M111.312 50.636V53.732H96.3V61.004H108.576V64.028H96.3V74H92.844V50.636H111.312ZM114.917 48.836H118.373V74H114.917V48.836ZM131.987 74.396C130.235 74.396 128.627 74.024 127.163 73.28C125.699 72.536 124.535 71.468 123.671 70.076C122.807 68.684 122.375 67.016 122.375 65.072C122.375 63.104 122.807 61.424 123.671 60.032C124.535 58.616 125.699 57.536 127.163 56.792C128.627 56.048 130.235 55.676 131.987 55.676C133.739 55.676 135.335 56.048 136.775 56.792C138.215 57.536 139.367 58.616 140.231 60.032C141.095 61.424 141.527 63.104 141.527 65.072C141.527 67.016 141.095 68.684 140.231 70.076C139.367 71.468 138.215 72.536 136.775 73.28C135.335 74.024 133.739 74.396 131.987 74.396ZM131.987 71.408C133.067 71.408 134.063 71.168 134.975 70.688C135.911 70.184 136.655 69.464 137.207 68.528C137.783 67.568 138.071 66.416 138.071 65.072C138.071 63.704 137.783 62.54 137.207 61.58C136.655 60.62 135.911 59.888 134.975 59.384C134.063 58.88 133.067 58.628 131.987 58.628C130.907 58.628 129.899 58.88 128.963 59.384C128.027 59.864 127.271 60.584 126.695 61.544C126.119 62.504 125.831 63.68 125.831 65.072C125.831 66.416 126.107 67.568 126.659 68.528C127.235 69.464 127.991 70.184 128.927 70.688C129.863 71.168 130.883 71.408 131.987 71.408ZM145.143 56.036H148.599V74H145.143V56.036ZM154.683 59.096C153.435 59.096 152.367 59.384 151.479 59.96C150.615 60.536 149.919 61.244 149.391 62.084C148.887 62.924 148.551 63.728 148.383 64.496L148.347 62.444C148.371 62.204 148.431 61.832 148.527 61.328C148.647 60.8 148.851 60.212 149.139 59.564C149.427 58.916 149.811 58.304 150.291 57.728C150.771 57.128 151.371 56.636 152.091 56.252C152.811 55.868 153.675 55.676 154.683 55.676V59.096ZM165.215 74.36C163.679 74.36 162.275 73.964 161.003 73.172C159.731 72.38 158.723 71.288 157.979 69.896C157.235 68.48 156.863 66.86 156.863 65.036C156.863 63.212 157.235 61.604 157.979 60.212C158.747 58.796 159.791 57.692 161.111 56.9C162.431 56.084 163.907 55.676 165.539 55.676C167.339 55.676 168.731 56.096 169.715 56.936C170.723 57.776 171.419 58.904 171.803 60.32C172.211 61.736 172.415 63.308 172.415 65.036C172.415 65.996 172.295 67.016 172.055 68.096C171.815 69.176 171.431 70.196 170.903 71.156C170.375 72.116 169.643 72.896 168.707 73.496C167.771 74.072 166.607 74.36 165.215 74.36ZM166.187 71.372C167.459 71.372 168.527 71.096 169.391 70.544C170.279 69.968 170.939 69.2 171.371 68.24C171.803 67.28 172.019 66.212 172.019 65.036C172.019 63.764 171.791 62.648 171.335 61.688C170.903 60.728 170.243 59.984 169.355 59.456C168.491 58.928 167.435 58.664 166.187 58.664C164.315 58.664 162.863 59.264 161.831 60.464C160.823 61.664 160.319 63.188 160.319 65.036C160.319 66.284 160.571 67.388 161.075 68.348C161.579 69.284 162.263 70.028 163.127 70.58C164.015 71.108 165.035 71.372 166.187 71.372ZM172.019 56.036H175.475V74H172.307C172.307 74 172.283 73.784 172.235 73.352C172.187 72.896 172.139 72.356 172.091 71.732C172.043 71.108 172.019 70.556 172.019 70.076V56.036ZM180.343 48.836H183.799V74H180.343V48.836ZM203.955 74L195.099 50.636H198.879L206.439 71.048H205.359L212.595 50.636H216.447L223.683 71.048H222.639L230.199 50.636H233.871L225.123 74H221.199L214.035 53.228H215.043L207.843 74H203.955ZM250.481 74V63.164C250.481 62.204 250.325 61.412 250.013 60.788C249.701 60.164 249.233 59.696 248.609 59.384C247.985 59.048 247.193 58.88 246.233 58.88C245.177 58.88 244.205 59.132 243.317 59.636C242.453 60.116 241.745 60.776 241.193 61.616C240.641 62.432 240.305 63.356 240.185 64.388L240.149 62.336C240.269 61.4 240.521 60.524 240.905 59.708C241.313 58.892 241.817 58.184 242.417 57.584C243.041 56.984 243.761 56.516 244.577 56.18C245.393 55.844 246.281 55.676 247.241 55.676C248.249 55.676 249.161 55.82 249.977 56.108C250.793 56.372 251.489 56.792 252.065 57.368C252.665 57.92 253.121 58.604 253.433 59.42C253.745 60.212 253.901 61.124 253.901 62.156V74H250.481ZM236.981 74V48.836H240.401V74H236.981ZM262.592 48.62V52.328H258.308V48.62H262.592ZM258.74 56.036H262.16V74H258.74V56.036ZM265.77 56.036H277.398V59.024H265.77V56.036ZM269.874 51.284H273.294V74H269.874V51.284ZM294.214 68.168H297.49C297.298 69.344 296.842 70.4 296.122 71.336C295.402 72.272 294.454 73.016 293.278 73.568C292.102 74.12 290.722 74.396 289.138 74.396C287.266 74.396 285.598 74 284.134 73.208C282.67 72.416 281.518 71.324 280.678 69.932C279.838 68.54 279.418 66.92 279.418 65.072C279.418 63.2 279.826 61.568 280.642 60.176C281.458 58.76 282.586 57.656 284.026 56.864C285.466 56.072 287.11 55.676 288.958 55.676C290.902 55.676 292.534 56.06 293.854 56.828C295.174 57.596 296.146 58.736 296.77 60.248C297.418 61.736 297.682 63.596 297.562 65.828H282.838C282.958 66.908 283.282 67.868 283.81 68.708C284.362 69.548 285.082 70.208 285.97 70.688C286.882 71.168 287.926 71.408 289.102 71.408C290.422 71.408 291.526 71.108 292.414 70.508C293.302 69.908 293.902 69.128 294.214 68.168ZM288.994 58.628C287.434 58.628 286.138 59.048 285.106 59.888C284.074 60.704 283.39 61.796 283.054 63.164H294.106C294.01 61.7 293.482 60.584 292.522 59.816C291.562 59.024 290.386 58.628 288.994 58.628Z" fill="#C6C6C6" fill-opacity="0.8"/>
                                    <path d="M204.353 92.832H206.753V107.616H204.353V92.832ZM197.849 92.832H200.273V107.616H197.849V92.832ZM210.569 102.024V104.016H193.937V102.024H210.569ZM210.569 96.456V98.424H193.937V96.456H210.569ZM219.38 103.536L219.404 103.416C220.22 103.448 220.972 103.536 221.66 103.68C222.348 103.808 222.94 104.016 223.436 104.304C223.948 104.592 224.34 104.984 224.612 105.48C224.9 105.976 225.044 106.6 225.044 107.352C225.044 108.216 224.788 108.992 224.276 109.68C223.78 110.368 223.076 110.912 222.164 111.312C221.252 111.712 220.18 111.912 218.948 111.912C217.764 111.912 216.716 111.696 215.804 111.264C214.892 110.848 214.188 110.28 213.692 109.56C213.212 108.84 213.004 108.024 213.068 107.112H215.588C215.604 107.592 215.74 108.016 215.996 108.384C216.268 108.752 216.652 109.04 217.148 109.248C217.66 109.456 218.26 109.56 218.948 109.56C220.004 109.56 220.812 109.336 221.372 108.888C221.948 108.456 222.236 107.84 222.236 107.04C222.236 106.24 221.908 105.648 221.252 105.264C220.612 104.864 219.708 104.664 218.54 104.664H216.74V102.504H218.54C219.34 102.504 219.996 102.432 220.508 102.288C221.02 102.128 221.396 101.888 221.636 101.568C221.876 101.232 221.996 100.824 221.996 100.344C221.996 99.656 221.748 99.112 221.252 98.712C220.772 98.312 220.004 98.112 218.948 98.112C217.972 98.112 217.204 98.32 216.644 98.736C216.084 99.152 215.796 99.704 215.78 100.392H213.236C213.188 99.688 213.3 99.056 213.572 98.496C213.86 97.936 214.268 97.456 214.796 97.056C215.34 96.64 215.964 96.32 216.668 96.096C217.388 95.872 218.148 95.76 218.948 95.76C220.148 95.76 221.18 95.944 222.044 96.312C222.924 96.664 223.596 97.16 224.06 97.8C224.524 98.44 224.756 99.176 224.756 100.008C224.756 100.696 224.62 101.264 224.348 101.712C224.092 102.16 223.716 102.52 223.22 102.792C222.74 103.048 222.172 103.232 221.516 103.344C220.876 103.456 220.164 103.52 219.38 103.536ZM237.866 95.952V111.48H235.202V98.4L235.946 98.664L229.418 106.92L228.986 105.984H235.586V108.168H227.018V105.984L235.202 95.952H237.866ZM237.482 108.168V105.984H240.434V108.168H237.482ZM248.653 103.536L248.677 103.416C249.493 103.448 250.245 103.536 250.933 103.68C251.621 103.808 252.213 104.016 252.709 104.304C253.221 104.592 253.613 104.984 253.885 105.48C254.173 105.976 254.317 106.6 254.317 107.352C254.317 108.216 254.061 108.992 253.549 109.68C253.053 110.368 252.349 110.912 251.437 111.312C250.525 111.712 249.453 111.912 248.221 111.912C247.037 111.912 245.989 111.696 245.077 111.264C244.165 110.848 243.461 110.28 242.965 109.56C242.485 108.84 242.277 108.024 242.341 107.112H244.861C244.877 107.592 245.013 108.016 245.269 108.384C245.541 108.752 245.925 109.04 246.421 109.248C246.933 109.456 247.533 109.56 248.221 109.56C249.277 109.56 250.085 109.336 250.645 108.888C251.221 108.456 251.509 107.84 251.509 107.04C251.509 106.24 251.181 105.648 250.525 105.264C249.885 104.864 248.981 104.664 247.813 104.664H246.013V102.504H247.813C248.613 102.504 249.269 102.432 249.781 102.288C250.293 102.128 250.669 101.888 250.909 101.568C251.149 101.232 251.269 100.824 251.269 100.344C251.269 99.656 251.021 99.112 250.525 98.712C250.045 98.312 249.277 98.112 248.221 98.112C247.245 98.112 246.477 98.32 245.917 98.736C245.357 99.152 245.069 99.704 245.053 100.392H242.509C242.461 99.688 242.573 99.056 242.845 98.496C243.133 97.936 243.541 97.456 244.069 97.056C244.613 96.64 245.237 96.32 245.941 96.096C246.661 95.872 247.421 95.76 248.221 95.76C249.421 95.76 250.453 95.944 251.317 96.312C252.197 96.664 252.869 97.16 253.333 97.8C253.797 98.44 254.029 99.176 254.029 100.008C254.029 100.696 253.893 101.264 253.621 101.712C253.365 102.16 252.989 102.52 252.493 102.792C252.013 103.048 251.445 103.232 250.789 103.344C250.149 103.456 249.437 103.52 248.653 103.536ZM267.14 95.952V111.48H264.476V98.4L265.22 98.664L258.692 106.92L258.26 105.984H264.86V108.168H256.292V105.984L264.476 95.952H267.14ZM266.756 108.168V105.984H269.708V108.168H266.756ZM277.927 103.536L277.951 103.416C278.767 103.448 279.519 103.536 280.207 103.68C280.895 103.808 281.487 104.016 281.983 104.304C282.495 104.592 282.887 104.984 283.159 105.48C283.447 105.976 283.591 106.6 283.591 107.352C283.591 108.216 283.335 108.992 282.823 109.68C282.327 110.368 281.623 110.912 280.711 111.312C279.799 111.712 278.727 111.912 277.495 111.912C276.311 111.912 275.263 111.696 274.351 111.264C273.439 110.848 272.735 110.28 272.239 109.56C271.759 108.84 271.551 108.024 271.615 107.112H274.135C274.151 107.592 274.287 108.016 274.543 108.384C274.815 108.752 275.199 109.04 275.695 109.248C276.207 109.456 276.807 109.56 277.495 109.56C278.551 109.56 279.359 109.336 279.919 108.888C280.495 108.456 280.783 107.84 280.783 107.04C280.783 106.24 280.455 105.648 279.799 105.264C279.159 104.864 278.255 104.664 277.087 104.664H275.287V102.504H277.087C277.887 102.504 278.543 102.432 279.055 102.288C279.567 102.128 279.943 101.888 280.183 101.568C280.423 101.232 280.543 100.824 280.543 100.344C280.543 99.656 280.295 99.112 279.799 98.712C279.319 98.312 278.551 98.112 277.495 98.112C276.519 98.112 275.751 98.32 275.191 98.736C274.631 99.152 274.343 99.704 274.327 100.392H271.783C271.735 99.688 271.847 99.056 272.119 98.496C272.407 97.936 272.815 97.456 273.343 97.056C273.887 96.64 274.511 96.32 275.215 96.096C275.935 95.872 276.695 95.76 277.495 95.76C278.695 95.76 279.727 95.944 280.591 96.312C281.471 96.664 282.143 97.16 282.607 97.8C283.071 98.44 283.303 99.176 283.303 100.008C283.303 100.696 283.167 101.264 282.895 101.712C282.639 102.16 282.263 102.52 281.767 102.792C281.287 103.048 280.719 103.232 280.063 103.344C279.423 103.456 278.711 103.52 277.927 103.536ZM296.413 95.952V111.48H293.749V98.4L294.493 98.664L287.965 106.92L287.533 105.984H294.133V108.168H285.565V105.984L293.749 95.952H296.413ZM296.029 108.168V105.984H298.981V108.168H296.029Z" fill="#C6C6C6" fill-opacity="0.8"/>
                        </svg>  