<svg width="35" height="22" viewBox="0 0 35 22" fill="none" xmlns="http://www.w3.org/2000/svg">
<path d="M0 20.768V0H9.344C11.6907 0 13.504 0.48 14.784 1.44C16.064 2.4 16.704 3.776 16.704 5.568C16.704 6.67733 16.4587 7.57333 15.968 8.256C15.4987 8.93867 14.8267 9.45067 13.952 9.792C13.0773 10.112 12.0533 10.3253 10.88 10.432L10.944 10.208C11.8187 10.2507 12.64 10.3467 13.408 10.496C14.1973 10.6453 14.88 10.8907 15.456 11.232C16.0533 11.5733 16.5227 12.0427 16.864 12.64C17.2267 13.2373 17.408 14.016 17.408 14.976C17.408 16.2347 17.1093 17.2907 16.512 18.144C15.9147 18.976 15.0827 19.6053 14.016 20.032C12.9707 20.4587 11.7547 20.704 10.368 20.768H0ZM3.072 18.016H9.792C11.2 18.016 12.2987 17.76 13.088 17.248C13.8773 16.736 14.272 15.9253 14.272 14.816C14.272 13.9627 14.0267 13.3227 13.536 12.896C13.0453 12.4693 12.4053 12.192 11.616 12.064C10.848 11.936 10.048 11.872 9.216 11.872H3.072V18.016ZM3.072 9.152H9.088C10.496 9.152 11.5947 8.87467 12.384 8.32C13.1733 7.744 13.568 6.912 13.568 5.824C13.568 4.71467 13.1733 3.92533 12.384 3.456C11.5947 2.98667 10.592 2.752 9.376 2.752H3.072V9.152Z" fill="white"/>
<path d="M31.5205 15.584H34.4325C34.2618 16.6293 33.8565 17.568 33.2165 18.4C32.5765 19.232 31.7338 19.8933 30.6885 20.384C29.6432 20.8747 28.4165 21.12 27.0085 21.12C25.3445 21.12 23.8618 20.768 22.5605 20.064C21.2592 19.36 20.2352 18.3893 19.4885 17.152C18.7418 15.9147 18.3685 14.4747 18.3685 12.832C18.3685 11.168 18.7312 9.71733 19.4565 8.48C20.1818 7.22133 21.1845 6.24 22.4645 5.536C23.7445 4.832 25.2058 4.48 26.8485 4.48C28.5765 4.48 30.0272 4.82133 31.2005 5.504C32.3738 6.18667 33.2378 7.2 33.7925 8.544C34.3685 9.86667 34.6032 11.52 34.4965 13.504H21.4085C21.5152 14.464 21.8032 15.3173 22.2725 16.064C22.7632 16.8107 23.4032 17.3973 24.1925 17.824C25.0032 18.2507 25.9312 18.464 26.9765 18.464C28.1498 18.464 29.1312 18.1973 29.9205 17.664C30.7098 17.1307 31.2432 16.4373 31.5205 15.584ZM26.8805 7.104C25.4938 7.104 24.3418 7.47733 23.4245 8.224C22.5072 8.94933 21.8992 9.92 21.6005 11.136H31.4245C31.3392 9.83467 30.8698 8.84267 30.0165 8.16C29.1632 7.456 28.1178 7.104 26.8805 7.104Z" fill="white"/>
<path d="M21.4727 1.76758H31.4727" stroke="white" stroke-width="2"/>
</svg>
