<svg width="69" height="99" viewBox="0 0 69 99" fill="none" xmlns="http://www.w3.org/2000/svg">
<path d="M2 78.4051V63.8308M16.5547 97H57.6263C62.8032 97 67 92.8032 67 87.6263V87.6263C67 81.0739 61.3439 75.9532 54.8238 76.6028L26.0084 79.4736C20.9462 79.9779 16.5547 76.0022 16.5547 70.9149V70.9149C16.5547 67.9149 18.5518 65.2818 21.4406 64.4729L60.5842 53.5125C63.3445 52.7396 65.5196 50.6117 66.3528 47.869V47.869C66.7819 46.4564 67 44.9881 67 43.5118V26.1385M67 26.1385V7.16486C67 3.43001 63.0541 1.0136 59.7273 2.71122L21.0913 22.427C9.37492 28.4058 2 40.4489 2 53.6025V63.8308M67 26.1385V26.1385C65.7496 30.2544 62.6457 33.5483 58.6112 35.0407L50.75 37.9487L34.5 43.7282L18.25 49.5077L12.6708 51.5715C7.25805 53.5738 3.23679 58.1936 2 63.8308V63.8308" stroke="#94B2FF" stroke-width="3" stroke-linecap="round" stroke-linejoin="round"/>
</svg>
