<svg width="43" height="60" viewBox="0 0 43 60" fill="none" xmlns="http://www.w3.org/2000/svg">
<path d="M1.86328 46.329V37.5432M10.6271 57.5385H35.3514C38.472 57.5385 41.0017 55.0087 41.0017 51.8881V51.8881C41.0017 47.9381 37.5918 44.8514 33.6613 45.2434L16.3268 46.9723C13.2749 47.2767 10.6271 44.8799 10.6271 41.8128V41.8128C10.6271 40.0048 11.8305 38.4177 13.5714 37.9297L37.135 31.3241C38.7993 30.8576 40.1105 29.574 40.6123 27.92V27.92C40.8705 27.0691 41.0017 26.1848 41.0017 25.2956V14.8213M41.0017 14.8213V6.6307C41.0017 2.89482 37.0538 0.478472 33.727 2.17811L18.86 9.77343C8.42829 15.1029 1.86328 25.8289 1.86328 37.5432V37.5432M41.0017 14.8213V14.8213C40.2489 17.3025 38.3786 19.2887 35.9471 20.1891L31.2171 21.9408L21.4325 25.4249L11.6479 28.9089L8.29354 30.1511C5.03115 31.3593 2.60801 34.1449 1.86328 37.5432V37.5432" stroke="url(#paint0_linear_1884_2403)" stroke-width="3" stroke-linecap="round" stroke-linejoin="round"/>
<defs>
<linearGradient id="paint0_linear_1884_2403" x1="21.4325" y1="-1.53845" x2="21.4325" y2="57.5385" gradientUnits="userSpaceOnUse">
<stop offset="0.411631" stop-color="white"/>
<stop offset="1" stop-color="#999999"/>
</linearGradient>
</defs>
</svg>
