<svg width="43" height="60" viewBox="0 0 43 60" fill="none" xmlns="http://www.w3.org/2000/svg">
<path d="M2 46.8675V38.0817M10.7638 58.0769H35.4881C38.6087 58.0769 41.1385 55.5472 41.1385 52.4266V52.4266C41.1385 48.4766 37.7285 45.3898 33.798 45.7818L16.4636 47.5108C13.4116 47.8152 10.7638 45.4184 10.7638 42.3513V42.3513C10.7638 40.5432 11.9672 38.9562 13.7081 38.4681L37.2717 31.8626C38.936 31.396 40.2472 30.1125 40.7491 28.4585V28.4585C41.0072 27.6076 41.1385 26.7232 41.1385 25.834V15.3598M41.1385 15.3598V7.16915C41.1385 3.43327 37.1906 1.01692 33.8637 2.71657L18.9967 10.3119C8.565 15.6413 2 26.3674 2 38.0817V38.0817M41.1385 15.3598V15.3598C40.3856 17.841 38.5153 19.8271 36.0838 20.7276L31.3538 22.4793L21.5692 25.9633L11.7846 29.4473L8.43026 30.6896C5.16786 31.8978 2.74473 34.6834 2 38.0817V38.0817" stroke="url(#paint0_linear_1965_1216)" stroke-width="3" stroke-linecap="round" stroke-linejoin="round"/>
<defs>
<linearGradient id="paint0_linear_1965_1216" x1="21.5692" y1="-1" x2="21.5692" y2="58.0769" gradientUnits="userSpaceOnUse">
<stop offset="0.411631"/>
<stop offset="1" stop-color="#1F1F1F"/>
</linearGradient>
</defs>
</svg>
