<svg width="24" height="24" viewBox="0 0 24 24" fill="none" xmlns="http://www.w3.org/2000/svg">
<path d="M0.48625 24V8.128H5.19025V24H0.48625ZM2.82225 5.792C2.03292 5.792 1.39292 5.568 0.90225 5.12C0.411583 4.672 0.16625 4.07467 0.16625 3.328C0.16625 2.58133 0.411583 1.984 0.90225 1.536C1.39292 1.088 2.03292 0.863998 2.82225 0.863998C3.61158 0.863998 4.25158 1.088 4.74225 1.536C5.23292 1.984 5.47825 2.58133 5.47825 3.328C5.47825 4.07467 5.23292 4.672 4.74225 5.12C4.25158 5.568 3.61158 5.792 2.82225 5.792ZM9.36125 24V8.128H13.2013L13.5213 10.144H13.6493C14.3106 9.48267 15.0573 8.91733 15.8893 8.448C16.7213 7.97867 17.6706 7.744 18.7373 7.744C20.4866 7.744 21.7453 8.32 22.5133 9.472C23.2813 10.6027 23.6653 12.16 23.6653 14.144V24H18.9613V14.752C18.9613 13.6 18.8013 12.8107 18.4813 12.384C18.1826 11.9573 17.6919 11.744 17.0093 11.744C16.4119 11.744 15.8999 11.8827 15.4733 12.16C15.0466 12.416 14.5773 12.7893 14.0653 13.28V24H9.36125Z" fill="white"/>
</svg>
