<svg width="30" height="26" viewBox="0 0 30 26" fill="none" xmlns="http://www.w3.org/2000/svg">
<path d="M21.9767 25.814H8.02326C2.93023 25.814 0 22.8837 0 17.7907V8.02326C0 2.93023 2.93023 0 8.02326 0H21.9767C27.0698 0 30 2.93023 30 8.02326V17.7907C30 22.8837 27.0698 25.814 21.9767 25.814ZM8.02326 2.09302C4.03256 2.09302 2.09302 4.03256 2.09302 8.02326V17.7907C2.09302 21.7814 4.03256 23.7209 8.02326 23.7209H21.9767C25.9674 23.7209 27.907 21.7814 27.907 17.7907V8.02326C27.907 4.03256 25.9674 2.09302 21.9767 2.09302H8.02326Z" fill="white"/>
<path d="M14.9993 14.1158C13.8272 14.1158 12.6411 13.753 11.7341 13.0135L7.3667 9.52508C7.16361 9.34874 7.03644 9.1008 7.0117 8.83297C6.98697 8.56514 7.06659 8.2981 7.23395 8.08754C7.40132 7.87699 7.64351 7.73917 7.91001 7.70284C8.17651 7.6665 8.44676 7.73446 8.66438 7.89253L13.0318 11.3809C14.0923 12.2321 15.8923 12.2321 16.9528 11.3809L21.3202 7.89253C21.7667 7.52974 22.4365 7.5995 22.7853 8.05997C23.1481 8.50648 23.0783 9.17625 22.6179 9.52508L18.2504 13.0135C17.3574 13.753 16.1714 14.1158 14.9993 14.1158Z" fill="white"/>
</svg>
