<svg width="1352" height="725" viewBox="0 0 1352 725" fill="none" xmlns="http://www.w3.org/2000/svg">
<circle opacity="0.8" cx="1022.9" cy="369.484" r="0.75" transform="rotate(22.7467 1022.9 369.484)" fill="#D9D9D9"/>
<circle cx="0.5" cy="0.5" r="0.5" transform="matrix(0.922223 0.386658 0.386658 -0.922223 289.062 232.563)" fill="#D9D9D9"/>
<circle cx="0.75" cy="0.75" r="0.75" transform="matrix(0.990028 -0.14087 -0.14087 -0.990028 327.035 494.684)" fill="#D9D9D9"/>
<circle opacity="0.8" cx="0.5" cy="0.5" r="0.5" transform="matrix(0.990028 -0.14087 -0.14087 -0.990028 836.32 401.525)" fill="#D9D9D9"/>
<circle opacity="0.8" cx="0.75" cy="0.75" r="0.75" transform="matrix(-0.922223 -0.386658 -0.386658 0.922223 873.227 351.872)" fill="#D9D9D9"/>
<circle cx="172.299" cy="137.109" r="0.5" transform="rotate(-157.253 172.299 137.109)" fill="#D9D9D9"/>
<circle cx="177.279" cy="472.174" r="1" transform="rotate(171.902 177.279 472.174)" fill="#D9D9D9"/>
<circle cx="557.931" cy="360.609" r="0.5" transform="rotate(171.902 557.931 360.609)" fill="#D9D9D9"/>
<circle opacity="0.8" cx="1182.35" cy="490.128" r="0.5" transform="rotate(-157.253 1182.35 490.128)" fill="#D9D9D9" fill-opacity="0.8"/>
<circle opacity="0.9" cx="0.5" cy="0.5" r="0.5" transform="matrix(-0.922223 -0.386658 -0.386658 0.922223 480.703 257.764)" fill="#D9D9D9"/>
<circle cx="0.5" cy="0.5" r="0.5" transform="matrix(-0.990028 0.14087 0.14087 0.990028 504.492 418.064)" fill="#D9D9D9"/>
<circle opacity="0.8" cx="743.971" cy="347.241" r="0.5" transform="rotate(22.7467 743.971 347.241)" fill="#D9D9D9"/>
<circle cx="27.5217" cy="619.448" r="0.5" transform="rotate(22.7467 27.5217 619.448)" fill="#D9D9D9"/>
<circle cx="0.5" cy="0.5" r="0.5" transform="matrix(0.922223 0.386658 0.386658 -0.922223 78 49.0975)" fill="#D9D9D9"/>
<circle cx="0.5" cy="0.5" r="0.5" transform="matrix(0.990028 -0.14087 -0.14087 -0.990028 51.7617 445.383)" fill="#D9D9D9"/>
<circle cx="0.5" cy="0.5" r="0.5" transform="matrix(-0.922223 -0.386658 -0.386658 0.922223 1303.75 559.949)" fill="#D9D9D9" fill-opacity="0.8"/>
<circle cx="622.482" cy="298.283" r="0.5" transform="rotate(-157.253 622.482 298.283)" fill="#D9D9D9" fill-opacity="0.5"/>
<circle cx="646.993" cy="380.159" r="0.5" transform="rotate(171.902 646.993 380.159)" fill="#D9D9D9" fill-opacity="0.5"/>
<circle opacity="0.8" cx="953.73" cy="395.629" r="0.75" transform="rotate(22.7467 953.73 395.629)" fill="#D9D9D9"/>
<circle cx="0.5" cy="0.5" r="0.5" transform="matrix(0.922223 0.386658 0.386658 -0.922223 259.223 164.905)" fill="#D9D9D9" fill-opacity="0.2"/>
<circle cx="0.75" cy="0.75" r="0.75" transform="matrix(0.990028 -0.14087 -0.14087 -0.990028 266.727 451.895)" fill="#D9D9D9" fill-opacity="0.2"/>
<circle opacity="0.8" cx="0.5" cy="0.5" r="0.5" transform="matrix(0.922223 0.386658 0.386658 -0.922223 1269.28 517.925)" fill="#D9D9D9" fill-opacity="0.8"/>
<circle cx="568.893" cy="304.473" r="0.5" transform="rotate(22.7467 568.893 304.473)" fill="#D9D9D9" fill-opacity="0.5"/>
<circle cx="604.155" cy="412.95" r="0.5" transform="rotate(-8.09817 604.155 412.95)" fill="#D9D9D9" fill-opacity="0.5"/>
<circle opacity="0.8" cx="0.5" cy="0.5" r="0.5" transform="matrix(-0.922223 -0.386658 -0.386658 0.922223 1122.53 444.141)" fill="#D9D9D9" fill-opacity="0.8"/>
<circle opacity="0.9" cx="412.857" cy="250.223" r="0.5" transform="rotate(-157.253 412.857 250.223)" fill="#D9D9D9"/>
<circle cx="442.376" cy="446.374" r="0.5" transform="rotate(171.902 442.376 446.374)" fill="#D9D9D9"/>
<circle cx="703.791" cy="333.458" r="0.5" transform="rotate(22.7467 703.791 333.458)" fill="#D9D9D9"/>
<circle opacity="0.8" cx="1033.49" cy="395.369" r="0.75" transform="rotate(22.7467 1033.49 395.369)" fill="#D9D9D9"/>
<circle opacity="0.9" cx="0.5" cy="0.5" r="0.5" transform="matrix(0.922223 0.386658 0.386658 -0.922223 314.949 221.971)" fill="#D9D9D9"/>
<circle cx="0.75" cy="0.75" r="0.75" transform="matrix(0.990028 -0.14087 -0.14087 -0.990028 343.832 472.317)" fill="#D9D9D9"/>
<circle opacity="0.8" cx="0.5" cy="0.5" r="0.5" transform="matrix(0.990028 -0.14087 -0.14087 -0.990028 867.715 359.715)" fill="#D9D9D9"/>
<circle opacity="0.8" cx="990.714" cy="380.497" r="0.75" transform="rotate(22.7467 990.714 380.497)" fill="#D9D9D9"/>
<circle cx="0.5" cy="0.5" r="0.5" transform="matrix(0.922223 0.386658 0.386658 -0.922223 274.355 201.886)" fill="#D9D9D9" fill-opacity="0.4"/>
<circle cx="0.75" cy="0.75" r="0.75" transform="matrix(0.990028 -0.14087 -0.14087 -0.990028 298.68 475.886)" fill="#D9D9D9" fill-opacity="0.4"/>
<circle opacity="0.8" cx="0.5" cy="0.5" r="0.5" transform="matrix(0.990028 -0.14087 -0.14087 -0.990028 783.316 366.386)" fill="#D9D9D9" fill-opacity="0.4"/>
<circle opacity="0.8" cx="915.316" cy="370.332" r="0.75" transform="rotate(22.7467 915.316 370.332)" fill="#D9D9D9"/>
<circle cx="0.5" cy="0.5" r="0.5" transform="matrix(0.922223 0.386658 0.386658 -0.922223 214.254 155.242)" fill="#D9D9D9" fill-opacity="0.2"/>
<circle cx="1" cy="1" r="1" transform="matrix(0.990028 -0.14087 -0.14087 -0.990028 223.164 466.655)" fill="#D9D9D9" fill-opacity="0.2"/>
<circle cx="0.5" cy="0.5" r="0.5" transform="matrix(0.990028 -0.14087 -0.14087 -0.990028 642.156 349.131)" fill="#D9D9D9" fill-opacity="0.2"/>
<circle cx="0.5" cy="0.5" r="0.5" transform="matrix(0.922223 0.386658 0.386658 -0.922223 1325.02 574.993)" fill="#D9D9D9" fill-opacity="0.8"/>
<circle cx="648.658" cy="304.215" r="0.5" transform="rotate(22.7467 648.658 304.215)" fill="#D9D9D9"/>
<circle cx="672.507" cy="371.831" r="0.5" transform="rotate(-8.09817 672.507 371.831)" fill="#D9D9D9"/>
<circle opacity="0.8" cx="0.75" cy="0.75" r="0.75" transform="matrix(-0.922223 -0.386658 -0.386658 0.922223 1066.79 387.073)" fill="#D9D9D9"/>
<circle opacity="0.9" cx="333.095" cy="250.481" r="0.5" transform="rotate(-157.253 333.095 250.481)" fill="#D9D9D9"/>
<circle cx="373.742" cy="487.279" r="0.75" transform="rotate(171.902 373.742 487.279)" fill="#D9D9D9"/>
<circle cx="1343.15" cy="603.501" r="0.5" transform="rotate(-157.253 1343.15 603.501)" fill="#D9D9D9" fill-opacity="0.8"/>
<circle cx="1" cy="1" r="1" transform="matrix(-0.922223 -0.386658 -0.386658 0.922223 682.094 296.245)" fill="#D9D9D9"/>
<circle cx="0.5" cy="0.5" r="0.5" transform="matrix(-0.990028 0.14087 0.14087 0.990028 697.125 347.846)" fill="#D9D9D9"/>
<circle opacity="0.8" cx="783.691" cy="333.528" r="0.75" transform="rotate(22.7467 783.691 333.528)" fill="#D9D9D9"/>
<circle cx="67.2415" cy="605.735" r="0.75" transform="rotate(22.7467 67.2415 605.735)" fill="#D9D9D9"/>
<circle cx="350.209" cy="607.93" r="0.5" transform="rotate(22.7467 350.209 607.93)" fill="#D9D9D9"/>
<circle cx="0.5" cy="0.5" r="0.5" transform="matrix(0.922223 0.386658 0.386658 -0.922223 95.7383 87.1704)" fill="#D9D9D9"/>
<circle cx="0.5" cy="0.5" r="0.5" transform="matrix(0.990028 -0.14087 -0.14087 -0.990028 86.5078 468.976)" fill="#D9D9D9"/>
<circle cx="0.5" cy="0.5" r="0.5" transform="matrix(0.990028 -0.14087 -0.14087 -0.990028 386.703 353.47)" fill="#D9D9D9"/>
<g opacity="0.12">
<ellipse cx="0.00704225" cy="1.5" rx="0.00704225" ry="1.5" transform="matrix(0.922223 0.386658 0.386658 -0.922223 245.68 146.061)" fill="#D9D9D9"/>
<ellipse cx="251.835" cy="130.749" rx="0.00704225" ry="1.5" transform="rotate(-157.253 251.835 130.749)" fill="#D9D9D9"/>
<ellipse cx="0.00704225" cy="1.5" rx="0.00704225" ry="1.5" transform="matrix(-0.922223 -0.386658 -0.386658 0.922223 252.926 129.581)" fill="#D9D9D9"/>
<ellipse cx="0.00704225" cy="1.5" rx="0.00704225" ry="1.5" transform="matrix(0.922223 0.386658 0.386658 -0.922223 257.262 117.301)" fill="#D9D9D9"/>
<ellipse cx="0.00704225" cy="1.5" rx="0.00704225" ry="1.5" transform="matrix(0.922223 0.386658 0.386658 -0.922223 252.559 129.426)" fill="#D9D9D9" fill-opacity="0.2"/>
<ellipse cx="251.344" cy="133.797" rx="0.00704225" ry="1.5" transform="rotate(22.7467 251.344 133.797)" fill="#D9D9D9" fill-opacity="0.5"/>
<ellipse cx="250.695" cy="134.608" rx="0.00704225" ry="1.5" transform="rotate(-157.253 250.695 134.608)" fill="#D9D9D9"/>
<ellipse cx="0.00704225" cy="1.5" rx="0.00704225" ry="1.5" transform="matrix(0.922223 0.386658 0.386658 -0.922223 257.582 116.352)" fill="#D9D9D9"/>
<ellipse cx="0.00704225" cy="1.5" rx="0.00704225" ry="1.5" transform="matrix(0.922223 0.386658 0.386658 -0.922223 248.418 139.618)" fill="#D9D9D9"/>
<ellipse cx="0.00704225" cy="1.5" rx="0.00704225" ry="1.5" transform="matrix(0.922223 0.386658 0.386658 -0.922223 248.734 138.667)" fill="#D9D9D9" fill-opacity="0.4"/>
<ellipse cx="0.00704225" cy="1.5" rx="0.00704225" ry="1.5" transform="matrix(0.922223 0.386658 0.386658 -0.922223 251.328 132.164)" fill="#D9D9D9" fill-opacity="0.2"/>
<ellipse cx="246.327" cy="144.706" rx="0.00704225" ry="1.5" transform="rotate(-157.253 246.327 144.706)" fill="#D9D9D9"/>
<ellipse cx="0.00704225" cy="1.5" rx="0.00704225" ry="1.5" transform="matrix(0.922223 0.386658 0.386658 -0.922223 253.441 126.543)" fill="#D9D9D9"/>
</g>
<g opacity="0.12">
<ellipse cx="0.0105609" cy="1.5" rx="0.0105609" ry="1.5" transform="matrix(0.990028 -0.14087 -0.14087 -0.990028 245.695 442.623)" fill="#D9D9D9"/>
<ellipse cx="243.005" cy="426.34" rx="0.0105609" ry="1.5" transform="rotate(171.902 243.005 426.34)" fill="#D9D9D9"/>
<ellipse cx="0.0105609" cy="1.5" rx="0.0105609" ry="1.5" transform="matrix(-0.990028 0.14087 0.14087 0.990028 243.617 424.737)" fill="#D9D9D9"/>
<ellipse cx="0.0105609" cy="1.5" rx="0.0105609" ry="1.5" transform="matrix(0.990028 -0.14087 -0.14087 -0.990028 240.672 412.025)" fill="#D9D9D9"/>
<ellipse cx="0.0105609" cy="1.5" rx="0.0105609" ry="1.5" transform="matrix(0.990028 -0.14087 -0.14087 -0.990028 243.027 424.821)" fill="#D9D9D9" fill-opacity="0.2"/>
<ellipse cx="244.507" cy="429.156" rx="0.0105609" ry="1.5" transform="rotate(-8.09817 244.507 429.156)" fill="#D9D9D9" fill-opacity="0.5"/>
<ellipse cx="244.224" cy="430.207" rx="0.0105609" ry="1.5" transform="rotate(171.902 244.224 430.207)" fill="#D9D9D9"/>
<ellipse cx="0.0105609" cy="1.5" rx="0.0105609" ry="1.5" transform="matrix(0.990028 -0.14087 -0.14087 -0.990028 240.426 411.05)" fill="#D9D9D9"/>
<ellipse cx="0.0105609" cy="1.5" rx="0.0105609" ry="1.5" transform="matrix(0.990028 -0.14087 -0.14087 -0.990028 244.762 435.686)" fill="#D9D9D9"/>
<ellipse cx="0.0105609" cy="1.5" rx="0.0105609" ry="1.5" transform="matrix(0.990028 -0.14087 -0.14087 -0.990028 244.508 434.712)" fill="#D9D9D9" fill-opacity="0.4"/>
<ellipse cx="0.0105609" cy="1.5" rx="0.0105609" ry="1.5" transform="matrix(0.990028 -0.14087 -0.14087 -0.990028 243.336 427.807)" fill="#D9D9D9" fill-opacity="0.2"/>
<ellipse cx="245.591" cy="441.123" rx="0.0105609" ry="1.5" transform="rotate(171.902 245.591 441.123)" fill="#D9D9D9"/>
<ellipse cx="0.0105609" cy="1.5" rx="0.0105609" ry="1.5" transform="matrix(0.990028 -0.14087 -0.14087 -0.990028 242.16 421.915)" fill="#D9D9D9"/>
</g>
<circle cx="0.5" cy="0.5" r="0.5" transform="matrix(0.971356 0.23763 0.23763 -0.971356 1334.11 530.153)" fill="#D9D9D9"/>
<circle opacity="0.8" cx="1097.37" cy="415.356" r="0.75" transform="rotate(13.7467 1097.37 415.356)" fill="#D9D9D9"/>
<circle opacity="0.8" cx="1287.77" cy="502.859" r="0.5" transform="rotate(-166.253 1287.77 502.859)" fill="#D9D9D9"/>
<circle cx="0.5" cy="0.5" r="0.5" transform="matrix(-0.971356 -0.23763 -0.23763 0.971356 591.035 212.335)" fill="#D9D9D9" fill-opacity="0.11"/>
<circle cx="0.5" cy="0.5" r="0.5" transform="matrix(-0.955802 0.29401 0.29401 0.955802 575.926 322.491)" fill="#D9D9D9" fill-opacity="0.11"/>
<circle opacity="0.8" cx="0.75" cy="0.75" r="0.75" transform="matrix(-0.971356 -0.23763 -0.23763 0.971356 1047.3 454.441)" fill="#D9D9D9" fill-opacity="0.8"/>
<circle opacity="0.8" cx="1159.19" cy="447.725" r="0.5" transform="rotate(-166.253 1159.19 447.725)" fill="#D9D9D9"/>
<circle opacity="0.8" cx="0.5" cy="0.5" r="0.5" transform="matrix(0.971356 0.23763 0.23763 -0.971356 1250.18 477.704)" fill="#D9D9D9"/>
<circle opacity="0.9" cx="545.836" cy="218.264" r="0.5" transform="rotate(13.7467 545.836 218.264)" fill="#D9D9D9" fill-opacity="0.11"/>
<circle cx="540.16" cy="350.756" r="0.5" transform="rotate(-17.0982 540.16 350.756)" fill="#D9D9D9" fill-opacity="0.11"/>
<circle opacity="0.8" cx="1095.95" cy="459.651" r="0.5" transform="rotate(-166.253 1095.95 459.651)" fill="#D9D9D9" fill-opacity="0.8"/>
<circle opacity="0.8" cx="0.5" cy="0.5" r="0.5" transform="matrix(-0.971356 -0.23763 -0.23763 0.971356 1205.73 465.802)" fill="#D9D9D9" fill-opacity="0.5"/>
<circle cx="0.5" cy="0.5" r="0.5" transform="matrix(0.971356 0.23763 0.23763 -0.971356 1319.94 508.154)" fill="#D9D9D9"/>
<circle opacity="0.8" cx="1074.63" cy="428.326" r="0.75" transform="rotate(13.7467 1074.63 428.326)" fill="#D9D9D9" fill-opacity="0.2"/>
<circle opacity="0.8" cx="1078.03" cy="465.563" r="0.5" transform="rotate(13.7467 1078.03 465.563)" fill="#D9D9D9" fill-opacity="0.8"/>
<circle opacity="0.8" cx="0.5" cy="0.5" r="0.5" transform="matrix(0.971356 0.23763 0.23763 -0.971356 1191.36 453.02)" fill="#D9D9D9" fill-opacity="0.5"/>
<circle opacity="0.8" cx="1019.83" cy="454.155" r="0.75" transform="rotate(-166.253 1019.83 454.155)" fill="#D9D9D9" fill-opacity="0.8"/>
<circle opacity="0.8" cx="0.5" cy="0.5" r="0.5" transform="matrix(-0.971356 -0.23763 -0.23763 0.971356 1135.97 435.352)" fill="#D9D9D9"/>
<circle opacity="0.8" cx="0.5" cy="0.5" r="0.5" transform="matrix(0.971356 0.23763 0.23763 -0.971356 1235.84 473.168)" fill="#D9D9D9"/>
<circle opacity="0.9" cx="531.027" cy="215.67" r="0.5" transform="rotate(13.7467 531.027 215.67)" fill="#D9D9D9"/>
<circle cx="526.117" cy="356.122" r="0.5" transform="rotate(-17.0982 526.117 356.122)" fill="#D9D9D9"/>
<circle cx="0.5" cy="0.5" r="0.5" transform="matrix(0.971356 0.23763 0.23763 -0.971356 1342.58 525.018)" fill="#D9D9D9"/>
<circle opacity="0.8" cx="1102.32" cy="423.516" r="0.5" transform="rotate(13.7467 1102.32 423.516)" fill="#D9D9D9" fill-opacity="0.11"/>
<circle cx="0.5" cy="0.5" r="0.5" transform="matrix(0.971356 0.23763 0.23763 -0.971356 1327.28 520.244)" fill="#D9D9D9"/>
<circle opacity="0.8" cx="1086.72" cy="420.989" r="0.75" transform="rotate(13.7467 1086.72 420.989)" fill="#D9D9D9" fill-opacity="0.4"/>
<circle cx="0.5" cy="0.5" r="0.5" transform="matrix(0.971356 0.23763 0.23763 -0.971356 1303.68 507.266)" fill="#D9D9D9"/>
<circle opacity="0.8" cx="1059.8" cy="421.61" r="0.75" transform="rotate(13.7467 1059.8 421.61)" fill="#D9D9D9" fill-opacity="0.2"/>
<circle opacity="0.8" cx="1105.9" cy="461.057" r="0.5" transform="rotate(13.7467 1105.9 461.057)" fill="#D9D9D9" fill-opacity="0.8"/>
<circle opacity="0.8" cx="0.5" cy="0.5" r="0.5" transform="matrix(0.971356 0.23763 0.23763 -0.971356 1214 469.884)" fill="#D9D9D9"/>
<circle cx="1350.27" cy="533.589" r="0.5" transform="rotate(-166.253 1350.27 533.589)" fill="#D9D9D9"/>
<circle opacity="0.8" cx="0.5" cy="0.5" r="0.5" transform="matrix(-0.971356 -0.23763 -0.23763 0.971356 1113.32 418.488)" fill="#D9D9D9" fill-opacity="0.11"/>
<circle opacity="0.8" cx="0.75" cy="0.75" r="0.75" transform="matrix(-0.971356 -0.23763 -0.23763 0.971356 1029.38 331.508)" fill="#D9D9D9" fill-opacity="0.8"/>
<circle opacity="0.8" cx="1221.68" cy="478.456" r="0.5" transform="rotate(-166.253 1221.68 478.456)" fill="#D9D9D9"/>
<circle opacity="0.8" cx="0.5" cy="0.5" r="0.5" transform="matrix(0.971356 0.23763 0.23763 -0.971356 1258.48 490.032)" fill="#D9D9D9"/>
<circle opacity="0.9" cx="558.894" cy="211.163" r="0.5" transform="rotate(13.7467 558.894 211.163)" fill="#D9D9D9"/>
<circle cx="547.73" cy="337.964" r="0.5" transform="rotate(-17.0982 547.73 337.964)" fill="#D9D9D9"/>
<circle cx="2" cy="2" r="2" transform="matrix(0.971356 0.23763 0.23763 -0.971356 261.203 259.342)" fill="#D9D9D9"/>
<circle cx="0.75" cy="0.75" r="0.75" transform="matrix(0.955802 -0.29401 -0.29401 -0.955802 316.844 531.959)" fill="#D9D9D9"/>
<circle opacity="0.8" cx="0.5" cy="0.5" r="0.5" transform="matrix(0.955802 -0.29401 -0.29401 -0.955802 817.266 471.202)" fill="#D9D9D9"/>
<circle opacity="0.8" cx="914.867" cy="280.959" r="0.75" transform="rotate(13.7467 914.867 280.959)" fill="#D9D9D9"/>
<circle cx="244.919" cy="159.747" r="1" transform="rotate(-166.253 244.919 159.747)" fill="#D9D9D9"/>
<circle cx="252.113" cy="454.966" r="0.75" transform="rotate(162.902 252.113 454.966)" fill="#D9D9D9"/>
<circle opacity="0.8" cx="2" cy="2" r="2" transform="matrix(-0.971356 -0.23763 -0.23763 0.971356 749.266 287.674)" fill="#D9D9D9" fill-opacity="0.11"/>
<circle cx="2" cy="2" r="2" transform="matrix(-0.971356 -0.23763 -0.23763 0.971356 32.8164 559.88)" fill="#D9D9D9" fill-opacity="0.11"/>
<circle cx="1" cy="1" r="1" transform="matrix(-0.971356 -0.23763 -0.23763 0.971356 610.168 240.532)" fill="#D9D9D9" fill-opacity="0.8"/>
<circle cx="1" cy="1" r="1" transform="matrix(-0.955802 0.29401 0.29401 0.955802 606.809 336.89)" fill="#D9D9D9" fill-opacity="0.8"/>
<circle opacity="0.8" cx="1108.98" cy="384.76" r="0.5" transform="rotate(-166.253 1108.98 384.76)" fill="#D9D9D9"/>
<circle cx="2" cy="2" r="2" transform="matrix(0.971356 0.23763 0.23763 -0.971356 127.645 80.8904)" fill="#D9D9D9"/>
<circle cx="1" cy="1" r="1" transform="matrix(0.955802 -0.29401 -0.29401 -0.955802 110.684 447.226)" fill="#D9D9D9"/>
<circle cx="609.092" cy="306.637" r="2" transform="rotate(13.7467 609.092 306.637)" fill="#D9D9D9" fill-opacity="0.11"/>
<circle cx="639.777" cy="394.197" r="2" transform="rotate(-17.0982 639.777 394.197)" fill="#D9D9D9" fill-opacity="0.11"/>
<circle opacity="0.8" cx="761.985" cy="257.7" r="0.75" transform="rotate(-166.253 761.985 257.7)" fill="#D9D9D9" fill-opacity="0.8"/>
<circle cx="45.5356" cy="529.907" r="0.75" transform="rotate(-166.253 45.5356 529.907)" fill="#D9D9D9" fill-opacity="0.8"/>
<circle cx="310.778" cy="468.457" r="0.5" transform="rotate(-166.253 310.778 468.457)" fill="#D9D9D9" fill-opacity="0.8"/>
<circle opacity="0.8" cx="1" cy="1" r="1" transform="matrix(-0.971356 -0.23763 -0.23763 0.971356 1252.86 439.67)" fill="#D9D9D9" fill-opacity="0.5"/>
<circle cx="2" cy="2" r="2" transform="matrix(0.971356 0.23763 0.23763 -0.971356 269 88.1493)" fill="#D9D9D9"/>
<circle cx="0.75" cy="0.75" r="0.75" transform="matrix(0.955802 -0.29401 -0.29401 -0.955802 235.77 380.983)" fill="#D9D9D9"/>
<circle opacity="0.8" cx="844.21" cy="321.271" r="0.75" transform="rotate(13.7467 844.21 321.271)" fill="#D9D9D9" fill-opacity="0.2"/>
<circle cx="127.761" cy="593.478" r="0.75" transform="rotate(13.7467 127.761 593.478)" fill="#D9D9D9" fill-opacity="0.2"/>
<circle cx="463.16" cy="585.108" r="0.5" transform="rotate(13.7467 463.16 585.108)" fill="#D9D9D9" fill-opacity="0.2"/>
<circle cx="705.296" cy="274.432" r="1" transform="rotate(13.7467 705.296 274.432)" fill="#D9D9D9" fill-opacity="0.8"/>
<circle opacity="0.8" cx="2" cy="2" r="2" transform="matrix(0.971356 0.23763 0.23763 -0.971356 1208.18 399.942)" fill="#D9D9D9" fill-opacity="0.5"/>
<circle opacity="0.9" cx="525.033" cy="240.044" r="2" transform="rotate(-166.253 525.033 240.044)" fill="#D9D9D9" fill-opacity="0.8"/>
<circle cx="533.465" cy="380.121" r="2" transform="rotate(162.902 533.465 380.121)" fill="#D9D9D9" fill-opacity="0.8"/>
<circle opacity="0.8" cx="0.75" cy="0.75" r="0.75" transform="matrix(-0.971356 -0.23763 -0.23763 0.971356 1036.02 345.023)" fill="#D9D9D9"/>
<circle cx="2" cy="2" r="2" transform="matrix(0.971356 0.23763 0.23763 -0.971356 1346.45 462.566)" fill="#D9D9D9"/>
<circle cx="563.069" cy="298.58" r="2" transform="rotate(13.7467 563.069 298.58)" fill="#D9D9D9"/>
<circle cx="596.132" cy="410.877" r="2" transform="rotate(-17.0982 596.132 410.877)" fill="#D9D9D9"/>
<circle cx="2" cy="2" r="2" transform="matrix(0.971356 0.23763 0.23763 -0.971356 287.508 243.379)" fill="#D9D9D9"/>
<circle cx="0.75" cy="0.75" r="0.75" transform="matrix(0.955802 -0.29401 -0.29401 -0.955802 331.246 504.767)" fill="#D9D9D9"/>
<circle opacity="0.8" cx="0.5" cy="0.5" r="0.5" transform="matrix(0.955802 -0.29401 -0.29401 -0.955802 844.191 420.373)" fill="#D9D9D9"/>
<circle opacity="0.8" cx="930.839" cy="307.267" r="0.75" transform="rotate(13.7467 930.839 307.267)" fill="#D9D9D9" fill-opacity="0.11"/>
<circle cx="2" cy="2" r="2" transform="matrix(0.971356 0.23763 0.23763 -0.971356 291.805 125.727)" fill="#D9D9D9"/>
<circle cx="0.75" cy="0.75" r="0.75" transform="matrix(0.955802 -0.29401 -0.29401 -0.955802 274.613 401.553)" fill="#D9D9D9"/>
<circle opacity="0.8" cx="881.792" cy="298.467" r="0.75" transform="rotate(13.7467 881.792 298.467)" fill="#D9D9D9" fill-opacity="0.4"/>
<circle cx="1" cy="1" r="1" transform="matrix(0.971356 0.23763 0.23763 -0.971356 293.961 172.776)" fill="#D9D9D9"/>
<circle cx="0.75" cy="0.75" r="0.75" transform="matrix(0.955802 -0.29401 -0.29401 -0.955802 300.586 440.842)" fill="#D9D9D9"/>
<circle opacity="0.8" cx="798.121" cy="300.396" r="0.75" transform="rotate(13.7467 798.121 300.396)" fill="#D9D9D9" fill-opacity="0.2"/>
<circle cx="81.6714" cy="572.603" r="0.75" transform="rotate(13.7467 81.6714 572.603)" fill="#D9D9D9" fill-opacity="0.2"/>
<circle cx="377.004" cy="546.087" r="0.5" transform="rotate(13.7467 377.004 546.087)" fill="#D9D9D9" fill-opacity="0.2"/>
<circle opacity="0.8" cx="791.726" cy="260.12" r="0.75" transform="rotate(13.7467 791.726 260.12)" fill="#D9D9D9" fill-opacity="0.8"/>
<circle cx="75.2769" cy="532.326" r="0.75" transform="rotate(13.7467 75.2769 532.326)" fill="#D9D9D9" fill-opacity="0.8"/>
<circle cx="365.05" cy="470.798" r="0.5" transform="rotate(13.7467 365.05 470.798)" fill="#D9D9D9" fill-opacity="0.8"/>
<circle opacity="0.8" cx="1" cy="1" r="1" transform="matrix(0.971356 0.23763 0.23763 -0.971356 1278.55 452.353)" fill="#D9D9D9"/>
<circle opacity="0.9" cx="311.056" cy="269.478" r="2" transform="rotate(-166.253 311.056 269.478)" fill="#D9D9D9"/>
<circle cx="366.406" cy="515.928" r="0.75" transform="rotate(162.902 366.406 515.928)" fill="#D9D9D9"/>
<circle opacity="0.8" cx="0.75" cy="0.75" r="0.75" transform="matrix(-0.971356 -0.23763 -0.23763 0.971356 965.648 292.611)" fill="#D9D9D9" fill-opacity="0.11"/>
<circle opacity="0.8" cx="0.75" cy="0.75" r="0.75" transform="matrix(-0.971356 -0.23763 -0.23763 0.971356 848.359 262.309)" fill="#D9D9D9" fill-opacity="0.8"/>
<circle cx="0.75" cy="0.75" r="0.75" transform="matrix(-0.971356 -0.23763 -0.23763 0.971356 131.91 534.516)" fill="#D9D9D9" fill-opacity="0.8"/>
<circle cx="0.5" cy="0.5" r="0.5" transform="matrix(-0.971356 -0.23763 -0.23763 0.971356 471.574 475.981)" fill="#D9D9D9" fill-opacity="0.8"/>
<circle cx="1302.84" cy="479.665" r="1" transform="rotate(-166.253 1302.84 479.665)" fill="#D9D9D9"/>
<circle cx="1" cy="1" r="1" transform="matrix(0.971356 0.23763 0.23763 -0.971356 153.477 119.208)" fill="#D9D9D9"/>
<circle cx="1" cy="1" r="1" transform="matrix(0.955802 -0.29401 -0.29401 -0.955802 152.508 466.879)" fill="#D9D9D9"/>
<circle cx="0.5" cy="0.5" r="0.5" transform="matrix(0.955802 -0.29401 -0.29401 -0.955802 510.078 349.55)" fill="#D9D9D9"/>
<circle cx="648.96" cy="283.363" r="1" transform="rotate(13.7467 648.96 283.363)" fill="#D9D9D9"/>
<circle cx="663.328" cy="354.436" r="2" transform="rotate(-17.0982 663.328 354.436)" fill="#D9D9D9"/>
<circle cx="186.57" cy="224.603" r="2" transform="rotate(31.7467 186.57 224.603)" fill="#D9D9D9"/>
<circle cx="233.976" cy="539.384" r="1" transform="rotate(0.901833 233.976 539.384)" fill="#D9D9D9"/>
<circle cx="661.019" cy="483.69" r="0.5" transform="rotate(0.901833 661.019 483.69)" fill="#D9D9D9"/>
<circle opacity="0.8" cx="0.75" cy="0.75" r="0.75" transform="matrix(0.850383 0.526165 0.526165 -0.850383 868.359 429.86)" fill="#D9D9D9"/>
<circle cx="2" cy="2" r="2" transform="matrix(-0.850383 -0.526165 -0.526165 0.850383 314.688 36.4716)" fill="#D9D9D9"/>
<circle cx="2" cy="2" r="2" transform="matrix(-0.999876 -0.0157393 -0.0157393 0.999876 248.496 313.19)" fill="#D9D9D9"/>
<circle opacity="0.8" cx="757.449" cy="304.056" r="2" transform="rotate(-148.253 757.449 304.056)" fill="#D9D9D9" fill-opacity="0.11"/>
<circle cx="41" cy="576.262" r="2" transform="rotate(-148.253 41 576.262)" fill="#D9D9D9" fill-opacity="0.11"/>
<circle cx="302.689" cy="558.476" r="0.5" transform="rotate(-148.253 302.689 558.476)" fill="#D9D9D9" fill-opacity="0.11"/>
<circle cx="626.645" cy="239.277" r="1" transform="rotate(-148.253 626.645 239.277)" fill="#D9D9D9" fill-opacity="0.8"/>
<circle cx="620.309" cy="327.365" r="1" transform="rotate(-179.098 620.309 327.365)" fill="#D9D9D9" fill-opacity="0.8"/>
<circle opacity="0.8" cx="2" cy="2" r="2" transform="matrix(-0.850383 -0.526165 -0.526165 0.850383 1080.18 495.13)" fill="#D9D9D9"/>
<circle cx="175.195" cy="9.81612" r="1" transform="rotate(31.7467 175.195 9.81612)" fill="#D9D9D9"/>
<circle cx="115.066" cy="361.824" r="1" transform="rotate(0.901833 115.066 361.824)" fill="#D9D9D9"/>
<circle cx="1" cy="1" r="1" transform="matrix(0.850383 0.526165 0.526165 -0.850383 670.605 194.194)" fill="#D9D9D9" fill-opacity="0.11"/>
<circle cx="2" cy="2" r="2" transform="matrix(0.999876 0.0157393 0.0157393 -0.999876 634.941 266.12)" fill="#D9D9D9" fill-opacity="0.11"/>
<circle opacity="0.8" cx="2" cy="2" r="2" transform="matrix(-0.850383 -0.526165 -0.526165 0.850383 746.664 336.646)" fill="#D9D9D9" fill-opacity="0.8"/>
<circle cx="2" cy="2" r="2" transform="matrix(-0.850383 -0.526165 -0.526165 0.850383 30.2148 608.853)" fill="#D9D9D9" fill-opacity="0.8"/>
<circle cx="1218.86" cy="556.654" r="2" transform="rotate(-148.253 1218.86 556.654)" fill="#D9D9D9" fill-opacity="0.5"/>
<circle cx="106.914" cy="241.106" r="2" transform="rotate(31.7467 106.914 241.106)" fill="#D9D9D9"/>
<circle cx="174.047" cy="594.394" r="1" transform="rotate(0.901833 174.047 594.394)" fill="#D9D9D9"/>
<circle cx="548.992" cy="586.519" r="0.5" transform="rotate(0.901833 548.992 586.519)" fill="#D9D9D9"/>
<circle opacity="0.8" cx="0.75" cy="0.75" r="0.75" transform="matrix(0.850383 0.526165 0.526165 -0.850383 847.578 351.211)" fill="#D9D9D9" fill-opacity="0.2"/>
<circle cx="0.75" cy="0.75" r="0.75" transform="matrix(0.850383 0.526165 0.526165 -0.850383 131.129 623.418)" fill="#D9D9D9" fill-opacity="0.2"/>
<circle cx="0.5" cy="0.5" r="0.5" transform="matrix(0.850383 0.526165 0.526165 -0.850383 470.117 642.164)" fill="#D9D9D9" fill-opacity="0.2"/>
<circle cx="1" cy="1" r="1" transform="matrix(0.850383 0.526165 0.526165 -0.850383 716.449 285.056)" fill="#D9D9D9" fill-opacity="0.8"/>
<circle cx="1" cy="1" r="1" transform="matrix(0.850383 0.526165 0.526165 -0.850383 0 557.263)" fill="#D9D9D9" fill-opacity="0.8"/>
<circle cx="1160.5" cy="558.145" r="2" transform="rotate(31.7467 1160.5 558.145)" fill="#D9D9D9" fill-opacity="0.5"/>
<circle opacity="0.9" cx="1" cy="1" r="1" transform="matrix(-0.850383 -0.526165 -0.526165 0.850383 569.691 179.629)" fill="#D9D9D9" fill-opacity="0.8"/>
<circle cx="1" cy="1" r="1" transform="matrix(-0.999876 -0.0157393 -0.0157393 0.999876 540.828 305.354)" fill="#D9D9D9" fill-opacity="0.8"/>
<circle opacity="0.8" cx="999.68" cy="469.732" r="1" transform="rotate(-148.253 999.68 469.732)" fill="#D9D9D9"/>
<circle cx="1302.09" cy="612.857" r="2" transform="rotate(31.7467 1302.09 612.857)" fill="#D9D9D9"/>
<circle cx="1" cy="1" r="1" transform="matrix(0.850383 0.526165 0.526165 -0.850383 632.602 167.023)" fill="#D9D9D9"/>
<circle cx="1" cy="1" r="1" transform="matrix(0.999876 0.0157393 0.0157393 -0.999876 588.379 262.276)" fill="#D9D9D9"/>
<circle opacity="0.9" cx="481.73" cy="112.936" r="2" transform="rotate(31.7467 481.73 112.936)" fill="#D9D9D9"/>
<circle opacity="0.9" cx="431.121" cy="293.193" r="2" transform="rotate(0.901833 431.121 293.193)" fill="#D9D9D9"/>
<circle opacity="0.8" cx="0.75" cy="0.75" r="0.75" transform="matrix(0.850383 0.526165 0.526165 -0.850383 898.316 422.809)" fill="#D9D9D9" fill-opacity="0.11"/>
<circle cx="149.375" cy="229.652" r="1" transform="rotate(31.7467 149.375 229.652)" fill="#D9D9D9"/>
<circle cx="205.613" cy="563.805" r="1" transform="rotate(0.901833 205.613 563.805)" fill="#D9D9D9"/>
<circle cx="608" cy="529.341" r="0.5" transform="rotate(0.901833 608 529.341)" fill="#D9D9D9"/>
<circle opacity="0.8" cx="0.75" cy="0.75" r="0.75" transform="matrix(0.850383 0.526165 0.526165 -0.850383 857.66 393.998)" fill="#D9D9D9" fill-opacity="0.4"/>
<circle cx="0.75" cy="0.75" r="0.75" transform="matrix(0.850383 0.526165 0.526165 -0.850383 141.211 666.204)" fill="#D9D9D9" fill-opacity="0.4"/>
<circle cx="0.5" cy="0.5" r="0.5" transform="matrix(0.850383 0.526165 0.526165 -0.850383 488.961 722.145)" fill="#D9D9D9" fill-opacity="0.4"/>
<circle cx="357.637" cy="65.3943" r="2" transform="rotate(31.7467 357.637 65.3943)" fill="#D9D9D9"/>
<circle cx="300.203" cy="316.001" r="2" transform="rotate(0.901833 300.203 316.001)" fill="#D9D9D9"/>
<circle opacity="0.8" cx="0.75" cy="0.75" r="0.75" transform="matrix(0.850383 0.526165 0.526165 -0.850383 800.379 332.973)" fill="#D9D9D9" fill-opacity="0.2"/>
<circle cx="0.75" cy="0.75" r="0.75" transform="matrix(0.850383 0.526165 0.526165 -0.850383 83.9297 605.18)" fill="#D9D9D9" fill-opacity="0.2"/>
<circle cx="0.5" cy="0.5" r="0.5" transform="matrix(0.850383 0.526165 0.526165 -0.850383 381.887 608.072)" fill="#D9D9D9" fill-opacity="0.2"/>
<circle opacity="0.8" cx="0.75" cy="0.75" r="0.75" transform="matrix(0.850383 0.526165 0.526165 -0.850383 767.176 356.648)" fill="#D9D9D9" fill-opacity="0.8"/>
<circle cx="0.75" cy="0.75" r="0.75" transform="matrix(0.850383 0.526165 0.526165 -0.850383 50.7266 628.855)" fill="#D9D9D9" fill-opacity="0.8"/>
<circle cx="0.5" cy="0.5" r="0.5" transform="matrix(0.850383 0.526165 0.526165 -0.850383 319.82 652.327)" fill="#D9D9D9" fill-opacity="0.8"/>
<circle cx="1247.21" cy="571.59" r="2" transform="rotate(31.7467 1247.21 571.59)" fill="#D9D9D9"/>
<circle opacity="0.9" cx="2" cy="2" r="2" transform="matrix(-0.850383 -0.526165 -0.526165 0.850383 518.949 108.031)" fill="#D9D9D9"/>
<circle opacity="0.9" cx="2" cy="2" r="2" transform="matrix(-0.999876 -0.0157393 -0.0157393 0.999876 460.555 269.9)" fill="#D9D9D9"/>
<circle opacity="0.8" cx="912.973" cy="456.288" r="1" transform="rotate(-148.253 912.973 456.288)" fill="#D9D9D9" fill-opacity="0.11"/>
<circle opacity="0.8" cx="809.226" cy="394.227" r="0.75" transform="rotate(-148.253 809.226 394.227)" fill="#D9D9D9" fill-opacity="0.8"/>
<circle cx="92.7764" cy="666.434" r="0.75" transform="rotate(-148.253 92.7764 666.434)" fill="#D9D9D9" fill-opacity="0.8"/>
<circle cx="398.713" cy="723.815" r="0.5" transform="rotate(-148.253 398.713 723.815)" fill="#D9D9D9" fill-opacity="0.8"/>
<circle cx="2" cy="2" r="2" transform="matrix(-0.850383 -0.526165 -0.526165 0.850383 1284.44 566.69)" fill="#D9D9D9"/>
<circle cx="220.629" cy="1.37655" r="1" transform="rotate(31.7467 220.629 1.37655)" fill="#D9D9D9"/>
<circle cx="149.746" cy="331.284" r="1" transform="rotate(0.901833 149.746 331.284)" fill="#D9D9D9"/>
<circle cx="1" cy="1" r="1" transform="matrix(0.850383 0.526165 0.526165 -0.850383 683.324 238.616)" fill="#D9D9D9"/>
<circle cx="1" cy="1" r="1" transform="matrix(0.999876 0.0157393 0.0157393 -0.999876 668.637 297.737)" fill="#D9D9D9"/>
</svg>
