<svg width="1090" height="390" viewBox="0 0 1090 390" fill="none" xmlns="http://www.w3.org/2000/svg">
<g clip-path="url(#clip0_2024_1471)">
<path d="M0 121.165C0 54.2475 54.2704 0 121.216 0H473.651H968.784C1035.73 0 1090 54.2475 1090 121.165V268.835C1090 335.752 1035.73 390 968.784 390H121.216C54.2704 390 0 335.752 0 268.835V121.165Z" fill="#424B77" fill-opacity="0.2"/>
<path d="M1089.53 121.165V268.835C1089.53 335.491 1035.47 389.527 968.783 389.527H121.215C54.5311 389.527 0.472656 335.491 0.472656 268.835V121.165C0.472656 54.5092 54.5311 0.473633 121.215 0.473633H473.65H968.783C1035.47 0.473633 1089.53 54.5092 1089.53 121.165Z" stroke="url(#paint0_linear_2024_1471)"/>
<path d="M805.186 163.846C804.823 166.996 803.712 169.681 801.853 171.903C799.994 174.125 797.469 175.821 794.277 176.992C791.084 178.163 787.287 178.749 782.882 178.749C779.205 178.749 775.832 178.325 772.761 177.477C769.73 176.629 767.104 175.356 764.882 173.66C762.7 171.964 761.003 169.863 759.791 167.359C758.579 164.815 757.972 161.846 757.972 158.454C757.972 155.061 758.579 152.093 759.791 149.548C761.003 147.004 762.7 144.883 764.882 143.187C767.104 141.45 769.73 140.158 772.761 139.31C775.832 138.421 779.205 137.977 782.882 137.977C787.287 137.977 791.084 138.583 794.277 139.794C797.509 141.006 800.054 142.743 801.913 145.004C803.772 147.226 804.863 149.932 805.186 153.123H797.186C796.66 151.426 795.772 149.972 794.519 148.761C793.307 147.508 791.731 146.56 789.792 145.913C787.852 145.267 785.549 144.944 782.882 144.944C779.569 144.944 776.66 145.469 774.155 146.519C771.65 147.529 769.711 149.044 768.336 151.063C766.962 153.042 766.276 155.505 766.276 158.454C766.276 161.362 766.962 163.805 768.336 165.784C769.711 167.764 771.65 169.278 774.155 170.328C776.66 171.338 779.569 171.843 782.882 171.843C785.549 171.843 787.832 171.52 789.731 170.873C791.671 170.227 793.246 169.298 794.459 168.086C795.711 166.875 796.621 165.461 797.186 163.846H805.186ZM829.779 178.688C825.98 178.688 822.627 178.083 819.718 176.871C816.849 175.659 814.607 173.902 812.99 171.6C811.374 169.257 810.566 166.39 810.566 162.997C810.566 159.605 811.374 156.738 812.99 154.395C814.607 152.012 816.849 150.215 819.718 149.003C822.627 147.791 825.98 147.185 829.779 147.185C833.577 147.185 836.89 147.791 839.719 149.003C842.587 150.215 844.83 152.012 846.446 154.395C848.063 156.738 848.87 159.605 848.87 162.997C848.87 166.39 848.063 169.257 846.446 171.6C844.83 173.902 842.587 175.659 839.719 176.871C836.89 178.083 833.577 178.688 829.779 178.688ZM829.779 172.63C831.88 172.63 833.759 172.267 835.415 171.54C837.112 170.772 838.446 169.681 839.416 168.268C840.385 166.814 840.87 165.057 840.87 162.997C840.87 160.938 840.385 159.181 839.416 157.727C838.446 156.232 837.132 155.102 835.476 154.334C833.82 153.566 831.92 153.183 829.779 153.183C827.677 153.183 825.779 153.566 824.082 154.334C822.385 155.102 821.031 156.212 820.021 157.666C819.051 159.12 818.566 160.897 818.566 162.997C818.566 165.057 819.051 166.814 820.021 168.268C820.991 169.681 822.324 170.772 824.021 171.54C825.718 172.267 827.638 172.63 829.779 172.63ZM855.302 135.735H863.181V177.961H855.302V135.735ZM888.908 178.688C885.109 178.688 881.756 178.083 878.847 176.871C875.977 175.659 873.735 173.902 872.119 171.6C870.503 169.257 869.695 166.39 869.695 162.997C869.695 159.605 870.503 156.738 872.119 154.395C873.735 152.012 875.977 150.215 878.847 149.003C881.756 147.791 885.109 147.185 888.908 147.185C892.705 147.185 896.019 147.791 898.848 149.003C901.716 150.215 903.959 152.012 905.575 154.395C907.191 156.738 907.999 159.605 907.999 162.997C907.999 166.39 907.191 169.257 905.575 171.6C903.959 173.902 901.716 175.659 898.848 176.871C896.019 178.083 892.705 178.688 888.908 178.688ZM888.908 172.63C891.008 172.63 892.887 172.267 894.544 171.54C896.241 170.772 897.575 169.681 898.545 168.268C899.514 166.814 899.999 165.057 899.999 162.997C899.999 160.938 899.514 159.181 898.545 157.727C897.575 156.232 896.261 155.102 894.605 154.334C892.948 153.566 891.049 153.183 888.908 153.183C886.806 153.183 884.908 153.566 883.211 154.334C881.514 155.102 880.159 156.212 879.15 157.666C878.18 159.12 877.695 160.897 877.695 162.997C877.695 165.057 878.18 166.814 879.15 168.268C880.12 169.681 881.453 170.772 883.15 171.54C884.847 172.267 886.766 172.63 888.908 172.63ZM913.824 147.852H921.703V177.961H913.824V147.852ZM933.279 154.334C931.016 154.334 929.056 154.778 927.4 155.667C925.743 156.515 924.41 157.565 923.4 158.817C922.389 160.07 921.683 161.281 921.278 162.452L921.218 159.12C921.258 158.636 921.419 157.928 921.703 157C921.986 156.031 922.41 155.001 922.975 153.91C923.541 152.779 924.289 151.709 925.218 150.699C926.147 149.649 927.278 148.801 928.612 148.155C929.945 147.508 931.501 147.185 933.279 147.185V154.334ZM756.821 237.643H765.003C765.165 239.016 765.791 240.268 766.882 241.399C768.013 242.489 769.488 243.357 771.306 244.004C773.124 244.61 775.165 244.913 777.428 244.913C779.488 244.913 781.185 244.69 782.519 244.246C783.852 243.802 784.842 243.176 785.489 242.368C786.135 241.561 786.458 240.591 786.458 239.46C786.458 238.37 786.054 237.541 785.246 236.976C784.438 236.37 783.166 235.886 781.428 235.522C779.69 235.118 777.408 234.715 774.579 234.311C772.356 233.988 770.256 233.543 768.276 232.978C766.296 232.372 764.538 231.604 763.003 230.676C761.508 229.747 760.316 228.616 759.427 227.283C758.578 225.91 758.154 224.295 758.154 222.437C758.154 220.134 758.801 218.115 760.094 216.378C761.427 214.641 763.386 213.289 765.973 212.319C768.559 211.35 771.73 210.865 775.488 210.865C781.145 210.865 785.489 212.077 788.519 214.5C791.59 216.883 793.084 220.175 793.004 224.375H785.125C784.963 221.993 783.953 220.275 782.094 219.226C780.276 218.176 777.973 217.65 775.185 217.65C772.599 217.65 770.458 218.034 768.761 218.802C767.104 219.569 766.276 220.881 766.276 222.739C766.276 223.466 766.477 224.113 766.882 224.678C767.286 225.203 767.973 225.667 768.943 226.071C769.912 226.476 771.226 226.859 772.882 227.223C774.538 227.586 776.599 227.95 779.064 228.313C781.367 228.636 783.448 229.081 785.307 229.646C787.205 230.171 788.822 230.877 790.155 231.766C791.529 232.614 792.58 233.705 793.307 235.038C794.034 236.371 794.398 238.006 794.398 239.945C794.398 242.327 793.772 244.408 792.519 246.185C791.307 247.922 789.408 249.275 786.822 250.244C784.276 251.213 780.963 251.698 776.882 251.698C773.973 251.698 771.408 251.395 769.185 250.789C766.962 250.143 765.044 249.294 763.427 248.245C761.811 247.195 760.498 246.044 759.488 244.791C758.477 243.539 757.75 242.288 757.306 241.035C756.901 239.783 756.74 238.653 756.821 237.643ZM798.358 220.74H821.753V226.859H798.358V220.74ZM806.116 212.501H813.995V250.85H806.116V212.501ZM824.032 220.74H832.395L845.426 249.638L838.638 250.85L824.032 220.74ZM860.881 220.74L840.032 262.966H831.85L840.759 246.367L852.457 220.74H860.881ZM866.074 208.624H873.953V250.85H866.074V208.624ZM909.377 240.854H917.014C916.69 242.913 915.822 244.751 914.408 246.367C913.034 247.982 911.155 249.255 908.771 250.183C906.387 251.112 903.477 251.577 900.044 251.577C896.205 251.577 892.81 250.971 889.861 249.759C886.912 248.507 884.608 246.71 882.952 244.367C881.295 242.025 880.467 239.198 880.467 235.886C880.467 232.574 881.275 229.747 882.892 227.404C884.507 225.022 886.75 223.204 889.619 221.952C892.528 220.7 895.922 220.074 899.801 220.074C903.761 220.074 907.053 220.7 909.68 221.952C912.306 223.204 914.246 225.102 915.499 227.647C916.791 230.15 917.337 233.361 917.135 237.279H888.407C888.609 238.814 889.174 240.207 890.104 241.459C891.074 242.712 892.366 243.701 893.983 244.428C895.639 245.155 897.598 245.518 899.862 245.518C902.367 245.518 904.447 245.094 906.104 244.246C907.802 243.357 908.892 242.227 909.377 240.854ZM899.438 226.071C896.528 226.071 894.165 226.718 892.346 228.01C890.528 229.262 889.356 230.817 888.831 232.675H909.317C909.114 230.656 908.144 229.06 906.407 227.889C904.71 226.677 902.387 226.071 899.438 226.071ZM921.786 240.854H929.059C929.503 242.227 930.412 243.357 931.786 244.246C933.2 245.094 935.038 245.518 937.302 245.518C938.837 245.518 940.029 245.377 940.877 245.094C941.726 244.811 942.311 244.408 942.635 243.883C942.958 243.318 943.12 242.691 943.12 242.005C943.12 241.157 942.857 240.51 942.332 240.066C941.806 239.581 940.999 239.198 939.908 238.915C938.817 238.632 937.423 238.37 935.726 238.127C934.029 237.844 932.392 237.502 930.816 237.097C929.241 236.693 927.847 236.169 926.635 235.522C925.422 234.836 924.453 233.988 923.725 232.978C923.038 231.928 922.695 230.656 922.695 229.161C922.695 227.707 923.038 226.415 923.725 225.284C924.453 224.153 925.442 223.204 926.695 222.437C927.988 221.669 929.483 221.084 931.18 220.68C932.917 220.275 934.776 220.074 936.756 220.074C939.746 220.074 942.231 220.518 944.211 221.407C946.19 222.255 947.665 223.466 948.631 225.042C949.644 226.576 950.146 228.354 950.146 230.373H943.181C942.857 228.878 942.211 227.808 941.241 227.162C940.271 226.476 938.776 226.132 936.756 226.132C934.776 226.132 933.281 226.435 932.271 227.041C931.261 227.647 930.756 228.475 930.756 229.525C930.756 230.373 931.059 231.039 931.665 231.524C932.311 231.968 933.241 232.331 934.453 232.614C935.705 232.897 937.261 233.2 939.12 233.523C940.696 233.846 942.19 234.209 943.605 234.614C945.059 235.018 946.352 235.542 947.485 236.189C948.612 236.795 949.502 237.623 950.146 238.673C950.837 239.683 951.178 240.975 951.178 242.55C951.178 244.489 950.619 246.124 949.483 247.457C948.394 248.79 946.817 249.82 944.756 250.547C942.696 251.233 940.231 251.577 937.362 251.577C934.817 251.577 932.614 251.315 930.756 250.789C928.938 250.224 927.422 249.517 926.21 248.669C924.998 247.78 924.048 246.851 923.361 245.882C922.715 244.872 922.271 243.923 922.028 243.035C921.786 242.146 921.704 241.419 921.786 240.854Z" fill="white"/>
<path d="M590.037 246.751C633.416 246.751 668.582 211.6 668.582 168.239C668.582 124.878 633.416 89.7275 590.037 89.7275C546.658 89.7275 511.492 124.878 511.492 168.239C511.492 211.6 546.658 246.751 590.037 246.751Z" fill="#F8F8F8"/>
<path d="M557.705 293.969H559.069C559.107 294.499 559.265 294.972 559.542 295.389C559.821 295.805 560.2 296.134 560.679 296.373C561.171 296.614 561.746 296.733 562.402 296.733C562.971 296.733 563.444 296.651 563.823 296.487C564.215 296.311 564.505 296.07 564.694 295.767C564.897 295.464 564.997 295.111 564.997 294.707C564.997 294.291 564.897 293.956 564.694 293.704C564.492 293.452 564.202 293.237 563.823 293.06C563.444 292.884 562.996 292.714 562.478 292.549C561.986 292.397 561.488 292.221 560.982 292.019C560.477 291.817 560.004 291.571 559.561 291.28C559.132 290.991 558.785 290.643 558.52 290.239C558.254 289.823 558.122 289.325 558.122 288.743C558.122 288.176 558.273 287.645 558.576 287.153C558.893 286.649 559.347 286.244 559.94 285.942C560.546 285.626 561.273 285.468 562.118 285.468C563.444 285.468 564.436 285.828 565.092 286.547C565.749 287.267 566.064 288.22 566.039 289.406H564.675C564.651 288.511 564.398 287.867 563.918 287.475C563.438 287.084 562.813 286.888 562.042 286.888C561.399 286.888 560.837 287.04 560.357 287.342C559.878 287.633 559.637 288.094 559.637 288.725C559.637 289.003 559.688 289.249 559.789 289.463C559.902 289.665 560.079 289.855 560.319 290.031C560.572 290.208 560.906 290.385 561.323 290.561C561.753 290.726 562.276 290.908 562.895 291.11C563.299 291.237 563.709 291.388 564.126 291.564C564.556 291.741 564.947 291.962 565.3 292.227C565.667 292.492 565.957 292.833 566.171 293.249C566.399 293.653 566.512 294.165 566.512 294.783C566.512 295.376 566.367 295.932 566.077 296.449C565.799 296.954 565.357 297.364 564.751 297.679C564.158 297.996 563.387 298.153 562.44 298.153C561.632 298.153 560.938 298.046 560.357 297.831C559.789 297.604 559.322 297.314 558.955 296.96C558.59 296.607 558.306 296.241 558.103 295.862C557.914 295.471 557.788 295.105 557.724 294.764C557.662 294.423 557.655 294.158 557.705 293.969ZM575.207 294.915H576.627C576.526 295.534 576.299 296.089 575.945 296.581C575.604 297.061 575.15 297.447 574.582 297.736C574.026 298.014 573.382 298.153 572.65 298.153C571.765 298.153 570.97 297.944 570.263 297.528C569.556 297.099 568.994 296.519 568.578 295.786C568.173 295.042 567.972 294.196 567.972 293.249C567.972 292.303 568.167 291.457 568.559 290.712C568.962 289.968 569.511 289.381 570.207 288.952C570.901 288.523 571.684 288.308 572.555 288.308C573.477 288.308 574.253 288.516 574.885 288.933C575.529 289.337 576.002 289.936 576.305 290.731C576.621 291.514 576.747 292.48 576.684 293.628H569.487C569.549 294.247 569.72 294.789 569.998 295.256C570.276 295.724 570.642 296.089 571.097 296.354C571.551 296.607 572.068 296.733 572.65 296.733C573.294 296.733 573.836 296.569 574.279 296.241C574.733 295.9 575.042 295.459 575.207 294.915ZM572.612 289.728C571.829 289.728 571.173 289.955 570.642 290.409C570.112 290.864 569.758 291.483 569.582 292.265H575.131C575.08 291.432 574.809 290.801 574.317 290.372C573.836 289.943 573.268 289.728 572.612 289.728ZM582.217 298.153C581.472 298.153 580.784 297.944 580.153 297.528C579.534 297.099 579.036 296.519 578.657 295.786C578.29 295.042 578.107 294.196 578.107 293.249C578.107 292.303 578.297 291.457 578.676 290.712C579.054 289.968 579.566 289.381 580.21 288.952C580.866 288.523 581.598 288.308 582.407 288.308C583.29 288.308 583.96 288.535 584.414 288.99C584.881 289.432 585.197 290.025 585.361 290.769C585.538 291.514 585.627 292.341 585.627 293.249C585.627 293.729 585.576 294.253 585.475 294.821C585.374 295.376 585.197 295.913 584.945 296.43C584.704 296.935 584.363 297.352 583.922 297.679C583.48 297.996 582.912 298.153 582.217 298.153ZM582.596 296.714C583.24 296.714 583.77 296.557 584.187 296.241C584.616 295.925 584.932 295.509 585.134 294.991C585.336 294.461 585.437 293.881 585.437 293.249C585.437 292.555 585.329 291.95 585.115 291.432C584.913 290.902 584.597 290.492 584.168 290.201C583.752 289.898 583.227 289.747 582.596 289.747C581.649 289.747 580.916 290.082 580.399 290.75C579.881 291.407 579.623 292.24 579.623 293.249C579.623 293.919 579.749 294.518 580.001 295.048C580.267 295.566 580.62 295.976 581.062 296.278C581.517 296.569 582.028 296.714 582.596 296.714ZM585.437 288.497H586.952V297.963H585.57C585.57 297.963 585.557 297.85 585.532 297.623C585.519 297.395 585.5 297.13 585.475 296.827C585.45 296.525 585.437 296.273 585.437 296.07V288.497ZM592.848 293.969H594.212C594.25 294.499 594.407 294.972 594.686 295.389C594.963 295.805 595.342 296.134 595.822 296.373C596.314 296.614 596.888 296.733 597.546 296.733C598.114 296.733 598.587 296.651 598.966 296.487C599.357 296.311 599.648 296.07 599.837 295.767C600.039 295.464 600.14 295.111 600.14 294.707C600.14 294.291 600.039 293.956 599.837 293.704C599.635 293.452 599.345 293.237 598.966 293.06C598.587 292.884 598.138 292.714 597.621 292.549C597.129 292.397 596.63 292.221 596.125 292.019C595.619 291.817 595.146 291.571 594.705 291.28C594.275 290.991 593.928 290.643 593.663 290.239C593.398 289.823 593.265 289.325 593.265 288.743C593.265 288.176 593.417 287.645 593.72 287.153C594.035 286.649 594.49 286.244 595.083 285.942C595.69 285.626 596.415 285.468 597.262 285.468C598.587 285.468 599.578 285.828 600.235 286.547C600.891 287.267 601.207 288.22 601.182 289.406H599.818C599.793 288.511 599.54 287.867 599.061 287.475C598.581 287.084 597.956 286.888 597.186 286.888C596.542 286.888 595.979 287.04 595.5 287.342C595.02 287.633 594.78 288.094 594.78 288.725C594.78 289.003 594.831 289.249 594.932 289.463C595.046 289.665 595.222 289.855 595.462 290.031C595.714 290.208 596.049 290.385 596.466 290.561C596.895 290.726 597.419 290.908 598.038 291.11C598.441 291.237 598.852 291.388 599.269 291.564C599.698 291.741 600.089 291.962 600.443 292.227C600.809 292.492 601.1 292.833 601.315 293.249C601.542 293.653 601.656 294.165 601.656 294.783C601.656 295.376 601.51 295.932 601.22 296.449C600.942 296.954 600.5 297.364 599.894 297.679C599.3 297.996 598.53 298.153 597.583 298.153C596.775 298.153 596.081 298.046 595.5 297.831C594.932 297.604 594.464 297.314 594.099 296.96C593.732 296.607 593.448 296.241 593.246 295.862C593.057 295.471 592.93 295.105 592.867 294.764C592.804 294.423 592.797 294.158 592.848 293.969ZM607.224 298.153C606.479 298.153 605.791 297.944 605.159 297.528C604.541 297.099 604.042 296.519 603.663 295.786C603.297 295.042 603.114 294.196 603.114 293.249C603.114 292.303 603.303 291.457 603.682 290.712C604.061 289.968 604.572 289.381 605.216 288.952C605.873 288.523 606.606 288.308 607.413 288.308C608.297 288.308 608.966 288.535 609.421 288.99C609.888 289.432 610.204 290.025 610.368 290.769C610.545 291.514 610.633 292.341 610.633 293.249C610.633 293.729 610.583 294.253 610.482 294.821C610.38 295.376 610.204 295.913 609.951 296.43C609.712 296.935 609.371 297.352 608.929 297.679C608.486 297.996 607.918 298.153 607.224 298.153ZM607.603 296.714C608.247 296.714 608.777 296.557 609.194 296.241C609.623 295.925 609.939 295.509 610.141 294.991C610.342 294.461 610.444 293.881 610.444 293.249C610.444 292.555 610.337 291.95 610.122 291.432C609.92 290.902 609.604 290.492 609.175 290.201C608.758 289.898 608.234 289.747 607.603 289.747C606.656 289.747 605.924 290.082 605.406 290.75C604.888 291.407 604.629 292.24 604.629 293.249C604.629 293.919 604.755 294.518 605.008 295.048C605.273 295.566 605.626 295.976 606.069 296.278C606.523 296.569 607.035 296.714 607.603 296.714ZM610.444 288.497H611.959V297.963H610.576C610.576 297.963 610.564 297.85 610.538 297.623C610.526 297.395 610.507 297.13 610.482 296.827C610.456 296.525 610.444 296.273 610.444 296.07V288.497ZM614.617 284.711H616.132V297.963H614.617V284.711ZM617.759 288.497H623.328V289.917H617.759V288.497ZM619.786 286.036H621.301V297.963H619.786V286.036Z" fill="#CECECE"/>
<path d="M561.357 261.222H562.569V272.771H561.357V261.222ZM557.493 261.222H558.705V272.771H557.493V261.222ZM565.183 268.492V269.742H554.766V268.492H565.183ZM565.183 264.251V265.501H554.766V264.251H565.183ZM576.745 260.844V262.264H569.547V266.315H575.438V267.735H569.547V273.149H568.032V260.844H576.745ZM581.866 266.921C581.222 266.921 580.629 266.82 580.086 266.618C579.555 266.415 579.133 266.1 578.817 265.671C578.501 265.229 578.343 264.668 578.343 263.986C578.343 263.355 578.489 262.794 578.779 262.301C579.069 261.796 579.48 261.398 580.01 261.109C580.54 260.806 581.16 260.654 581.866 260.654C582.586 260.654 583.205 260.806 583.722 261.109C584.252 261.398 584.663 261.796 584.953 262.301C585.244 262.794 585.389 263.355 585.389 263.986C585.389 264.668 585.232 265.229 584.915 265.671C584.6 266.1 584.177 266.415 583.646 266.618C583.116 266.82 582.523 266.921 581.866 266.921ZM581.866 265.974C582.283 265.974 582.637 265.885 582.927 265.709C583.23 265.532 583.464 265.298 583.627 265.009C583.792 264.706 583.874 264.365 583.874 263.986C583.874 263.608 583.792 263.273 583.627 262.983C583.464 262.692 583.23 262.472 582.927 262.32C582.637 262.156 582.283 262.074 581.866 262.074C581.463 262.074 581.108 262.156 580.805 262.32C580.502 262.472 580.269 262.692 580.105 262.983C579.941 263.273 579.858 263.608 579.858 263.986C579.858 264.365 579.941 264.706 580.105 265.009C580.269 265.298 580.502 265.532 580.805 265.709C581.108 265.885 581.463 265.974 581.866 265.974ZM581.866 273.339C581.033 273.339 580.32 273.181 579.726 272.865C579.133 272.537 578.678 272.108 578.362 271.578C578.047 271.035 577.889 270.436 577.889 269.78C577.889 269.035 578.066 268.416 578.419 267.924C578.773 267.419 579.252 267.047 579.858 266.807C580.464 266.554 581.134 266.429 581.866 266.429C582.611 266.429 583.281 266.554 583.874 266.807C584.48 267.047 584.96 267.419 585.313 267.924C585.667 268.416 585.843 269.035 585.843 269.78C585.843 270.436 585.686 271.035 585.37 271.578C585.055 272.108 584.6 272.537 584.006 272.865C583.426 273.181 582.713 273.339 581.866 273.339ZM581.866 271.919C582.41 271.919 582.864 271.83 583.23 271.654C583.596 271.464 583.868 271.205 584.044 270.878C584.233 270.549 584.328 270.183 584.328 269.78C584.328 269.337 584.233 268.952 584.044 268.625C583.868 268.284 583.596 268.019 583.23 267.83C582.864 267.64 582.41 267.546 581.866 267.546C581.323 267.546 580.869 267.64 580.502 267.83C580.137 268.019 579.858 268.284 579.669 268.625C579.493 268.952 579.404 269.337 579.404 269.78C579.404 270.183 579.493 270.549 579.669 270.878C579.858 271.205 580.137 271.464 580.502 271.654C580.869 271.83 581.323 271.919 581.866 271.919ZM596.739 260.844V262.264H589.541V266.315H595.432V267.735H589.541V273.149H588.026V260.844H596.739ZM601.861 266.921C601.217 266.921 600.623 266.82 600.081 266.618C599.55 266.415 599.127 266.1 598.812 265.671C598.495 265.229 598.338 264.668 598.338 263.986C598.338 263.355 598.483 262.794 598.774 262.301C599.064 261.796 599.475 261.398 600.005 261.109C600.535 260.806 601.154 260.654 601.861 260.654C602.581 260.654 603.199 260.806 603.717 261.109C604.247 261.398 604.657 261.796 604.948 262.301C605.238 262.794 605.384 263.355 605.384 263.986C605.384 264.668 605.226 265.229 604.91 265.671C604.594 266.1 604.172 266.415 603.641 266.618C603.111 266.82 602.517 266.921 601.861 266.921ZM601.861 265.974C602.278 265.974 602.631 265.885 602.922 265.709C603.225 265.532 603.458 265.298 603.622 265.009C603.786 264.706 603.869 264.365 603.869 263.986C603.869 263.608 603.786 263.273 603.622 262.983C603.458 262.692 603.225 262.472 602.922 262.32C602.631 262.156 602.278 262.074 601.861 262.074C601.457 262.074 601.103 262.156 600.8 262.32C600.497 262.472 600.263 262.692 600.1 262.983C599.935 263.273 599.853 263.608 599.853 263.986C599.853 264.365 599.935 264.706 600.1 265.009C600.263 265.298 600.497 265.532 600.8 265.709C601.103 265.885 601.457 265.974 601.861 265.974ZM601.861 273.339C601.028 273.339 600.314 273.181 599.721 272.865C599.127 272.537 598.672 272.108 598.357 271.578C598.041 271.035 597.884 270.436 597.884 269.78C597.884 269.035 598.06 268.416 598.414 267.924C598.767 267.419 599.247 267.047 599.853 266.807C600.459 266.554 601.128 266.429 601.861 266.429C602.605 266.429 603.275 266.554 603.869 266.807C604.475 267.047 604.954 267.419 605.308 267.924C605.661 268.416 605.838 269.035 605.838 269.78C605.838 270.436 605.68 271.035 605.365 271.578C605.049 272.108 604.594 272.537 604.001 272.865C603.42 273.181 602.707 273.339 601.861 273.339ZM601.861 271.919C602.404 271.919 602.858 271.83 603.225 271.654C603.59 271.464 603.862 271.205 604.039 270.878C604.229 270.549 604.323 270.183 604.323 269.78C604.323 269.337 604.229 268.952 604.039 268.625C603.862 268.284 603.59 268.019 603.225 267.83C602.858 267.64 602.404 267.546 601.861 267.546C601.317 267.546 600.863 267.64 600.497 267.83C600.131 268.019 599.853 268.284 599.664 268.625C599.487 268.952 599.399 269.337 599.399 269.78C599.399 270.183 599.487 270.549 599.664 270.878C599.853 271.205 600.131 271.464 600.497 271.654C600.863 271.83 601.317 271.919 601.861 271.919ZM616.733 260.844V262.264H609.535V266.315H615.426V267.735H609.535V273.149H608.02V260.844H616.733ZM621.855 266.921C621.211 266.921 620.617 266.82 620.075 266.618C619.544 266.415 619.121 266.1 618.806 265.671C618.49 265.229 618.332 264.668 618.332 263.986C618.332 263.355 618.477 262.794 618.768 262.301C619.059 261.796 619.469 261.398 619.999 261.109C620.529 260.806 621.148 260.654 621.855 260.654C622.575 260.654 623.193 260.806 623.711 261.109C624.242 261.398 624.652 261.796 624.942 262.301C625.233 262.794 625.378 263.355 625.378 263.986C625.378 264.668 625.22 265.229 624.904 265.671C624.589 266.1 624.166 266.415 623.635 266.618C623.105 266.82 622.511 266.921 621.855 266.921ZM621.855 265.974C622.272 265.974 622.625 265.885 622.916 265.709C623.219 265.532 623.453 265.298 623.616 265.009C623.78 264.706 623.863 264.365 623.863 263.986C623.863 263.608 623.78 263.273 623.616 262.983C623.453 262.692 623.219 262.472 622.916 262.32C622.625 262.156 622.272 262.074 621.855 262.074C621.451 262.074 621.097 262.156 620.794 262.32C620.491 262.472 620.257 262.692 620.094 262.983C619.93 263.273 619.847 263.608 619.847 263.986C619.847 264.365 619.93 264.706 620.094 265.009C620.257 265.298 620.491 265.532 620.794 265.709C621.097 265.885 621.451 265.974 621.855 265.974ZM621.855 273.339C621.022 273.339 620.309 273.181 619.715 272.865C619.121 272.537 618.667 272.108 618.351 271.578C618.036 271.035 617.878 270.436 617.878 269.78C617.878 269.035 618.055 268.416 618.408 267.924C618.761 267.419 619.241 267.047 619.847 266.807C620.454 266.554 621.123 266.429 621.855 266.429C622.6 266.429 623.269 266.554 623.863 266.807C624.469 267.047 624.949 267.419 625.302 267.924C625.655 268.416 625.832 269.035 625.832 269.78C625.832 270.436 625.674 271.035 625.359 271.578C625.044 272.108 624.589 272.537 623.995 272.865C623.415 273.181 622.701 273.339 621.855 273.339ZM621.855 271.919C622.398 271.919 622.852 271.83 623.219 271.654C623.585 271.464 623.856 271.205 624.033 270.878C624.223 270.549 624.317 270.183 624.317 269.78C624.317 269.337 624.223 268.952 624.033 268.625C623.856 268.284 623.585 268.019 623.219 267.83C622.852 267.64 622.398 267.546 621.855 267.546C621.312 267.546 620.858 267.64 620.491 267.83C620.125 268.019 619.847 268.284 619.658 268.625C619.481 268.952 619.393 269.337 619.393 269.78C619.393 270.183 619.481 270.549 619.658 270.878C619.847 271.205 620.125 271.464 620.491 271.654C620.858 271.83 621.312 271.919 621.855 271.919Z" fill="#A4A4A4"/>
<g filter="url(#filter0_d_2024_1471)">
<path d="M449.881 246.751C493.26 246.751 528.426 211.6 528.426 168.239C528.426 124.878 493.26 89.7275 449.881 89.7275C406.502 89.7275 371.336 124.878 371.336 168.239C371.336 211.6 406.502 246.751 449.881 246.751Z" fill="#F6D1D1"/>
</g>
<path d="M413.137 285.658H422.986V287.078H413.137V285.658ZM417.304 286.927H418.819V297.964H417.304V286.927ZM429.5 294.916H430.92C430.82 295.535 430.593 296.09 430.239 296.582C429.898 297.062 429.443 297.447 428.875 297.737C428.32 298.015 427.676 298.153 426.943 298.153C426.06 298.153 425.264 297.945 424.557 297.529C423.85 297.1 423.288 296.519 422.871 295.787C422.468 295.043 422.265 294.197 422.265 293.25C422.265 292.303 422.461 291.458 422.852 290.713C423.256 289.969 423.806 289.382 424.5 288.952C425.195 288.524 425.977 288.309 426.848 288.309C427.771 288.309 428.547 288.517 429.178 288.933C429.822 289.338 430.295 289.937 430.598 290.732C430.915 291.515 431.041 292.48 430.977 293.629H423.78C423.844 294.248 424.014 294.79 424.291 295.257C424.57 295.724 424.935 296.09 425.39 296.355C425.845 296.608 426.363 296.733 426.943 296.733C427.587 296.733 428.131 296.57 428.572 296.241C429.026 295.9 429.336 295.459 429.5 294.916ZM426.905 289.729C426.123 289.729 425.466 289.956 424.935 290.41C424.405 290.865 424.052 291.484 423.875 292.265H429.424C429.374 291.432 429.102 290.802 428.61 290.372C428.131 289.943 427.562 289.729 426.905 289.729ZM436.511 298.153C435.766 298.153 435.078 297.945 434.446 297.529C433.828 297.1 433.329 296.519 432.95 295.787C432.584 295.043 432.401 294.197 432.401 293.25C432.401 292.303 432.59 291.458 432.969 290.713C433.348 289.969 433.859 289.382 434.503 288.952C435.16 288.524 435.892 288.309 436.7 288.309C437.585 288.309 438.253 288.536 438.708 288.99C439.175 289.432 439.491 290.026 439.655 290.77C439.832 291.515 439.92 292.341 439.92 293.25C439.92 293.73 439.87 294.253 439.768 294.821C439.668 295.377 439.491 295.914 439.238 296.431C438.998 296.936 438.657 297.353 438.215 297.68C437.774 297.996 437.206 298.153 436.511 298.153ZM436.889 296.715C437.533 296.715 438.064 296.557 438.48 296.241C438.91 295.926 439.226 295.509 439.427 294.992C439.63 294.462 439.73 293.881 439.73 293.25C439.73 292.556 439.623 291.95 439.408 291.432C439.207 290.902 438.891 290.492 438.461 290.202C438.045 289.899 437.521 289.748 436.889 289.748C435.942 289.748 435.21 290.083 434.692 290.751C434.175 291.408 433.916 292.241 433.916 293.25C433.916 293.919 434.043 294.518 434.295 295.048C434.56 295.566 434.914 295.976 435.355 296.279C435.81 296.57 436.321 296.715 436.889 296.715ZM439.73 288.498H441.246V297.964H439.863C439.863 297.964 439.851 297.85 439.825 297.623C439.813 297.396 439.794 297.131 439.768 296.828C439.744 296.525 439.73 296.273 439.73 296.071V288.498ZM447.975 297.964V285.658H453.411C454.27 285.658 455.002 285.791 455.608 286.056C456.214 286.309 456.675 286.694 456.991 287.211C457.319 287.728 457.483 288.379 457.483 289.161C457.483 289.691 457.395 290.145 457.218 290.524C457.054 290.902 456.82 291.224 456.517 291.489C456.214 291.742 455.854 291.938 455.437 292.076C455.034 292.215 454.592 292.303 454.112 292.341L454.055 292.247C454.724 292.272 455.299 292.354 455.778 292.493C456.258 292.632 456.631 292.885 456.896 293.25C457.161 293.616 457.294 294.165 457.294 294.897V297.964H455.778V294.897C455.778 294.393 455.69 294.002 455.513 293.723C455.349 293.434 455.065 293.231 454.661 293.117C454.27 292.992 453.727 292.928 453.032 292.928H449.49V297.964H447.975ZM449.49 291.508H453.411C454.27 291.508 454.907 291.294 455.324 290.865C455.754 290.423 455.968 289.855 455.968 289.161C455.968 288.492 455.754 287.981 455.324 287.627C454.907 287.262 454.27 287.078 453.411 287.078H449.49V291.508ZM463.953 298.153C463.145 298.153 462.387 297.958 461.68 297.566C460.974 297.175 460.399 296.614 459.957 295.881C459.528 295.137 459.313 294.26 459.313 293.25C459.313 292.241 459.528 291.37 459.957 290.637C460.399 289.893 460.974 289.319 461.68 288.915C462.387 288.511 463.145 288.309 463.953 288.309C464.762 288.309 465.513 288.511 466.207 288.915C466.914 289.319 467.482 289.893 467.911 290.637C468.341 291.37 468.555 292.241 468.555 293.25C468.555 294.26 468.341 295.137 467.911 295.881C467.482 296.614 466.914 297.175 466.207 297.566C465.513 297.958 464.762 298.153 463.953 298.153ZM463.953 296.733C464.483 296.733 464.982 296.601 465.449 296.336C465.917 296.071 466.296 295.68 466.586 295.162C466.889 294.632 467.04 293.995 467.04 293.25C467.04 292.506 466.889 291.875 466.586 291.357C466.296 290.827 465.917 290.423 465.449 290.145C464.982 289.868 464.483 289.729 463.953 289.729C463.423 289.729 462.918 289.868 462.438 290.145C461.971 290.41 461.585 290.808 461.282 291.338C460.979 291.856 460.828 292.493 460.828 293.25C460.828 293.995 460.974 294.632 461.263 295.162C461.566 295.68 461.958 296.071 462.438 296.336C462.918 296.601 463.423 296.733 463.953 296.733ZM470.024 294.916H471.426C471.464 295.459 471.665 295.9 472.032 296.241C472.411 296.582 472.953 296.752 473.661 296.752C474.09 296.752 474.424 296.696 474.664 296.582C474.916 296.468 475.1 296.317 475.214 296.128C475.327 295.926 475.384 295.705 475.384 295.465C475.384 295.175 475.308 294.948 475.157 294.783C475.018 294.607 474.822 294.462 474.57 294.348C474.329 294.234 474.052 294.127 473.736 294.026C473.37 293.888 472.991 293.742 472.6 293.591C472.221 293.427 471.861 293.238 471.52 293.023C471.192 292.796 470.927 292.525 470.725 292.209C470.522 291.881 470.422 291.489 470.422 291.035C470.422 290.656 470.498 290.303 470.649 289.975C470.801 289.634 471.015 289.344 471.293 289.104C471.583 288.852 471.918 288.656 472.297 288.517C472.688 288.379 473.117 288.309 473.585 288.309C474.216 288.309 474.746 288.436 475.176 288.687C475.617 288.94 475.952 289.3 476.18 289.766C476.419 290.221 476.545 290.751 476.558 291.357H475.252C475.163 290.789 474.98 290.379 474.702 290.126C474.437 289.861 474.052 289.729 473.547 289.729C473.029 289.729 472.631 289.842 472.354 290.069C472.075 290.297 471.937 290.599 471.937 290.978C471.937 291.256 472.037 291.489 472.24 291.679C472.442 291.856 472.7 292.019 473.017 292.171C473.344 292.31 473.692 292.455 474.058 292.606C474.424 292.758 474.778 292.909 475.119 293.061C475.46 293.212 475.763 293.389 476.028 293.591C476.293 293.793 476.502 294.045 476.653 294.348C476.817 294.639 476.899 295.005 476.899 295.446C476.899 295.976 476.772 296.449 476.521 296.866C476.28 297.27 475.92 297.585 475.441 297.813C474.973 298.04 474.399 298.153 473.717 298.153C473.098 298.153 472.568 298.078 472.126 297.926C471.697 297.762 471.337 297.554 471.047 297.301C470.756 297.036 470.529 296.759 470.365 296.468C470.214 296.179 470.112 295.895 470.062 295.616C470.011 295.339 469.999 295.105 470.024 294.916ZM485.544 294.916H486.964C486.863 295.535 486.635 296.09 486.282 296.582C485.941 297.062 485.487 297.447 484.919 297.737C484.363 298.015 483.719 298.153 482.987 298.153C482.103 298.153 481.308 297.945 480.6 297.529C479.893 297.1 479.331 296.519 478.915 295.787C478.51 295.043 478.308 294.197 478.308 293.25C478.308 292.303 478.505 291.458 478.896 290.713C479.3 289.969 479.849 289.382 480.543 288.952C481.238 288.524 482.021 288.309 482.892 288.309C483.813 288.309 484.59 288.517 485.222 288.933C485.866 289.338 486.339 289.937 486.642 290.732C486.957 291.515 487.084 292.48 487.021 293.629H479.824C479.887 294.248 480.058 294.79 480.335 295.257C480.613 295.724 480.979 296.09 481.434 296.355C481.888 296.608 482.406 296.733 482.987 296.733C483.631 296.733 484.173 296.57 484.616 296.241C485.07 295.9 485.38 295.459 485.544 294.916ZM482.949 289.729C482.166 289.729 481.509 289.956 480.979 290.41C480.449 290.865 480.095 291.484 479.918 292.265H485.468C485.418 291.432 485.146 290.802 484.653 290.372C484.173 289.943 483.605 289.729 482.949 289.729Z" fill="#CECECE"/>
<path d="M421.931 261.222H423.143V272.771H421.931V261.222ZM418.067 261.222H419.279V272.771H418.067V261.222ZM425.757 268.492V269.742H415.34V268.492H425.757ZM425.757 264.252V265.501H415.34V264.252H425.757ZM437.318 260.844V262.264H430.121V266.315H436.011V267.735H430.121V273.15H428.605V260.844H437.318ZM442.933 265.198C443.614 265.198 444.233 265.368 444.789 265.709C445.357 266.037 445.805 266.51 446.134 267.129C446.474 267.735 446.638 268.454 446.626 269.287C446.614 270.12 446.418 270.84 446.039 271.446C445.672 272.052 445.18 272.518 444.561 272.847C443.955 273.174 443.28 273.339 442.535 273.339C441.803 273.339 441.127 273.174 440.508 272.847C439.902 272.518 439.422 272.057 439.069 271.465C438.716 270.859 438.545 270.139 438.558 269.306C438.57 269.016 438.608 268.701 438.671 268.36C438.735 268.019 438.848 267.653 439.012 267.262C439.038 267.186 439.113 267.016 439.239 266.751C439.365 266.485 439.517 266.157 439.694 265.766C439.883 265.374 440.079 264.958 440.281 264.517C440.496 264.075 440.704 263.639 440.906 263.21C441.108 262.768 441.292 262.371 441.455 262.018C441.632 261.663 441.771 261.38 441.872 261.166C441.973 260.951 442.024 260.844 442.024 260.844H443.652L439.826 268.53L439.277 269.022C439.555 268.454 439.826 267.937 440.092 267.47C440.357 266.99 440.629 266.586 440.906 266.258C441.197 265.918 441.506 265.658 441.834 265.482C442.163 265.293 442.528 265.198 442.933 265.198ZM442.535 271.881C443.217 271.881 443.811 271.66 444.315 271.218C444.833 270.764 445.098 270.114 445.111 269.269C445.123 268.448 444.89 267.811 444.41 267.356C443.93 266.889 443.343 266.656 442.649 266.656C441.879 266.656 441.259 266.914 440.792 267.432C440.326 267.937 440.085 268.555 440.073 269.287C440.06 270.12 440.293 270.764 440.773 271.218C441.266 271.66 441.853 271.881 442.535 271.881ZM452.837 260.844C454.074 260.844 455.11 261.008 455.944 261.336C456.789 261.651 457.464 262.093 457.97 262.661C458.475 263.229 458.841 263.879 459.069 264.611C459.296 265.343 459.41 266.119 459.41 266.94C459.41 267.76 459.289 268.542 459.05 269.287C458.809 270.031 458.425 270.694 457.894 271.275C457.376 271.856 456.701 272.317 455.868 272.657C455.034 272.985 454.024 273.15 452.837 273.15H448.841V260.844H452.837ZM450.356 271.73H452.837C453.835 271.73 454.656 271.591 455.3 271.313C455.956 271.035 456.474 270.669 456.853 270.215C457.231 269.747 457.497 269.231 457.648 268.663C457.812 268.095 457.894 267.52 457.894 266.94C457.894 266.359 457.812 265.791 457.648 265.236C457.497 264.68 457.231 264.181 456.853 263.74C456.474 263.286 455.956 262.926 455.3 262.661C454.656 262.396 453.835 262.264 452.837 262.264H450.356V271.73ZM460.839 265.103V263.684H464.57V273.15H463.055V265.103H460.839ZM471.98 260.844C473.218 260.844 474.253 261.008 475.086 261.336C475.933 261.651 476.608 262.093 477.113 262.661C477.619 263.229 477.984 263.879 478.211 264.611C478.439 265.343 478.552 266.119 478.552 266.94C478.552 267.76 478.433 268.542 478.192 269.287C477.953 270.031 477.567 270.694 477.037 271.275C476.52 271.856 475.844 272.317 475.01 272.657C474.177 272.985 473.168 273.15 471.98 273.15H467.984V260.844H471.98ZM469.499 271.73H471.98C472.978 271.73 473.798 271.591 474.442 271.313C475.099 271.035 475.617 270.669 475.995 270.215C476.374 269.747 476.639 269.231 476.791 268.663C476.956 268.095 477.037 267.52 477.037 266.94C477.037 266.359 476.956 265.791 476.791 265.236C476.639 264.68 476.374 264.181 475.995 263.74C475.617 263.286 475.099 262.926 474.442 262.661C473.798 262.396 472.978 262.264 471.98 262.264H469.499V271.73ZM479.982 265.103V263.684H483.713V273.15H482.198V265.103H479.982Z" fill="#A4A4A4"/>
<path d="M294.984 297.963V285.658H300.42C301.278 285.658 302.011 285.79 302.617 286.055C303.223 286.308 303.684 286.693 304 287.21C304.327 287.728 304.492 288.378 304.492 289.16C304.492 289.69 304.403 290.144 304.227 290.523C304.062 290.902 303.829 291.224 303.526 291.489C303.223 291.741 302.863 291.937 302.447 292.075C302.042 292.215 301.6 292.303 301.121 292.341L301.064 292.246C301.733 292.271 302.308 292.354 302.788 292.492C303.267 292.631 303.64 292.884 303.905 293.249C304.17 293.616 304.303 294.165 304.303 294.896V297.963H302.788V294.896C302.788 294.392 302.699 294.001 302.523 293.723C302.358 293.433 302.074 293.23 301.67 293.117C301.278 292.991 300.736 292.927 300.041 292.927H296.5V297.963H294.984ZM296.5 291.508H300.42C301.278 291.508 301.916 291.294 302.333 290.864C302.762 290.423 302.977 289.855 302.977 289.16C302.977 288.492 302.762 287.98 302.333 287.626C301.916 287.261 301.278 287.077 300.42 287.077H296.5V291.508ZM313.557 294.915H314.977C314.876 295.534 314.649 296.089 314.296 296.581C313.955 297.061 313.5 297.447 312.932 297.736C312.376 298.014 311.732 298.153 311 298.153C310.116 298.153 309.32 297.944 308.614 297.528C307.906 297.099 307.345 296.519 306.928 295.786C306.524 295.042 306.322 294.196 306.322 293.249C306.322 292.303 306.517 291.457 306.909 290.712C307.312 289.968 307.862 289.381 308.557 288.952C309.251 288.523 310.034 288.308 310.905 288.308C311.827 288.308 312.603 288.516 313.235 288.933C313.879 289.337 314.352 289.936 314.656 290.731C314.971 291.514 315.097 292.48 315.034 293.628H307.837C307.9 294.247 308.07 294.789 308.348 295.256C308.626 295.724 308.992 296.089 309.447 296.354C309.902 296.607 310.419 296.733 311 296.733C311.644 296.733 312.187 296.569 312.629 296.241C313.083 295.9 313.392 295.459 313.557 294.915ZM310.962 289.728C310.179 289.728 309.523 289.955 308.992 290.409C308.462 290.864 308.108 291.483 307.932 292.265H313.481C313.43 291.432 313.159 290.801 312.667 290.372C312.187 289.943 311.618 289.728 310.962 289.728ZM320.568 298.153C319.81 298.153 319.115 297.944 318.484 297.528C317.865 297.099 317.372 296.519 317.007 295.786C316.64 295.042 316.458 294.196 316.458 293.249C316.458 292.303 316.634 291.457 316.988 290.712C317.341 289.968 317.827 289.381 318.446 288.952C319.065 288.523 319.772 288.308 320.568 288.308C321.274 288.308 321.849 288.441 322.291 288.706C322.746 288.958 323.092 289.311 323.333 289.766C323.572 290.22 323.736 290.745 323.825 291.337C323.926 291.931 323.977 292.568 323.977 293.249C323.977 293.729 323.926 294.253 323.825 294.821C323.724 295.376 323.547 295.913 323.295 296.43C323.054 296.935 322.714 297.352 322.272 297.679C321.83 297.996 321.262 298.153 320.568 298.153ZM320.946 296.714C321.59 296.714 322.121 296.557 322.537 296.241C322.966 295.925 323.282 295.509 323.484 294.991C323.686 294.461 323.787 293.881 323.787 293.249C323.787 292.555 323.679 291.95 323.465 291.432C323.263 290.902 322.947 290.492 322.518 290.201C322.102 289.898 321.577 289.747 320.946 289.747C319.999 289.747 319.266 290.082 318.749 290.75C318.231 291.407 317.973 292.24 317.973 293.249C317.973 293.919 318.099 294.518 318.352 295.048C318.617 295.566 318.97 295.976 319.412 296.278C319.867 296.569 320.378 296.714 320.946 296.714ZM323.787 284.711H325.303V297.963H323.92C323.894 297.686 323.863 297.358 323.825 296.979C323.8 296.6 323.787 296.297 323.787 296.07V284.711Z" fill="#CECECE"/>
<path d="M278.056 261.222H279.268V272.771H278.056V261.222ZM274.192 261.222H275.404V272.771H274.192V261.222ZM281.882 268.492V269.742H271.465V268.492H281.882ZM281.882 264.252V265.501H271.465V264.252H281.882ZM293.444 260.844V262.264H286.247V266.315H292.137V267.735H286.247V273.15H284.731V260.844H293.444ZM304.153 260.844V262.264H296.955V266.315H302.846V267.735H296.955V273.15H295.44V260.844H304.153ZM310.222 273.339C309.413 273.339 308.656 273.143 307.949 272.752C307.242 272.36 306.667 271.799 306.226 271.067C305.796 270.322 305.582 269.445 305.582 268.435C305.582 267.425 305.796 266.555 306.226 265.823C306.667 265.078 307.242 264.503 307.949 264.1C308.656 263.696 309.413 263.494 310.222 263.494C311.03 263.494 311.781 263.696 312.476 264.1C313.182 264.503 313.75 265.078 314.18 265.823C314.609 266.555 314.824 267.425 314.824 268.435C314.824 269.445 314.609 270.322 314.18 271.067C313.75 271.799 313.182 272.36 312.476 272.752C311.781 273.143 311.03 273.339 310.222 273.339ZM310.222 271.881C310.739 271.881 311.231 271.749 311.699 271.484C312.166 271.218 312.552 270.827 312.855 270.31C313.158 269.792 313.309 269.167 313.309 268.435C313.309 267.703 313.158 267.078 312.855 266.561C312.564 266.043 312.178 265.646 311.699 265.369C311.231 265.09 310.739 264.952 310.222 264.952C309.704 264.952 309.205 265.09 308.726 265.369C308.245 265.634 307.854 266.024 307.551 266.542C307.248 267.059 307.097 267.691 307.097 268.435C307.097 269.167 307.248 269.792 307.551 270.31C307.854 270.827 308.245 271.218 308.726 271.484C309.205 271.749 309.704 271.881 310.222 271.881ZM321.357 273.339C320.548 273.339 319.79 273.143 319.084 272.752C318.377 272.36 317.802 271.799 317.36 271.067C316.93 270.322 316.716 269.445 316.716 268.435C316.716 267.425 316.93 266.555 317.36 265.823C317.802 265.078 318.377 264.503 319.084 264.1C319.79 263.696 320.548 263.494 321.357 263.494C322.165 263.494 322.915 263.696 323.611 264.1C324.317 264.503 324.885 265.078 325.315 265.823C325.744 266.555 325.959 267.425 325.959 268.435C325.959 269.445 325.744 270.322 325.315 271.067C324.885 271.799 324.317 272.36 323.611 272.752C322.915 273.143 322.165 273.339 321.357 273.339ZM321.357 271.881C321.874 271.881 322.366 271.749 322.834 271.484C323.301 271.218 323.686 270.827 323.989 270.31C324.292 269.792 324.444 269.167 324.444 268.435C324.444 267.703 324.292 267.078 323.989 266.561C323.699 266.043 323.313 265.646 322.834 265.369C322.366 265.09 321.874 264.952 321.357 264.952C320.839 264.952 320.34 265.09 319.86 265.369C319.38 265.634 318.989 266.024 318.686 266.542C318.383 267.059 318.232 267.691 318.232 268.435C318.232 269.167 318.383 269.792 318.686 270.31C318.989 270.827 319.38 271.218 319.86 271.484C320.34 271.749 320.839 271.881 321.357 271.881ZM332.491 273.339C331.683 273.339 330.925 273.143 330.218 272.752C329.511 272.36 328.937 271.799 328.494 271.067C328.065 270.322 327.85 269.445 327.85 268.435C327.85 267.425 328.065 266.555 328.494 265.823C328.937 265.078 329.511 264.503 330.218 264.1C330.925 263.696 331.683 263.494 332.491 263.494C333.299 263.494 334.05 263.696 334.745 264.1C335.452 264.503 336.02 265.078 336.449 265.823C336.879 266.555 337.093 267.425 337.093 268.435C337.093 269.445 336.879 270.322 336.449 271.067C336.02 271.799 335.452 272.36 334.745 272.752C334.05 273.143 333.299 273.339 332.491 273.339ZM332.491 271.881C333.009 271.881 333.501 271.749 333.968 271.484C334.436 271.218 334.82 270.827 335.123 270.31C335.426 269.792 335.578 269.167 335.578 268.435C335.578 267.703 335.426 267.078 335.123 266.561C334.834 266.043 334.448 265.646 333.968 265.369C333.501 265.09 333.009 264.952 332.491 264.952C331.974 264.952 331.475 265.09 330.994 265.369C330.515 265.634 330.123 266.024 329.82 266.542C329.517 267.059 329.366 267.691 329.366 268.435C329.366 269.167 329.517 269.792 329.82 270.31C330.123 270.827 330.515 271.218 330.994 271.484C331.475 271.749 331.974 271.881 332.491 271.881ZM343.626 273.339C342.818 273.339 342.06 273.143 341.353 272.752C340.646 272.36 340.071 271.799 339.629 271.067C339.2 270.322 338.985 269.445 338.985 268.435C338.985 267.425 339.2 266.555 339.629 265.823C340.071 265.078 340.646 264.503 341.353 264.1C342.06 263.696 342.818 263.494 343.626 263.494C344.434 263.494 345.185 263.696 345.879 264.1C346.587 264.503 347.155 265.078 347.584 265.823C348.014 266.555 348.228 267.425 348.228 268.435C348.228 269.445 348.014 270.322 347.584 271.067C347.155 271.799 346.587 272.36 345.879 272.752C345.185 273.143 344.434 273.339 343.626 273.339ZM343.626 271.881C344.144 271.881 344.636 271.749 345.103 271.484C345.571 271.218 345.955 270.827 346.258 270.31C346.561 269.792 346.713 269.167 346.713 268.435C346.713 267.703 346.561 267.078 346.258 266.561C345.968 266.043 345.583 265.646 345.103 265.369C344.636 265.09 344.144 264.952 343.626 264.952C343.108 264.952 342.609 265.09 342.129 265.369C341.65 265.634 341.258 266.024 340.955 266.542C340.652 267.059 340.5 267.691 340.5 268.435C340.5 269.167 340.652 269.792 340.955 270.31C341.258 270.827 341.65 271.218 342.129 271.484C342.609 271.749 343.108 271.881 343.626 271.881Z" fill="#A4A4A4"/>
<g filter="url(#filter1_d_2024_1471)">
<path d="M309.725 246.751C353.104 246.751 388.27 211.6 388.27 168.239C388.27 124.878 353.104 89.7275 309.725 89.7275C266.346 89.7275 231.18 124.878 231.18 168.239C231.18 211.6 266.346 246.751 309.725 246.751Z" fill="#FF0000"/>
</g>
<g filter="url(#filter2_d_2024_1471)">
<path d="M169.568 246.751C212.948 246.751 248.113 211.6 248.113 168.239C248.113 124.878 212.948 89.7275 169.568 89.7275C126.189 89.7275 91.0235 124.878 91.0235 168.239C91.0235 211.6 126.189 246.751 169.568 246.751Z" fill="#391419"/>
</g>
<path d="M124.492 297.963V285.658H129.341C130.616 285.658 131.608 285.948 132.314 286.528C133.034 287.11 133.394 287.917 133.394 288.952C133.394 289.595 133.261 290.12 132.996 290.523C132.744 290.927 132.385 291.23 131.917 291.432C131.45 291.634 130.901 291.767 130.269 291.829L130.307 291.716C130.775 291.741 131.216 291.805 131.633 291.905C132.049 291.994 132.416 292.139 132.731 292.341C133.06 292.543 133.318 292.82 133.508 293.174C133.697 293.528 133.792 293.982 133.792 294.537C133.792 295.282 133.628 295.9 133.299 296.392C132.972 296.884 132.51 297.263 131.917 297.528C131.336 297.781 130.667 297.926 129.909 297.963H124.492ZM126.007 296.543H129.53C130.389 296.543 131.059 296.386 131.538 296.07C132.03 295.743 132.277 295.231 132.277 294.537C132.277 293.982 132.119 293.565 131.803 293.287C131.5 293.01 131.109 292.827 130.629 292.738C130.15 292.638 129.657 292.587 129.151 292.587H126.007V296.543ZM126.007 291.167H129.151C130.01 291.167 130.68 290.984 131.159 290.618C131.652 290.239 131.898 289.703 131.898 289.009C131.898 288.327 131.652 287.835 131.159 287.532C130.68 287.229 130.074 287.077 129.341 287.077H126.007V291.167ZM136.069 284.711H137.584V297.963H136.069V284.711ZM143.824 298.153C143.079 298.153 142.391 297.944 141.76 297.528C141.141 297.099 140.642 296.519 140.264 295.786C139.897 295.042 139.714 294.196 139.714 293.249C139.714 292.303 139.904 291.457 140.283 290.712C140.661 289.968 141.173 289.381 141.817 288.952C142.473 288.523 143.206 288.308 144.014 288.308C144.897 288.308 145.567 288.535 146.021 288.99C146.488 289.432 146.805 290.025 146.968 290.769C147.145 291.514 147.234 292.341 147.234 293.249C147.234 293.729 147.183 294.253 147.082 294.821C146.981 295.376 146.805 295.913 146.552 296.43C146.312 296.935 145.971 297.352 145.529 297.679C145.087 297.996 144.518 298.153 143.824 298.153ZM144.203 296.714C144.847 296.714 145.377 296.557 145.794 296.241C146.223 295.925 146.539 295.509 146.741 294.991C146.943 294.461 147.044 293.881 147.044 293.249C147.044 292.555 146.937 291.95 146.722 291.432C146.52 290.902 146.204 290.492 145.775 290.201C145.358 289.898 144.835 289.747 144.203 289.747C143.256 289.747 142.524 290.082 142.006 290.75C141.488 291.407 141.23 292.24 141.23 293.249C141.23 293.919 141.355 294.518 141.608 295.048C141.873 295.566 142.227 295.976 142.669 296.278C143.124 296.569 143.635 296.714 144.203 296.714ZM147.044 288.497H148.559V297.963H147.177C147.177 297.963 147.164 297.85 147.139 297.623C147.126 297.395 147.108 297.13 147.082 296.827C147.056 296.525 147.044 296.273 147.044 296.07V288.497ZM159.438 294.404C159.349 295.187 159.097 295.862 158.68 296.43C158.276 296.986 157.764 297.414 157.146 297.717C156.526 298.008 155.858 298.153 155.138 298.153C154.329 298.153 153.572 297.958 152.865 297.566C152.158 297.175 151.583 296.613 151.142 295.881C150.712 295.137 150.498 294.259 150.498 293.249C150.498 292.24 150.712 291.369 151.142 290.637C151.583 289.893 152.158 289.318 152.865 288.914C153.572 288.511 154.329 288.308 155.138 288.308C155.858 288.308 156.521 288.459 157.127 288.762C157.745 289.065 158.257 289.495 158.661 290.05C159.078 290.605 159.336 291.268 159.438 292.038H158.055C157.84 291.318 157.468 290.757 156.937 290.353C156.407 289.936 155.807 289.728 155.138 289.728C154.595 289.728 154.083 289.867 153.604 290.144C153.124 290.423 152.738 290.826 152.449 291.356C152.158 291.874 152.013 292.505 152.013 293.249C152.013 293.982 152.158 294.612 152.449 295.142C152.738 295.66 153.117 296.058 153.585 296.335C154.064 296.6 154.582 296.733 155.138 296.733C155.908 296.733 156.533 296.531 157.013 296.127C157.506 295.71 157.859 295.137 158.074 294.404H159.438ZM161.595 284.711H163.11V297.963H161.595V284.711ZM169.436 288.497L164.701 293.174L164.739 292.189L169.758 297.963H167.826L163.148 292.681L167.277 288.497H169.436ZM175.431 297.963V285.658H180.279C181.555 285.658 182.546 285.948 183.253 286.528C183.972 287.11 184.332 287.917 184.332 288.952C184.332 289.595 184.2 290.12 183.935 290.523C183.683 290.927 183.323 291.23 182.855 291.432C182.388 291.634 181.839 291.767 181.207 291.829L181.245 291.716C181.713 291.741 182.154 291.805 182.571 291.905C182.988 291.994 183.354 292.139 183.669 292.341C183.998 292.543 184.257 292.82 184.446 293.174C184.635 293.528 184.73 293.982 184.73 294.537C184.73 295.282 184.566 295.9 184.238 296.392C183.91 296.884 183.449 297.263 182.855 297.528C182.274 297.781 181.605 297.926 180.847 297.963H175.431ZM176.946 296.543H180.469C181.328 296.543 181.997 296.386 182.476 296.07C182.969 295.743 183.215 295.231 183.215 294.537C183.215 293.982 183.058 293.565 182.741 293.287C182.438 293.01 182.047 292.827 181.567 292.738C181.088 292.638 180.595 292.587 180.09 292.587H176.946V296.543ZM176.946 291.167H180.09C180.949 291.167 181.618 290.984 182.097 290.618C182.59 290.239 182.836 289.703 182.836 289.009C182.836 288.327 182.59 287.835 182.097 287.532C181.618 287.229 181.012 287.077 180.279 287.077H176.946V291.167ZM193.523 294.915H194.943C194.842 295.534 194.615 296.089 194.262 296.581C193.921 297.061 193.466 297.447 192.898 297.736C192.342 298.014 191.698 298.153 190.966 298.153C190.082 298.153 189.286 297.944 188.58 297.528C187.872 297.099 187.311 296.519 186.894 295.786C186.49 295.042 186.288 294.196 186.288 293.249C186.288 292.303 186.483 291.457 186.875 290.712C187.278 289.968 187.828 289.381 188.523 288.952C189.217 288.523 190 288.308 190.871 288.308C191.793 288.308 192.569 288.516 193.201 288.933C193.845 289.337 194.318 289.936 194.622 290.731C194.937 291.514 195.063 292.48 195 293.628H187.803C187.866 294.247 188.036 294.789 188.314 295.256C188.592 295.724 188.958 296.089 189.413 296.354C189.868 296.607 190.385 296.733 190.966 296.733C191.61 296.733 192.153 296.569 192.595 296.241C193.049 295.9 193.358 295.459 193.523 294.915ZM190.928 289.728C190.145 289.728 189.489 289.955 188.958 290.409C188.428 290.864 188.074 291.483 187.898 292.265H193.447C193.396 291.432 193.125 290.801 192.633 290.372C192.153 289.943 191.584 289.728 190.928 289.728ZM200.534 298.153C199.788 298.153 199.1 297.944 198.469 297.528C197.85 297.099 197.352 296.519 196.973 295.786C196.606 295.042 196.424 294.196 196.424 293.249C196.424 292.303 196.613 291.457 196.992 290.712C197.371 289.968 197.882 289.381 198.526 288.952C199.182 288.523 199.914 288.308 200.723 288.308C201.607 288.308 202.276 288.535 202.731 288.99C203.198 289.432 203.513 290.025 203.678 290.769C203.854 291.514 203.943 292.341 203.943 293.249C203.943 293.729 203.892 294.253 203.791 294.821C203.69 295.376 203.513 295.913 203.261 296.43C203.02 296.935 202.68 297.352 202.238 297.679C201.796 297.996 201.228 298.153 200.534 298.153ZM200.912 296.714C201.556 296.714 202.087 296.557 202.503 296.241C202.932 295.925 203.248 295.509 203.45 294.991C203.652 294.461 203.753 293.881 203.753 293.249C203.753 292.555 203.645 291.95 203.431 291.432C203.229 290.902 202.913 290.492 202.484 290.201C202.068 289.898 201.543 289.747 200.912 289.747C199.965 289.747 199.232 290.082 198.715 290.75C198.197 291.407 197.939 292.24 197.939 293.249C197.939 293.919 198.065 294.518 198.318 295.048C198.583 295.566 198.936 295.976 199.378 296.278C199.833 296.569 200.344 296.714 200.912 296.714ZM203.753 288.497H205.269V297.963H203.886C203.886 297.963 203.873 297.85 203.848 297.623C203.835 297.395 203.816 297.13 203.791 296.827C203.766 296.525 203.753 296.273 203.753 296.07V288.497ZM207.737 288.497H209.252V297.963H207.737V288.497ZM212.509 288.308C213.015 288.308 213.47 288.384 213.873 288.535C214.277 288.687 214.618 288.908 214.896 289.198C215.174 289.488 215.388 289.842 215.54 290.258C215.691 290.662 215.767 291.123 215.767 291.64V297.963H214.252V292.019C214.252 291.287 214.081 290.738 213.741 290.372C213.4 290.006 212.888 289.823 212.206 289.823C211.689 289.823 211.209 289.955 210.767 290.22C210.326 290.485 209.959 290.852 209.668 291.318C209.391 291.773 209.221 292.303 209.157 292.909L209.138 291.81C209.202 291.28 209.328 290.801 209.517 290.372C209.72 289.943 209.966 289.576 210.256 289.274C210.559 288.958 210.9 288.719 211.278 288.554C211.67 288.39 212.08 288.308 212.509 288.308Z" fill="#CECECE"/>
<path d="M146.04 261.221H147.253V272.769H146.04V261.221ZM142.177 261.221H143.389V272.769H142.177V261.221ZM149.866 268.491V269.74H139.449V268.491H149.866ZM149.866 264.25V265.499H139.449V264.25H149.866ZM155.764 269.551L155.783 269.456C156.263 269.494 156.705 269.575 157.109 269.702C157.513 269.828 157.867 270.017 158.17 270.27C158.473 270.51 158.707 270.825 158.87 271.217C159.035 271.608 159.117 272.081 159.117 272.637C159.117 273.28 158.965 273.867 158.662 274.397C158.359 274.94 157.93 275.369 157.374 275.685C156.831 276.012 156.194 276.177 155.461 276.177C154.779 276.177 154.154 276.012 153.586 275.685C153.031 275.369 152.596 274.94 152.279 274.397C151.976 273.867 151.857 273.28 151.919 272.637H153.245C153.245 273.04 153.334 273.4 153.51 273.716C153.687 274.043 153.94 274.303 154.268 274.492C154.597 274.681 154.994 274.776 155.461 274.776C156.118 274.776 156.635 274.573 157.014 274.17C157.406 273.766 157.601 273.229 157.601 272.561C157.601 271.892 157.387 271.349 156.957 270.933C156.541 270.516 155.967 270.308 155.234 270.308H154.154V268.907H155.234C155.714 268.907 156.118 268.825 156.446 268.661C156.775 268.484 157.021 268.238 157.185 267.923C157.349 267.606 157.431 267.247 157.431 266.844C157.431 266.276 157.26 265.815 156.92 265.461C156.592 265.095 156.093 264.912 155.423 264.912C154.868 264.912 154.395 265.095 154.003 265.461C153.612 265.815 153.416 266.276 153.416 266.844H152.09C152.04 266.376 152.09 265.94 152.241 265.537C152.406 265.133 152.646 264.78 152.961 264.477C153.277 264.161 153.643 263.921 154.06 263.758C154.49 263.581 154.944 263.493 155.423 263.493C156.131 263.493 156.749 263.644 157.279 263.947C157.81 264.237 158.221 264.634 158.51 265.14C158.801 265.644 158.946 266.212 158.946 266.844C158.946 267.36 158.865 267.796 158.7 268.15C158.548 268.491 158.328 268.761 158.037 268.964C157.76 269.166 157.425 269.31 157.033 269.399C156.642 269.487 156.219 269.538 155.764 269.551ZM164.213 271.633C163.569 271.633 162.963 271.469 162.395 271.141C161.827 270.8 161.366 270.32 161.012 269.702C160.672 269.083 160.508 268.358 160.52 267.525C160.532 266.692 160.722 265.978 161.088 265.386C161.467 264.78 161.966 264.312 162.585 263.985C163.203 263.656 163.879 263.493 164.611 263.493C165.356 263.493 166.032 263.656 166.638 263.985C167.244 264.312 167.724 264.78 168.077 265.386C168.43 265.978 168.601 266.692 168.588 267.525C168.576 267.815 168.538 268.131 168.475 268.472C168.411 268.799 168.298 269.166 168.134 269.57C168.108 269.645 168.033 269.816 167.907 270.081C167.781 270.346 167.623 270.673 167.433 271.065C167.256 271.456 167.061 271.873 166.846 272.315C166.644 272.756 166.442 273.191 166.24 273.621C166.038 274.062 165.849 274.46 165.672 274.814C165.508 275.167 165.375 275.451 165.274 275.666C165.173 275.88 165.122 275.988 165.122 275.988H163.494L167.32 268.301L167.869 267.809C167.591 268.377 167.32 268.9 167.054 269.38C166.789 269.847 166.512 270.251 166.221 270.592C165.944 270.92 165.64 271.179 165.312 271.368C164.983 271.544 164.618 271.633 164.213 271.633ZM164.611 264.95C163.929 264.95 163.335 265.178 162.831 265.632C162.326 266.073 162.061 266.717 162.035 267.563C162.023 268.37 162.256 269.007 162.736 269.475C163.216 269.942 163.803 270.176 164.497 270.176C165.281 270.176 165.899 269.916 166.354 269.399C166.82 268.882 167.061 268.257 167.073 267.525C167.086 266.969 166.979 266.503 166.751 266.124C166.524 265.745 166.221 265.455 165.842 265.253C165.476 265.051 165.066 264.95 164.611 264.95ZM169.633 265.102V263.682H173.364V273.148H171.849V265.102H169.633ZM182.839 263.587V275.893H181.324V265.461L181.684 265.575L177.422 272.296L177.1 271.728H181.627V273.148H176.115V271.728L181.324 263.587H182.839ZM182.536 273.148V271.728H184.581V273.148H182.536ZM185.91 265.102V263.682H189.641V273.148H188.126V265.102H185.91ZM195.934 271.633C195.29 271.633 194.684 271.469 194.116 271.141C193.548 270.8 193.087 270.32 192.733 269.702C192.392 269.083 192.229 268.358 192.241 267.525C192.253 266.692 192.443 265.978 192.809 265.386C193.188 264.78 193.687 264.312 194.305 263.985C194.924 263.656 195.6 263.493 196.332 263.493C197.077 263.493 197.752 263.656 198.358 263.985C198.965 264.312 199.445 264.78 199.798 265.386C200.151 265.978 200.322 266.692 200.309 267.525C200.297 267.815 200.259 268.131 200.196 268.472C200.132 268.799 200.019 269.166 199.855 269.57C199.829 269.645 199.753 269.816 199.627 270.081C199.502 270.346 199.343 270.673 199.154 271.065C198.977 271.456 198.782 271.873 198.567 272.315C198.365 272.756 198.162 273.191 197.961 273.621C197.759 274.062 197.57 274.46 197.393 274.814C197.229 275.167 197.096 275.451 196.995 275.666C196.893 275.88 196.843 275.988 196.843 275.988H195.214L199.04 268.301L199.59 267.809C199.312 268.377 199.04 268.9 198.775 269.38C198.51 269.847 198.233 270.251 197.942 270.592C197.664 270.92 197.361 271.179 197.033 271.368C196.704 271.544 196.339 271.633 195.934 271.633ZM196.332 264.95C195.65 264.95 195.056 265.178 194.552 265.632C194.047 266.073 193.782 266.717 193.756 267.563C193.744 268.37 193.977 269.007 194.457 269.475C194.937 269.942 195.524 270.176 196.218 270.176C197.001 270.176 197.62 269.916 198.074 269.399C198.541 268.882 198.782 268.257 198.794 267.525C198.806 266.969 198.699 266.503 198.472 266.124C198.245 265.745 197.942 265.455 197.563 265.253C197.196 265.051 196.786 264.95 196.332 264.95Z" fill="#A4A4A4"/>
</g>
<defs>
<filter id="filter0_d_2024_1471" x="371.336" y="68.8275" width="204.99" height="198.822" filterUnits="userSpaceOnUse" color-interpolation-filters="sRGB">
<feFlood flood-opacity="0" result="BackgroundImageFix"/>
<feColorMatrix in="SourceAlpha" type="matrix" values="0 0 0 0 0 0 0 0 0 0 0 0 0 0 0 0 0 0 127 0" result="hardAlpha"/>
<feOffset dx="27"/>
<feGaussianBlur stdDeviation="10.45"/>
<feComposite in2="hardAlpha" operator="out"/>
<feColorMatrix type="matrix" values="0 0 0 0 0.235 0 0 0 0 0.235 0 0 0 0 0.235 0 0 0 0.25 0"/>
<feBlend mode="normal" in2="BackgroundImageFix" result="effect1_dropShadow_2024_1471"/>
<feBlend mode="normal" in="SourceGraphic" in2="effect1_dropShadow_2024_1471" result="shape"/>
</filter>
<filter id="filter1_d_2024_1471" x="231.18" y="68.8275" width="204.99" height="198.822" filterUnits="userSpaceOnUse" color-interpolation-filters="sRGB">
<feFlood flood-opacity="0" result="BackgroundImageFix"/>
<feColorMatrix in="SourceAlpha" type="matrix" values="0 0 0 0 0 0 0 0 0 0 0 0 0 0 0 0 0 0 127 0" result="hardAlpha"/>
<feOffset dx="27"/>
<feGaussianBlur stdDeviation="10.45"/>
<feComposite in2="hardAlpha" operator="out"/>
<feColorMatrix type="matrix" values="0 0 0 0 0.235 0 0 0 0 0.235 0 0 0 0 0.235 0 0 0 0.25 0"/>
<feBlend mode="normal" in2="BackgroundImageFix" result="effect1_dropShadow_2024_1471"/>
<feBlend mode="normal" in="SourceGraphic" in2="effect1_dropShadow_2024_1471" result="shape"/>
</filter>
<filter id="filter2_d_2024_1471" x="91.0234" y="68.8275" width="204.99" height="198.822" filterUnits="userSpaceOnUse" color-interpolation-filters="sRGB">
<feFlood flood-opacity="0" result="BackgroundImageFix"/>
<feColorMatrix in="SourceAlpha" type="matrix" values="0 0 0 0 0 0 0 0 0 0 0 0 0 0 0 0 0 0 127 0" result="hardAlpha"/>
<feOffset dx="27"/>
<feGaussianBlur stdDeviation="10.45"/>
<feComposite in2="hardAlpha" operator="out"/>
<feColorMatrix type="matrix" values="0 0 0 0 0.235 0 0 0 0 0.235 0 0 0 0 0.235 0 0 0 0.25 0"/>
<feBlend mode="normal" in2="BackgroundImageFix" result="effect1_dropShadow_2024_1471"/>
<feBlend mode="normal" in="SourceGraphic" in2="effect1_dropShadow_2024_1471" result="shape"/>
</filter>
<linearGradient id="paint0_linear_2024_1471" x1="10.1463" y1="195" x2="1049.5" y2="24.4858" gradientUnits="userSpaceOnUse">
<stop stop-color="#707070"/>
<stop offset="0.540793" stop-color="#484848" stop-opacity="0.82"/>
<stop offset="1" stop-opacity="0"/>
</linearGradient>
<clipPath id="clip0_2024_1471">
<rect width="1090" height="390" fill="white"/>
</clipPath>
</defs>
</svg>
