<svg width="489" height="245" viewBox="0 0 489 245" fill="none" xmlns="http://www.w3.org/2000/svg">
<mask id="mask0_1985_5985" style="mask-type:luminance" maskUnits="userSpaceOnUse" x="0" y="0" width="489" height="245">
<path d="M449.244 0H39.7561C17.7994 0 0 18.081 0 40.3849V203.656C0 225.96 17.7994 244.04 39.7561 244.04H449.244C471.201 244.04 489 225.96 489 203.656V40.3849C489 18.081 471.201 0 449.244 0Z" fill="white"/>
</mask>
<g mask="url(#mask0_1985_5985)">
<g filter="url(#filter0_d_1985_5985)">
<path d="M449.241 0.288086H39.7534C17.9535 0.288086 0.28125 18.2399 0.28125 40.3846V203.655C0.28125 225.8 17.9535 243.752 39.7534 243.752H449.241C471.041 243.752 488.713 225.8 488.713 203.655V40.3846C488.713 18.2399 471.041 0.288086 449.241 0.288086Z" stroke="black" stroke-opacity="0.4"/>
</g>
<path d="M92.7519 216.788L2.19129 142.294C-14.2628 128.758 -38.403 131.336 -51.7273 148.05L-74.2898 176.353C-87.6141 193.068 -85.0768 217.59 -68.6227 231.125L21.9379 305.619C38.392 319.154 62.5322 316.577 75.8565 299.863L98.4189 271.56C111.743 254.845 109.206 230.323 92.7519 216.788Z" fill="#3A3A3A" fill-opacity="0.3" stroke="#B0B0B0" stroke-opacity="0.27" stroke-width="2"/>
<path d="M75.6034 -12.6241L-14.9571 -87.1186C-31.4113 -100.654 -55.5515 -98.0763 -68.8758 -81.3619L-118.964 -18.5291C-132.289 -1.81468 -129.752 22.7073 -113.297 36.2424L-22.7368 110.737C-6.2827 124.272 17.8575 121.695 31.1818 104.98L81.2705 42.1474C94.5948 25.433 92.0575 0.910949 75.6034 -12.6241Z" fill="#3A3A3A" fill-opacity="0.3" stroke="#B0B0B0" stroke-opacity="0.27" stroke-width="2"/>
<path d="M421.643 55.6527L265.616 -72.6941C239.655 -94.0494 201.567 -89.9829 180.544 -63.6113L57.1247 91.21C36.1019 117.582 40.1051 156.272 66.0661 177.627L222.093 305.974C248.054 327.329 286.142 323.263 307.165 296.891L430.584 142.07C451.607 115.698 447.604 77.008 421.643 55.6527Z" fill="#3A3A3A" fill-opacity="0.3" stroke="#B0B0B0" stroke-opacity="0.27" stroke-width="2"/>
<path d="M118.793 143.954L118.38 143.741V144.211V170.694L99.1055 164.552V111.407C99.1055 91.2667 115.178 74.9391 135.006 74.9391C154.833 74.9391 170.906 91.2667 170.906 111.407C170.906 131.548 154.833 147.875 135.006 147.875C129.171 147.875 123.662 146.461 118.793 143.954ZM230.201 78.7572L230.613 78.9684V78.4993V74.9391H249.499V146.294H230.613V142.734V142.265L230.201 142.477C225.446 144.919 220.07 146.294 214.377 146.294C194.98 146.294 179.255 130.321 179.255 110.617C179.255 90.9125 194.98 74.9391 214.377 74.9391C220.07 74.9391 225.446 76.3151 230.201 78.7572ZM272.68 164.033L285.186 150.175C285.291 150.287 285.435 150.432 285.62 150.6C286.06 150.998 286.733 151.527 287.677 152.064C289.565 153.139 292.527 154.238 296.852 154.38C301.26 154.526 304.933 151.68 307.479 148.86C308.756 147.444 309.762 146.021 310.449 144.952C310.793 144.417 311.057 143.971 311.236 143.657C311.325 143.5 311.393 143.377 311.438 143.292C311.462 143.25 311.479 143.217 311.49 143.194L311.504 143.169L311.508 143.162L311.508 143.16L311.509 143.16C311.509 143.16 311.509 143.159 311.257 143.026L311.509 143.159L311.894 142.41L311.138 142.764C306.662 144.856 302.084 146.294 296.861 146.294C277.464 146.294 261.739 130.321 261.739 110.617C261.739 90.9125 277.464 74.9391 296.861 74.9391C316.257 74.9391 331.203 90.1198 331.205 109.821C331.205 109.823 331.205 109.825 331.205 109.826V109.833L331.203 109.881L331.196 110.071C331.191 110.238 331.182 110.484 331.172 110.799C331.15 111.43 331.12 112.34 331.083 113.454C331.011 115.683 330.914 118.735 330.816 122.02C330.622 128.59 330.427 136.104 330.427 139.864C330.427 146.911 327.629 155.738 322.031 162.503C316.442 169.258 308.068 173.951 296.89 172.776C285.63 171.593 279.546 169.328 276.287 167.38C274.659 166.407 273.737 165.514 273.226 164.878C272.971 164.559 272.817 164.304 272.729 164.132C272.71 164.095 272.694 164.062 272.68 164.033ZM367.005 110.564L367.001 110.585L367 110.607C366.805 116.143 366.611 125.136 366.465 132.744C366.392 136.549 366.331 140.007 366.289 142.514C366.268 143.768 366.251 144.784 366.24 145.486L366.227 146.294H347.719L347.717 146.185C347.711 145.929 347.704 145.552 347.695 145.071C347.677 144.109 347.652 142.728 347.628 141.052C347.579 137.699 347.531 133.168 347.531 128.451C347.531 123.735 347.579 118.836 347.725 114.747C347.871 110.642 348.114 107.393 348.494 105.948C348.631 105.424 348.763 104.898 348.895 104.368C349.515 101.885 350.157 99.3131 351.587 96.3679C353.319 92.7996 356.213 88.6769 361.641 83.5572C367.037 78.4682 373.596 76.1131 378.819 75.0326C381.428 74.4926 383.7 74.2716 385.318 74.1856C386.127 74.1424 386.772 74.1337 387.214 74.1349C387.379 74.1354 387.515 74.1377 387.621 74.1401V92.5619C387.494 92.5723 387.324 92.5885 387.115 92.6121C386.624 92.6675 385.92 92.7662 385.065 92.9375C383.359 93.2808 381.049 93.9171 378.639 95.0912C373.813 97.4422 368.582 101.954 367.005 110.564ZM135.395 128.691C145.006 128.691 152.798 120.775 152.798 111.012C152.798 101.249 145.006 93.3333 135.395 93.3333C125.783 93.3333 117.991 101.249 117.991 111.012C117.991 120.775 125.783 128.691 135.395 128.691ZM214.766 128.691C224.378 128.691 232.17 120.775 232.17 111.012C232.17 101.249 224.378 93.3333 214.766 93.3333C205.155 93.3333 197.363 101.249 197.363 111.012C197.363 120.775 205.155 128.691 214.766 128.691ZM297.25 128.691C306.862 128.691 314.654 120.775 314.654 111.012C314.654 101.249 306.862 93.3333 297.25 93.3333C287.639 93.3333 279.847 101.249 279.847 111.012C279.847 120.775 287.639 128.691 297.25 128.691Z" fill="#FF0000" stroke="#4A4A4A"/>
<path d="M394.709 16.1339L485.27 90.6284C501.724 104.163 525.864 101.586 539.188 84.8716L561.751 56.5686C575.075 39.8542 572.538 15.3322 556.084 1.79714L465.523 -72.6973C449.069 -86.2324 424.929 -83.655 411.604 -66.9406L389.042 -38.6376C375.718 -21.9232 378.255 2.59881 394.709 16.1339Z" fill="#3A3A3A" fill-opacity="0.3" stroke="#B0B0B0" stroke-opacity="0.27" stroke-width="2"/>
<path d="M411.861 245.547L502.422 320.041C518.876 333.576 543.016 330.999 556.341 314.285L606.429 251.452C619.754 234.738 617.216 210.216 600.762 196.68L510.202 122.186C493.748 108.651 469.607 111.228 456.283 127.943L406.194 190.775C392.87 207.49 395.407 232.012 411.861 245.547Z" fill="#3A3A3A" fill-opacity="0.3" stroke="#B0B0B0" stroke-opacity="0.27" stroke-width="2"/>
</g>
<defs>
<filter id="filter0_d_1985_5985" x="-4.21875" y="-4.21191" width="497.434" height="252.464" filterUnits="userSpaceOnUse" color-interpolation-filters="sRGB">
<feFlood flood-opacity="0" result="BackgroundImageFix"/>
<feColorMatrix in="SourceAlpha" type="matrix" values="0 0 0 0 0 0 0 0 0 0 0 0 0 0 0 0 0 0 127 0" result="hardAlpha"/>
<feOffset/>
<feGaussianBlur stdDeviation="2"/>
<feComposite in2="hardAlpha" operator="out"/>
<feColorMatrix type="matrix" values="0 0 0 0 0 0 0 0 0 0 0 0 0 0 0 0 0 0 0.25 0"/>
<feBlend mode="normal" in2="BackgroundImageFix" result="effect1_dropShadow_1985_5985"/>
<feBlend mode="normal" in="SourceGraphic" in2="effect1_dropShadow_1985_5985" result="shape"/>
</filter>
</defs>
</svg>
