<svg width="489" height="218" viewBox="0 0 489 218" fill="none" xmlns="http://www.w3.org/2000/svg">
<mask id="mask0_1985_5985" style="mask-type:luminance" maskUnits="userSpaceOnUse" x="0" y="0" width="489" height="218">
<path d="M449.244 0.677734H39.7561C17.7994 0.677734 0 16.708 0 36.4824V181.236C0 201.01 17.7994 217.04 39.7561 217.04H449.244C471.201 217.04 489 201.01 489 181.236V36.4824C489 16.708 471.201 0.677734 449.244 0.677734Z" fill="white"/>
</mask>
<g mask="url(#mask0_1985_5985)">
<g filter="url(#filter0_d_1985_5985)">
<path d="M449.241 0.933594H39.7534C17.9535 0.933594 0.28125 16.8494 0.28125 36.4826V181.236C0.28125 200.869 17.9535 216.785 39.7534 216.785H449.241C471.041 216.785 488.713 200.869 488.713 181.236V36.4826C488.713 16.8494 471.041 0.933594 449.241 0.933594Z" stroke="black" stroke-opacity="0.4"/>
</g>
<path d="M92.7518 192.879L2.19129 126.833C-14.2628 114.833 -38.403 117.118 -51.7273 131.937L-74.2898 157.03C-87.6141 171.849 -85.0768 193.59 -68.6227 205.59L21.9379 271.636C38.392 283.636 62.5322 281.35 75.8565 266.532L98.4189 241.439C111.743 226.62 109.206 204.879 92.7518 192.879Z" fill="#3A3A3A" fill-opacity="0.3" stroke="#B0B0B0" stroke-opacity="0.27" stroke-width="2"/>
<path d="M75.6034 -10.5145L-14.9571 -76.5602C-31.4113 -88.5602 -55.5515 -86.2751 -68.8758 -71.4564L-118.964 -15.7497C-132.289 -0.930984 -129.752 20.8099 -113.297 32.8099L-22.7368 98.8556C-6.28271 110.856 17.8575 108.571 31.1818 93.7518L81.2705 38.0452C94.5948 23.2264 92.0575 1.48551 75.6034 -10.5145Z" fill="#3A3A3A" fill-opacity="0.3" stroke="#B0B0B0" stroke-opacity="0.27" stroke-width="2"/>
<path d="M421.643 50.0195L265.616 -63.7709C239.655 -82.7043 201.567 -79.0989 180.544 -55.7182L57.1246 81.5441C36.1019 104.925 40.1051 139.227 66.066 158.16L222.093 271.951C248.054 290.884 286.142 287.279 307.165 263.898L430.584 126.636C451.607 103.255 447.604 68.9528 421.643 50.0195Z" fill="#3A3A3A" fill-opacity="0.3" stroke="#B0B0B0" stroke-opacity="0.27" stroke-width="2"/>
<path d="M118.793 128.306L118.38 128.117V128.534V152.013L99.1055 146.568V99.4506C99.1055 81.5942 115.178 67.1184 135.006 67.1184C154.833 67.1184 170.906 81.5942 170.906 99.4506C170.906 117.307 154.833 131.783 135.006 131.783C129.171 131.783 123.662 130.529 118.793 128.306ZM230.201 70.5035L230.613 70.6907V70.2748V67.1184H249.499V130.381H230.613V127.225V126.809L230.201 126.996C225.446 129.161 220.07 130.381 214.377 130.381C194.98 130.381 179.255 116.219 179.255 98.7498C179.255 81.2802 194.98 67.1184 214.377 67.1184C220.07 67.1184 225.446 68.3383 230.201 70.5035ZM272.68 146.108L285.186 133.822C285.291 133.921 285.435 134.049 285.62 134.198C286.06 134.551 286.733 135.02 287.677 135.496C289.565 136.449 292.527 137.423 296.852 137.55C301.26 137.679 304.933 135.156 307.479 132.655C308.756 131.4 309.762 130.138 310.449 129.191C310.793 128.717 311.057 128.321 311.236 128.043C311.325 127.904 311.393 127.794 311.438 127.719C311.462 127.682 311.479 127.652 311.49 127.632L311.504 127.61L311.508 127.604L311.508 127.602L311.509 127.602C311.509 127.602 311.509 127.601 311.257 127.483L311.509 127.601L311.894 126.937L311.138 127.251C306.662 129.106 302.084 130.381 296.861 130.381C277.464 130.381 261.739 116.219 261.739 98.7498C261.739 81.2802 277.464 67.1184 296.861 67.1184C316.257 67.1184 331.203 80.5774 331.205 98.0444C331.205 98.046 331.205 98.0475 331.205 98.049V98.0547L331.203 98.0976L331.196 98.2659C331.191 98.4137 331.182 98.6316 331.172 98.9114C331.15 99.4705 331.12 100.277 331.083 101.265C331.011 103.242 330.914 105.947 330.816 108.86C330.622 114.684 330.427 121.346 330.427 124.68C330.427 130.928 327.629 138.753 322.031 144.751C316.442 150.74 308.068 154.901 296.89 153.859C285.63 152.81 279.546 150.802 276.287 149.075C274.659 148.212 273.737 147.421 273.226 146.857C272.971 146.574 272.817 146.348 272.729 146.196C272.71 146.163 272.694 146.134 272.68 146.108ZM367.005 98.7027L367.001 98.7217L367 98.7406C366.805 103.649 366.611 111.623 366.465 118.368C366.392 121.741 366.331 124.806 366.289 127.029C366.268 128.141 366.251 129.042 366.24 129.665L366.227 130.381H347.719L347.717 130.284C347.711 130.057 347.704 129.723 347.695 129.296C347.677 128.443 347.652 127.219 347.628 125.733C347.579 122.76 347.531 118.743 347.531 114.562C347.531 110.38 347.579 106.037 347.725 102.411C347.871 98.7723 348.114 95.8916 348.494 94.6108C348.631 94.1458 348.763 93.6793 348.895 93.2093C349.515 91.0083 350.157 88.7281 351.587 86.1169C353.319 82.9533 356.213 79.2981 361.641 74.7591C367.037 70.2472 373.596 68.1593 378.819 67.2012C381.428 66.7225 383.7 66.5266 385.318 66.4504C386.127 66.412 386.772 66.4043 387.214 66.4054C387.379 66.4059 387.515 66.4079 387.621 66.41V82.7425C387.494 82.7517 387.324 82.7661 387.115 82.787C386.624 82.8361 385.92 82.9236 385.065 83.0755C383.359 83.3799 381.049 83.944 378.639 84.9849C373.813 87.0693 368.582 91.0697 367.005 98.7027ZM135.395 114.774C145.006 114.774 152.798 107.756 152.798 99.1002C152.798 90.4441 145.006 83.4264 135.395 83.4264C125.783 83.4264 117.991 90.4441 117.991 99.1002C117.991 107.756 125.783 114.774 135.395 114.774ZM214.766 114.774C224.378 114.774 232.17 107.756 232.17 99.1002C232.17 90.4441 224.378 83.4264 214.766 83.4264C205.155 83.4264 197.363 90.4441 197.363 99.1002C197.363 107.756 205.155 114.774 214.766 114.774ZM297.25 114.774C306.862 114.774 314.654 107.756 314.654 99.1002C314.654 90.4441 306.862 83.4264 297.25 83.4264C287.639 83.4264 279.847 90.4441 279.847 99.1002C279.847 107.756 287.639 114.774 297.25 114.774Z" fill="#FF0000" stroke="#4A4A4A"/>
<path d="M394.709 14.9822L485.27 81.028C501.724 93.0279 525.864 90.7429 539.188 75.9241L561.751 50.8311C575.075 36.0124 572.538 14.2715 556.084 2.2715L465.523 -63.7742C449.069 -75.7742 424.929 -73.4892 411.604 -58.6704L389.042 -33.5774C375.718 -18.7586 378.255 2.98225 394.709 14.9822Z" fill="#3A3A3A" fill-opacity="0.3" stroke="#B0B0B0" stroke-opacity="0.27" stroke-width="2"/>
<path d="M411.861 218.377L502.422 284.422C518.876 296.422 543.016 294.137 556.341 279.319L606.429 223.612C619.754 208.793 617.216 187.052 600.762 175.052L510.202 109.007C493.748 97.0067 469.607 99.2918 456.283 114.111L406.194 169.817C392.87 184.636 395.407 206.377 411.861 218.377Z" fill="#3A3A3A" fill-opacity="0.3" stroke="#B0B0B0" stroke-opacity="0.27" stroke-width="2"/>
</g>
<defs>
<filter id="filter0_d_1985_5985" x="-4.21875" y="-3.56641" width="497.434" height="224.852" filterUnits="userSpaceOnUse" color-interpolation-filters="sRGB">
<feFlood flood-opacity="0" result="BackgroundImageFix"/>
<feColorMatrix in="SourceAlpha" type="matrix" values="0 0 0 0 0 0 0 0 0 0 0 0 0 0 0 0 0 0 127 0" result="hardAlpha"/>
<feOffset/>
<feGaussianBlur stdDeviation="2"/>
<feComposite in2="hardAlpha" operator="out"/>
<feColorMatrix type="matrix" values="0 0 0 0 0 0 0 0 0 0 0 0 0 0 0 0 0 0 0.25 0"/>
<feBlend mode="normal" in2="BackgroundImageFix" result="effect1_dropShadow_1985_5985"/>
<feBlend mode="normal" in="SourceGraphic" in2="effect1_dropShadow_1985_5985" result="shape"/>
</filter>
</defs>
</svg>
